
<svg viewBox="0 0 16 18" fill="none" xmlns="http://www.w3.org/2000/svg">
<path d="M3.11338 16.8503C2.55288 16.8503 2.01533 16.6277 1.61899 16.2314C1.22266 15.835 1 15.2975 1 14.737V5.72552C0.999769 5.39752 1.07624 5.07402 1.22331 4.78084L2.64069 1.94539C2.68454 1.85756 2.752 1.78369 2.83549 1.73206C2.91898 1.68043 3.01521 1.65308 3.11338 1.65308C3.21155 1.65308 3.30777 1.68043 3.39127 1.73206C3.47476 1.78369 3.54222 1.85756 3.58607 1.94539L5.00345 4.78084C5.15052 5.07402 5.22699 5.39752 5.22676 5.72552V14.737C5.22676 15.2975 5.0041 15.835 4.60776 16.2314C4.21143 16.6277 3.67388 16.8503 3.11338 16.8503V16.8503Z" stroke="#1E3D60" stroke-width="1.5" stroke-linecap="round" stroke-linejoin="round"/>
<path d="M1.06055 5.22681H5.16755" stroke="#1E3D60" stroke-width="1.5" stroke-linecap="round" stroke-linejoin="round"/>
<path d="M1 14.2086H5.22676" stroke="#1E3D60" stroke-width="1.5" stroke-linecap="round" stroke-linejoin="round"/>
<path d="M13.6804 1H9.45366C8.87007 1 8.39697 1.4731 8.39697 2.05669V15.7937C8.39697 16.3772 8.87007 16.8503 9.45366 16.8503H13.6804C14.264 16.8503 14.7371 16.3772 14.7371 15.7937V2.05669C14.7371 1.4731 14.264 1 13.6804 1Z" stroke="#1E3D60" stroke-width="1.5" stroke-linecap="round" stroke-linejoin="round"/>
<path d="M8.39697 4.17017H10.5104" stroke="#1E3D60" stroke-width="1.5" stroke-linecap="round" stroke-linejoin="round"/>
<path d="M8.39697 7.34009H10.5104" stroke="#1E3D60" stroke-width="1.5" stroke-linecap="round" stroke-linejoin="round"/>
<path d="M8.39697 10.5103H10.5104" stroke="#1E3D60" stroke-width="1.5" stroke-linecap="round" stroke-linejoin="round"/>
<path d="M8.39697 13.6803H10.5104" stroke="#1E3D60" stroke-width="1.5" stroke-linecap="round" stroke-linejoin="round"/>
</svg>
