
<svg viewBox="0 0 369 311" fill="none" xmlns="http://www.w3.org/2000/svg">
<path d="M0 0H369V310.264H0V0Z" fill="#E1EDFB"/>
<path d="M197.168 112.699C221.117 118.237 238.966 139.694 238.966 165.317" stroke="#242E39" stroke-width="6.57406" stroke-linecap="round" stroke-linejoin="round"/>
<path d="M130.909 165.318C130.909 139.845 148.548 118.493 172.282 112.797" stroke="#242E39" stroke-width="6.57406" stroke-linecap="round" stroke-linejoin="round"/>
<path d="M196.398 111.308H248.79" stroke="#242E39" stroke-width="6.57406" stroke-linecap="round" stroke-linejoin="round"/>
<path d="M248.79 122.764C255.119 122.764 260.25 117.635 260.25 111.308C260.25 104.98 255.119 99.8511 248.79 99.8511C242.46 99.8511 237.329 104.98 237.329 111.308C237.329 117.635 242.46 122.764 248.79 122.764Z" fill="#242E39"/>
<path d="M173.477 111.308H121.085" stroke="#242E39" stroke-width="6.57406" stroke-linecap="round" stroke-linejoin="round"/>
<path d="M121.085 122.764C127.415 122.764 132.546 117.635 132.546 111.308C132.546 104.98 127.415 99.8511 121.085 99.8511C114.756 99.8511 109.625 104.98 109.625 111.308C109.625 117.635 114.756 122.764 121.085 122.764Z" fill="#242E39"/>
<path d="M193.124 124.4H176.751C174.944 124.4 173.477 122.934 173.477 121.127V104.761C173.477 102.954 174.944 101.487 176.751 101.487H193.124C194.931 101.487 196.398 102.954 196.398 104.761V121.127C196.398 122.934 194.931 124.4 193.124 124.4Z" fill="#F99D77" stroke="#242E39" stroke-width="6.57406" stroke-linecap="round" stroke-linejoin="round"/>
<path d="M245.515 186.593H232.417C230.61 186.593 229.143 185.127 229.143 183.32V170.227C229.143 168.42 230.61 166.954 232.417 166.954H245.515C247.323 166.954 248.79 168.42 248.79 170.227V183.32C248.79 185.127 247.323 186.593 245.515 186.593Z" fill="#FCDF69" stroke="#242E39" stroke-width="5.6349" stroke-linecap="round" stroke-linejoin="round"/>
<path d="M137.458 186.593H124.36C122.552 186.593 121.085 185.127 121.085 183.32V170.227C121.085 168.42 122.552 166.954 124.36 166.954H137.458C139.265 166.954 140.732 168.42 140.732 170.227V183.32C140.732 185.127 139.265 186.593 137.458 186.593Z" fill="#FCDF69" stroke="#242E39" stroke-width="5.6349" stroke-linecap="round" stroke-linejoin="round"/>
<g clip-path="url(#clip0)">
<path d="M165.158 269.475L204.718 269.475L204.718 239.088L216.716 218.259C220.294 212.049 220.189 204.375 216.441 198.263L192.094 158.553C188.82 153.212 181.059 153.212 177.785 158.553L153.438 198.263C149.69 204.375 149.585 212.045 153.163 218.259L165.162 239.088L165.158 269.475Z" fill="#F9FAFB" stroke="#242E39" stroke-width="6.57406" stroke-linecap="round" stroke-linejoin="round"/>
<path d="M200.762 249.704L169.114 249.704" stroke="#242E39" stroke-width="5.82755" stroke-linecap="round" stroke-linejoin="round"/>
<rect x="163.374" y="250.566" width="43.0117" height="18.3504" fill="#242E39"/>
</g>
<path d="M179.993 205.215C177.262 207.945 177.262 212.371 179.993 215.101C182.724 217.832 187.152 217.832 189.883 215.101C192.614 212.371 192.614 207.945 189.883 205.215C187.152 202.485 182.724 202.485 179.993 205.215Z" fill="#242E39"/>
<path d="M184.938 206.202L184.938 154.793" stroke="#242E39" stroke-width="6.57406" stroke-linecap="round" stroke-linejoin="round"/>
<defs>
<clipPath id="clip0">
<rect width="134.247" height="134.247" fill="white" transform="matrix(-0.707232 0.706982 -0.707232 -0.706982 279.882 216.089)"/>
</clipPath>
</defs>
</svg>
