<svg viewBox="0 0 369 311" fill="none" xmlns="http://www.w3.org/2000/svg">
<path d="M0 0H369V311H0V0Z" fill="#FCDF69"/>
<rect x="107.337" y="145.803" width="154.61" height="118.967" fill="#F9FAFB"/>
<rect x="107.337" y="109.364" width="154.61" height="33.9727" fill="#242E39"/>
<path d="M206.501 222.887C207.301 223.817 208.369 224.216 209.436 224.216C210.37 224.216 211.304 223.95 212.105 223.152L228.251 208.398C229.052 207.6 229.585 206.537 229.585 205.473C229.585 204.41 229.052 203.214 228.251 202.549L212.105 187.794C210.504 186.332 207.968 186.465 206.501 188.06C205.033 189.655 205.166 192.181 206.768 193.643L219.578 205.34L206.768 217.038C205.166 218.633 205.033 221.159 206.501 222.887Z" fill="#242E39"/>
<path d="M172.874 238.705C173.274 238.838 173.541 238.971 173.942 238.971C175.676 239.104 177.411 238.173 178.078 236.445L200.096 177.426C200.896 175.3 199.829 173.04 197.694 172.242C195.559 171.445 193.29 172.508 192.49 174.635L170.472 233.521C169.672 235.648 170.739 237.908 172.874 238.705Z" fill="#242E39"/>
<path d="M158.463 223.153C159.264 223.817 160.198 224.216 161.132 224.216C162.199 224.216 163.267 223.817 164.067 222.887C165.535 221.292 165.402 218.766 163.801 217.304L150.991 205.474L163.801 193.776C165.402 192.314 165.535 189.789 164.067 188.193C162.6 186.598 160.064 186.465 158.463 187.928L142.317 202.549C141.516 203.347 140.983 204.41 140.983 205.474C140.983 206.537 141.516 207.733 142.317 208.398L158.463 223.153Z" fill="#242E39"/>
<path d="M118.565 270.607H252.003C261.611 270.607 269.35 262.898 269.35 253.327V120.401C269.35 110.831 261.611 103.121 252.003 103.121H118.565C108.957 103.121 101.218 110.831 101.218 120.401V139.011V253.327C101.218 262.898 108.957 270.607 118.565 270.607ZM109.224 120.401C109.224 115.217 113.361 111.097 118.565 111.097H252.003C257.207 111.097 261.344 115.217 261.344 120.401V140.34H109.224V120.401ZM109.224 148.316H261.344V253.327C261.344 258.511 257.207 262.632 252.003 262.632H118.565C113.361 262.632 109.224 258.511 109.224 253.327V148.316Z" fill="#242E39"/>
<path d="M129.24 121.731H123.903C121.634 121.731 119.899 123.459 119.899 125.719C119.899 127.978 121.634 129.706 123.903 129.706H129.24C131.509 129.706 133.243 127.978 133.243 125.719C133.243 123.459 131.509 121.731 129.24 121.731Z" fill="#F99D77"/>
<path d="M150.59 121.731H145.253C142.984 121.731 141.25 123.459 141.25 125.719C141.25 127.978 142.984 129.706 145.253 129.706H150.59C152.859 129.706 154.593 127.978 154.593 125.719C154.593 123.459 152.859 121.731 150.59 121.731Z" fill="#649BDC"/>
</svg>