
<svg viewBox="0 0 233 233" fill="none" xmlns="http://www.w3.org/2000/svg">
<ellipse cx="109.784" cy="116.326" rx="109.784" ry="110.484" fill="#FCDF69"/>
<path opacity="0.6" fill-rule="evenodd" clip-rule="evenodd" d="M206.491 114.819C206.491 126.892 196.704 136.679 184.631 136.679C184.043 136.679 183.46 136.656 182.883 136.61C182.909 136.354 182.922 136.094 182.922 135.83C182.922 131.545 179.448 128.071 175.163 128.071C172.911 128.071 170.883 129.031 169.466 130.563C165.338 126.587 162.771 121.003 162.771 114.819C162.771 102.746 172.558 92.959 184.631 92.959C196.704 92.959 206.491 102.746 206.491 114.819ZM168.833 131.342C164.481 127.18 161.771 121.316 161.771 114.819C161.771 102.194 172.006 91.959 184.631 91.959C197.256 91.959 207.491 102.194 207.491 114.819C207.491 127.444 197.256 137.679 184.631 137.679C183.987 137.679 183.35 137.653 182.719 137.601C181.918 141.033 178.839 143.59 175.163 143.59C170.878 143.59 167.404 140.116 167.404 135.83C167.404 134.158 167.933 132.609 168.833 131.342Z" fill="white"/>
<path opacity="0.6" fill-rule="evenodd" clip-rule="evenodd" d="M81.6232 26.2763C96.2368 17.8391 114.923 22.8461 123.36 37.4598C131.798 52.0735 126.791 70.7599 112.177 79.1971C97.5633 87.6343 78.8769 82.6273 70.4397 68.0137C66.9962 62.0493 65.7921 55.4065 66.5666 49.059C69.8976 51.7299 74.6571 52.2375 78.5772 49.9743C83.6793 47.0286 85.4274 40.5045 82.4817 35.4024C81.0094 32.8523 78.6433 31.1401 76.0075 30.433C77.6798 28.8693 79.5553 27.4702 81.6232 26.2763ZM65.6658 48.2478C65.035 47.6106 64.4747 46.8827 64.0053 46.0697C61.0596 40.9676 62.8078 34.4436 67.9099 31.4979C70.0838 30.2428 72.5159 29.8398 74.8193 30.1853C76.671 28.3749 78.7772 26.7647 81.1232 25.4103C96.2151 16.6969 115.513 21.8678 124.227 36.9598C132.94 52.0518 127.769 71.3498 112.677 80.0632C97.585 88.7765 78.287 83.6056 69.5737 68.5137C65.8923 62.1373 64.6893 55.0102 65.6658 48.2478Z" fill="white"/>
<path opacity="0.6" fill-rule="evenodd" clip-rule="evenodd" d="M63.8664 151.475C67.6066 160.688 63.1702 171.189 53.9573 174.929C48.5019 177.144 42.5951 176.492 37.9076 173.678C39.5128 172.342 40.1472 170.073 39.3195 168.034C38.2951 165.511 35.4192 164.295 32.8959 165.32C32.2245 165.592 31.6458 165.996 31.1772 166.489C30.9332 166.014 30.7082 165.524 30.5035 165.02C26.7632 155.807 31.1997 145.306 40.4126 141.566C49.6255 137.826 60.1261 142.262 63.8664 151.475ZM30.5116 167.369C30.1668 166.737 29.8543 166.079 29.5769 165.396C25.6289 155.671 30.3118 144.588 40.0364 140.64C49.7611 136.692 60.8449 141.374 64.7929 151.099C68.7409 160.824 64.0581 171.908 54.3335 175.856C48.4162 178.258 41.9956 177.465 36.9857 174.284C36.8626 174.347 36.7358 174.404 36.6056 174.457C34.0823 175.482 31.2064 174.267 30.182 171.743C29.5788 170.258 29.7521 168.65 30.5116 167.369Z" fill="white"/>
<circle opacity="0.6" cx="161.771" cy="61.887" r="11.0996" fill="white"/>
<circle opacity="0.6" cx="179.801" cy="181.292" r="6.93079" fill="white"/>
<circle opacity="0.6" cx="35.6367" cy="95.8718" r="14.9011" fill="white"/>
<mask id="mask0" mask-type="alpha" maskUnits="userSpaceOnUse" x="0" y="5" width="220" height="222">
<ellipse cx="109.784" cy="116.326" rx="109.784" ry="110.484" fill="#FCDF69"/>
</mask>
<g mask="url(#mask0)">
<path d="M127.354 166.441C127.354 166.441 113.821 318.814 111.614 330.442C111.09 333.091 110.773 347.492 110.58 366.004C110.097 406.394 110.58 485.077 110.58 485.077H47.0702C47.0702 485.077 48.7255 353.051 51.581 329.794C54.4364 306.537 72.3829 166.441 72.3829 166.441H127.354Z" fill="#0B2340"/>
<path d="M98.3854 396.021L98.5923 368.432C98.5923 359.493 98.5923 350.499 99.0751 341.643C99.9303 323.573 103.6 305.778 106.207 287.956C108.814 270.133 110.98 252.09 112.952 234.157C115.159 214.018 117.091 193.85 119.187 173.697C119.187 173.572 119.408 173.572 119.394 173.697C116.401 209.672 113.063 245.648 108.083 281.417C106.841 290.319 105.462 299.198 103.945 308.054C102.469 317.034 100.993 325.987 100.289 335.077C99.5855 344.168 99.4751 352.872 99.3923 361.769C99.3004 370.966 99.2085 380.162 99.1165 389.358C98.9096 409.815 98.9095 447.157 98.7164 467.627C98.7164 468.014 98.0956 468 98.0956 467.627C98.275 449.391 98.2198 414.271 98.3854 396.021Z" fill="#242E39"/>
<path d="M140.803 166.441C140.803 166.441 113.877 318.814 111.669 330.442C111.145 333.091 110.828 347.492 110.635 366.004L80.2872 166.386L140.803 166.441Z" fill="#00152D"/>
<path d="M121.105 486.346L184.559 483.657C184.559 483.657 168.254 340.636 167.937 332.07C167.095 309.847 152.335 166.386 152.335 166.386H74.7694C74.7694 166.386 79.6526 199.492 88.0258 220.501C93.6546 222.464 99.0898 224.944 104.262 227.909C104.262 227.909 108.897 328.166 109.159 340.002C109.697 363.383 121.105 486.346 121.105 486.346Z" fill="#0B2340"/>
<path d="M146.666 174.897C149.549 211.024 152.501 247.152 155.811 283.252C159.122 319.352 172.365 443.901 175.455 463.958C175.455 464.096 175.275 464.151 175.248 463.958C168.847 428.286 165.123 380.35 161.108 344.333C157.094 308.316 153.839 272.216 150.928 236.116C149.273 215.687 147.783 195.243 146.224 174.814C146.169 174.593 146.666 174.607 146.666 174.897Z" fill="#00142D"/>
<path d="M85.2669 219.066C91.842 221.46 98.1974 224.418 104.262 227.908C104.313 227.932 104.353 227.975 104.372 228.028C104.391 228.081 104.389 228.14 104.365 228.191C104.341 228.242 104.298 228.282 104.245 228.301C104.192 228.321 104.134 228.318 104.082 228.295C97.6819 225.536 91.1571 222.929 84.922 219.825C84.8722 219.802 84.8274 219.77 84.79 219.73C84.7527 219.69 84.7235 219.643 84.7043 219.592C84.6851 219.541 84.6762 219.486 84.678 219.431C84.6799 219.377 84.6925 219.323 84.7152 219.273C84.7378 219.223 84.77 219.178 84.81 219.141C84.85 219.104 84.8969 219.075 84.9481 219.055C84.9994 219.036 85.0539 219.027 85.1086 219.029C85.1633 219.031 85.2171 219.044 85.2669 219.066Z" fill="#00152D"/>
<path d="M83.2115 175.104C83.2115 174.883 83.6253 174.828 83.6115 175.104C83.6115 182.704 84.053 189.395 84.6875 196.485C84.991 199.782 87.6395 218.004 93.3504 216.68C94.316 216.445 94.7298 215.507 94.9506 214.073C94.9242 212.209 94.6694 210.356 94.1919 208.555C93.5573 204.734 93.0469 200.913 92.7159 197.064C92.0557 189.888 92.1343 182.664 92.9503 175.504C92.9616 175.463 92.9858 175.427 93.0195 175.401C93.0531 175.376 93.0943 175.362 93.1366 175.362C93.1789 175.362 93.2201 175.376 93.2537 175.401C93.2873 175.427 93.3116 175.463 93.3228 175.504C93.1489 185.447 93.7299 195.389 95.0609 205.244C95.7782 209.99 98.1646 217.121 93.2124 217.852C88.2603 218.584 84.9359 206.638 84.2875 203.382C82.7024 194.043 82.3406 184.537 83.2115 175.104V175.104Z" fill="#00152D"/>
<path d="M93.2125 217.176C93.7267 218.407 94.1599 219.669 94.5091 220.956C94.8669 221.951 95.0444 223.002 95.0333 224.06C95.0333 224.253 94.7436 224.28 94.647 224.143C94.0342 223.213 93.5689 222.194 93.2676 221.122C92.84 219.949 92.371 218.79 91.9709 217.618C91.9124 217.453 91.9217 217.272 91.9967 217.114C92.0717 216.956 92.2064 216.835 92.371 216.776C92.5356 216.718 92.7168 216.727 92.8746 216.802C93.0324 216.877 93.1539 217.012 93.2125 217.176V217.176Z" fill="#00152D"/>
<path d="M24.8888 162.044C17.6191 154.542 19.5642 136.373 84.8254 83.7239C105.517 67.0248 104.276 80.9883 97.3508 92.3592C90.426 103.73 78.2731 126.125 78.2731 126.125C78.2731 126.125 65.4167 159.809 61.4026 161.707C57.3884 163.606 32.0481 169.454 24.8888 162.044Z" fill="#134785"/>
<path d="M161.991 193.285C161.771 193.533 66.3409 193.823 65.4305 192.843C64.2166 191.464 84.4943 88.7232 98.0956 74.7081C100.496 72.2251 112.635 70.3766 118.442 75.1357C134.637 88.3783 139.134 100.89 143.272 111.484C146.293 119.333 149.894 132.7 153.108 146.398C158.446 168.965 162.777 192.388 161.991 193.285Z" fill="#134785"/>
<path d="M86.5497 97.2892C85.3772 100.793 84.5633 103.373 83.7909 106.131C83.715 104.168 83.7426 102.202 83.8736 100.241C83.8736 100.117 83.6805 100.089 83.6668 100.241C83.5472 100.995 83.4369 101.754 83.3357 102.517C83.2391 103.248 83.0598 103.897 82.977 104.697C82.7886 106.225 82.7101 107.765 82.7425 109.304C82.7206 109.381 82.7206 109.462 82.7425 109.539C82.4666 110.504 82.1907 111.497 81.8872 112.615C80.2227 118.611 78.6548 124.643 77.1834 130.713C74.259 142.834 71.6702 155.078 69.4171 167.447C68.1205 174.414 66.9066 181.421 66.0789 188.456C66.0724 188.475 66.0705 188.495 66.0733 188.515C66.0761 188.534 66.0834 188.553 66.0949 188.569C66.1064 188.585 66.1216 188.598 66.1392 188.607C66.1568 188.617 66.1763 188.621 66.1961 188.621C66.2159 188.621 66.2355 188.617 66.2531 188.607C66.2707 188.598 66.2858 188.585 66.2973 188.569C66.3088 188.553 66.3162 188.534 66.319 188.515C66.3218 188.495 66.3199 188.475 66.3134 188.456C67.6928 182.345 68.9205 176.166 70.2586 170.027C71.5966 163.889 72.8657 157.847 74.2175 151.749C76.9764 139.528 79.7353 127.333 82.6873 115.139C84.3013 108.242 85.529 104.255 87.0877 97.3582C87.0923 97.3228 87.0898 97.287 87.0805 97.2526C87.0712 97.2182 87.0551 97.1861 87.0333 97.1579C87.0116 97.1297 86.9844 97.1061 86.9535 97.0884C86.9226 97.0707 86.8886 97.0592 86.8533 97.0547C86.7819 97.0455 86.7099 97.0651 86.653 97.1091C86.596 97.1531 86.5589 97.2179 86.5497 97.2892V97.2892Z" fill="#242E39"/>
<g opacity="0.1">
<path opacity="0.1" d="M119.077 75.5768H97.3784L97.668 75.2181H118.58L118.732 75.3423L119.077 75.5768Z" fill="black"/>
<path opacity="0.1" d="M124.815 80.8327H94.1643C94.1643 80.7085 94.2747 80.5981 94.3436 80.474H124.443L124.815 80.8327Z" fill="black"/>
<path opacity="0.1" d="M129.588 86.0606H91.7779L91.9158 85.7157H129.312L129.588 86.0606Z" fill="black"/>
<path opacity="0.1" d="M133.533 91.3298H89.7224L89.8604 90.985H133.299L133.533 91.3298Z" fill="black"/>
<path opacity="0.1" d="M136.748 96.5858H87.8878L88.0119 96.2272H136.541L136.748 96.5858Z" fill="black"/>
<path opacity="0.1" d="M139.369 101.841H86.1774C86.1774 101.717 86.2601 101.593 86.2877 101.483H139.189C139.257 101.598 139.317 101.718 139.369 101.841V101.841Z" fill="black"/>
<path opacity="0.1" d="M141.576 107.084H84.591L84.6876 106.739H141.451C141.499 106.851 141.54 106.967 141.576 107.084V107.084Z" fill="black"/>
<path opacity="0.1" d="M143.617 112.339H83.046L83.1426 111.994H143.479C143.519 112.111 143.565 112.226 143.617 112.339V112.339Z" fill="black"/>
<path opacity="0.1" d="M145.41 117.594H81.5838C81.5838 117.47 81.5838 117.36 81.6804 117.25H145.286V117.374C145.321 117.451 145.362 117.525 145.41 117.594V117.594Z" fill="black"/>
<path opacity="0.1" d="M147.011 122.85H80.1768C80.1768 122.726 80.2457 122.602 80.2733 122.492H146.914C146.942 122.602 146.983 122.685 147.011 122.85Z" fill="black"/>
<path opacity="0.1" d="M148.5 128.106H78.825L78.9077 127.747H148.404C148.442 127.865 148.475 127.985 148.5 128.106V128.106Z" fill="black"/>
<path opacity="0.1" d="M149.907 133.348H77.5145C77.5355 133.231 77.5631 133.116 77.5972 133.003H149.825C149.838 133.113 149.88 133.224 149.907 133.348Z" fill="black"/>
<path opacity="0.1" d="M151.246 138.604H76.2316L76.3144 138.259H151.163L151.246 138.604Z" fill="black"/>
<path opacity="0.1" d="M152.515 143.859H74.9349L75.0177 143.5H152.377C152.429 143.617 152.475 143.737 152.515 143.859V143.859Z" fill="black"/>
<path opacity="0.1" d="M153.756 149.115H73.7486L73.8314 148.756H153.646L153.756 149.115Z" fill="black"/>
<path opacity="0.1" d="M154.942 154.412H72.5898L72.6726 154.067H154.942V154.412Z" fill="black"/>
<path opacity="0.1" d="M156.115 159.612H71.4587C71.4665 159.497 71.4665 159.382 71.4587 159.267H155.963L156.115 159.612Z" fill="black"/>
<path opacity="0.1" d="M157.232 164.868H70.3275C70.3585 164.755 70.3816 164.639 70.3966 164.523H157.149C157.191 164.647 157.205 164.758 157.232 164.868Z" fill="black"/>
<path opacity="0.1" d="M158.308 170.123H69.2654C69.295 170.005 69.318 169.886 69.3343 169.765H158.239C158.267 169.889 158.294 170.013 158.308 170.123Z" fill="black"/>
<path opacity="0.1" d="M159.357 175.365H68.2308C68.2308 175.255 68.2308 175.145 68.2998 175.021H159.343C159.341 175.136 159.345 175.251 159.357 175.365V175.365Z" fill="black"/>
<path opacity="0.1" d="M160.336 180.621H67.2376C67.2376 180.511 67.2376 180.387 67.2376 180.276H160.226C160.295 180.387 160.322 180.511 160.336 180.621Z" fill="black"/>
<path opacity="0.1" d="M161.246 185.876H66.3134C66.3134 185.766 66.3134 185.656 66.3134 185.532H161.136C161.205 185.656 161.233 185.766 161.246 185.876Z" fill="black"/>
<path opacity="0.1" d="M161.977 191.133H65.5133V190.774H161.909C161.938 190.892 161.961 191.012 161.977 191.133V191.133Z" fill="black"/>
<path opacity="0.1" d="M160.75 182.939C160.874 183.642 160.984 184.318 161.095 184.953V193.326H160.75V182.939Z" fill="black"/>
<path opacity="0.1" d="M155.494 156.798C155.618 157.336 155.729 157.888 155.853 158.426V193.395H155.494V156.798Z" fill="black"/>
<path opacity="0.1" d="M150.252 134.672C150.363 135.127 150.487 135.583 150.597 136.052V193.45H150.252V134.672Z" fill="black"/>
<path opacity="0.1" d="M145.286 117.25V193.477H144.941V116.325C145.093 116.629 145.19 116.932 145.286 117.25Z" fill="black"/>
<path opacity="0.1" d="M140.086 103.483V193.492H139.769V102.683C139.865 102.945 139.975 103.221 140.086 103.483Z" fill="black"/>
<path opacity="0.1" d="M134.844 93.3578V193.519H134.485V92.8198C134.609 92.9854 134.734 93.1647 134.844 93.3578Z" fill="black"/>
<path opacity="0.1" d="M129.588 86.0606V193.519H129.23V85.6329L129.312 85.7295L129.588 86.0606Z" fill="black"/>
<path opacity="0.1" d="M124.333 80.3634V193.477H123.988V80.0186L124.333 80.3634Z" fill="black"/>
<path opacity="0.1" d="M119.077 75.6323V193.533H118.732V75.3427L119.008 75.5772C119.036 75.5875 119.061 75.6069 119.077 75.6323V75.6323Z" fill="black"/>
<path opacity="0.1" d="M113.835 72.887V193.533H113.476V72.7904L113.835 72.887Z" fill="black"/>
<path opacity="0.1" d="M108.579 72.1971V193.519H108.221V72.1282L108.579 72.1971Z" fill="black"/>
<path opacity="0.1" d="M103.324 72.6385V193.505H102.979V72.7075L103.324 72.6385Z" fill="black"/>
<path opacity="0.1" d="M98.0681 74.777V193.491H97.7233V75.1632C97.8336 75.0253 97.9578 74.9011 98.0681 74.777Z" fill="black"/>
<path opacity="0.1" d="M92.8676 83.6879V193.464H92.5228V84.4879C92.5779 84.1983 92.6883 83.9362 92.8676 83.6879Z" fill="black"/>
<path opacity="0.1" d="M87.5705 97.5239V193.423H87.2119V98.6137C87.3499 98.2412 87.4601 97.855 87.5705 97.5239Z" fill="black"/>
<path opacity="0.1" d="M82.3149 114.946V193.381H81.97V116.201C82.0804 115.787 82.1907 115.36 82.3149 114.946Z" fill="black"/>
<path opacity="0.1" d="M77.0592 135.169V193.312H76.7144V136.59C76.8247 136.107 76.9489 135.638 77.0592 135.169Z" fill="black"/>
<path opacity="0.1" d="M71.8035 158.012V193.201H71.4587V159.612C71.4665 159.497 71.4665 159.382 71.4587 159.267C71.6242 158.853 71.7208 158.426 71.8035 158.012Z" fill="black"/>
<path opacity="0.1" d="M66.5617 184.359V193.036H66.203V186.539C66.203 186.346 66.272 186.153 66.3134 185.946C66.3548 185.739 66.3134 185.725 66.3134 185.601C66.4237 185.16 66.4927 184.76 66.5617 184.359Z" fill="black"/>
</g>
<path d="M128.578 102.272C133.056 114.126 165.771 152.451 164.598 155.051C162.331 158.711 143.969 160.007 143.969 160.007C143.969 165.737 150.447 181.289 152.971 180.008C155.496 178.727 187.391 173.364 190.142 155.051C192.893 136.737 149.997 83.5168 122.675 69.4587C113.038 65.6721 121.546 83.6934 128.578 102.272Z" fill="#134785"/>
<g opacity="0.1">
<path opacity="0.1" d="M122.484 75.5769H119.242C120.313 75.3689 121.414 75.3689 122.484 75.5769V75.5769Z" fill="black"/>
<path opacity="0.1" d="M135.203 80.8325H116.318C116.318 80.7084 116.318 80.5842 116.318 80.4739H134.527L134.885 80.6532C134.987 80.7196 135.093 80.7795 135.203 80.8325Z" fill="black"/>
<path opacity="0.1" d="M145.383 86.0746H118.167L118.001 85.7297H144.735L144.997 85.8677L145.341 86.0608L145.383 86.0746Z" fill="black"/>
<path opacity="0.1" d="M163.881 96.5857H125.257L124.953 96.2271H163.247L163.881 96.5857Z" fill="black"/>
<path opacity="0.1" d="M172.185 101.842H129.919L129.588 101.483H171.634L172.185 101.842Z" fill="black"/>
<path opacity="0.1" d="M179.772 107.083H134.803L134.485 106.752H179.276L179.772 107.083Z" fill="black"/>
<path opacity="0.1" d="M195.084 148.756L194.918 149.115H155.246L154.997 148.756H195.084Z" fill="black"/>
<path opacity="0.1" d="M177.248 175.021L176.958 175.365H173.316L173.068 175.021H177.248Z" fill="black"/>
<path opacity="0.1" d="M197.526 124.064C197.651 124.251 197.766 124.444 197.87 124.643V142.19C197.76 142.507 197.65 142.824 197.526 143.142V124.064Z" fill="black"/>
<path opacity="0.1" d="M192.615 117.954V153.433L192.284 154.012V117.595C192.401 117.708 192.511 117.828 192.615 117.954V117.954Z" fill="black"/>
<path opacity="0.1" d="M155.853 139.017V150.053L155.494 149.529V139.666L155.853 139.017Z" fill="black"/>
<path opacity="0.1" d="M140.086 83.3019V112.629L139.81 112.339V83.1226L140.086 83.3019Z" fill="black"/>
<path opacity="0.1" d="M134.844 80.6534V107.125L134.527 106.794V80.5845L134.844 80.6534Z" fill="black"/>
<path opacity="0.1" d="M129.588 78.1151V101.483C129.476 101.343 129.356 101.21 129.23 101.083V77.9634L129.588 78.1151Z" fill="black"/>
<path opacity="0.1" d="M124.333 75.9911V95.4136L123.988 94.986V75.9083L124.333 75.9911Z" fill="black"/>
<path opacity="0.1" d="M119.077 75.6184V87.7575C118.953 87.5505 118.842 87.3436 118.732 87.1367V75.7839L119.077 75.6184Z" fill="black"/>
</g>
<path d="M108.322 96.3003L104.073 88.7823L98.583 94.7691L99.921 100.728L105.342 101.432L108.322 96.3003Z" fill="#001F42"/>
<path d="M105.342 101.432L107.936 162.321L96.5276 182.46L90.5961 159.796L99.921 100.729L105.342 101.432Z" fill="#001F42"/>
<path d="M98.2612 73.9629L103.462 86.4882L118.925 70.3763L123.422 75.4389C123.422 75.4389 108.4 100.931 108.248 99.786L102.937 88.9988L95.6265 96.6271L96.0127 77.6598L98.2612 73.9629Z" fill="#134785"/>
<path d="M95.2402 87.247C95.4057 84.1157 95.4885 80.9568 95.8058 77.8393C95.8058 77.7289 95.9851 77.6875 96.0127 77.8393C96.6749 80.8464 96.0127 92.82 96.0127 95.6754C96.33 95.3443 102.91 88.9437 102.91 89.0541C104.055 90.7646 107.959 98.6274 108.221 99.3309C110.593 95.2892 119.711 80.5706 122.525 76.7357C122.541 76.7159 122.563 76.7021 122.588 76.6967C122.613 76.6912 122.639 76.6944 122.661 76.7057C122.684 76.7171 122.702 76.7358 122.712 76.7588C122.723 76.7819 122.725 76.8078 122.719 76.8323C120.622 81.1085 108.579 100.931 108.386 100.876C106.352 97.1705 104.511 93.3628 102.868 89.4679C101.765 90.8474 95.1574 98.0618 95.1161 97.5928C94.9762 94.1444 95.0176 90.6911 95.2402 87.247V87.247Z" fill="#001F42"/>
<path d="M85.3497 144.866C79.087 145.46 73.3486 147.887 67.486 149.984C67.4603 149.984 67.4358 149.994 67.4177 150.012C67.3996 150.031 67.3895 150.055 67.3895 150.081C67.3895 150.106 67.3996 150.131 67.4177 150.149C67.4358 150.167 67.4603 150.177 67.486 150.177C73.2934 148.039 79.4595 147.073 85.3359 145.156C85.5704 145.101 85.5152 144.839 85.3497 144.866Z" fill="#242E39"/>
<path d="M88.9638 155.254C87.5532 155.535 86.1852 155.999 84.8944 156.633C83.515 157.226 82.1356 157.819 80.7561 158.454C77.9972 159.709 75.2384 161.02 72.4795 162.427C72.3553 162.427 72.4795 162.689 72.4795 162.634C75.2384 161.378 77.9973 160.178 80.839 159.047C82.2184 158.482 83.5978 157.93 85.0738 157.392C86.4433 156.962 87.7617 156.384 89.0052 155.668C89.0601 155.662 89.1106 155.635 89.1455 155.592C89.1804 155.55 89.197 155.495 89.1915 155.44C89.186 155.385 89.1589 155.335 89.1162 155.3C89.0735 155.265 89.0187 155.248 88.9638 155.254V155.254Z" fill="#242E39"/>
<path d="M113.675 67.1756C124.131 67.1756 137.69 76.5402 138.86 89.9348C138.86 95.913 137.713 130.232 138.86 143.368C140.115 157.748 153.798 216.272 153.798 216.272L138.86 210.929L131.664 222.899C131.664 222.899 123.202 174.872 121.334 153.983C119.467 133.094 122.123 81.4771 120.957 78.2975C119.792 75.1179 116.842 70.5699 113.287 70.4491C109.731 70.3284 102.83 75.4801 98.5279 80.9271C94.2258 86.374 88.0138 125.264 84.4437 139.405C80.8735 153.545 74.4033 210.929 74.4033 210.929L60.4663 201.605L46.3052 212.861C46.3052 212.861 58.2738 159.897 63.293 136.754C66.4747 121.997 70.0564 93.2296 87.7279 78.2975C97.8408 69.7649 107.416 67.1622 113.675 67.1756Z" fill="#F99D77"/>
<path d="M103.084 87.1491C106.712 88.0595 115.885 82.6797 119.375 76.4722C119.623 76.0446 117.996 58.8706 118.078 55.4358C118.078 54.7323 96.4764 60.4156 96.4764 60.4156C97.5246 64.7519 98.1711 69.1756 98.4076 73.6306C98.5318 79.7277 98.38 85.949 103.084 87.1491Z" fill="#FFCBAE"/>
<path d="M117.209 55.4495C116.354 60.1671 112.671 75.2996 100.421 75.4237C99.7569 75.434 99.0928 75.3925 98.4349 75.2996C98.4349 74.7478 98.4349 74.1822 98.4349 73.6305C98.199 69.18 97.5526 64.7608 96.5037 60.4292C96.5037 60.4292 113.181 56.0288 117.209 55.4495Z" fill="#D3AB96"/>
<path d="M89.7722 17.8462C89.7722 17.8462 83.6199 21.0465 83.0267 27.6264C82.4335 34.2063 84.4889 40.869 85.0682 41.1449C85.6476 41.4208 89.7722 17.8462 89.7722 17.8462Z" fill="#242E39"/>
<path d="M118.796 26.3297C121.954 33.6683 120.354 56.0428 115.485 61.533C108.436 69.4786 95.6899 71.5615 88.641 62.8159C81.7438 54.3323 84.3923 25.2124 89.9377 20.0533C98.1039 12.5767 114.147 15.4873 118.796 26.3297Z" fill="#FFCBAE"/>
<path d="M101.608 41.9312C101.608 41.9312 101.718 42.0139 101.704 42.0829C101.566 43.5865 101.704 45.3246 102.973 45.9177C102.973 45.9177 102.973 46.0143 102.973 46.0005C101.304 45.6556 101.221 43.3382 101.608 41.9312Z" fill="#242E39"/>
<path d="M103.056 40.4552C105.484 40.4552 105.36 45.3108 103.056 45.3246C100.752 45.3384 101.014 40.469 103.056 40.4552Z" fill="#242E39"/>
<path d="M92.8623 41.9451C92.8623 41.9451 92.7519 41.9451 92.7519 42.0692C92.7519 43.5866 92.5036 45.3109 91.1241 45.7799C91.1241 45.7799 91.1241 45.8765 91.1241 45.8627C92.8622 45.6833 93.0968 43.3797 92.8623 41.9451Z" fill="#242E39"/>
<path d="M91.5514 40.3309C89.1236 40.0826 88.7925 44.9382 91.041 45.1727C93.2895 45.4072 93.5792 40.5378 91.5514 40.3309Z" fill="#242E39"/>
<path d="M105.043 38.2756C104.405 38.0714 103.778 37.8319 103.167 37.5583C102.474 37.3983 101.854 37.0154 101.401 36.4685C101.29 36.2697 101.249 36.0395 101.284 35.8146C101.319 35.5896 101.428 35.3828 101.594 35.227C101.969 34.964 102.408 34.8071 102.864 34.7731C103.321 34.7391 103.778 34.8292 104.187 35.0339C105.077 35.31 105.831 35.9108 106.298 36.7168C106.397 36.9051 106.439 37.1183 106.419 37.3302C106.398 37.5421 106.316 37.7433 106.183 37.9091C106.049 38.0749 105.87 38.1979 105.668 38.2631C105.465 38.3282 105.248 38.3326 105.043 38.2756V38.2756Z" fill="#242E39"/>
<path d="M89.7305 37.8201C90.4065 37.7235 91.0135 37.5304 91.6756 37.3787C92.3843 37.3111 93.0522 37.0159 93.5792 36.5372C93.7202 36.3557 93.7966 36.1325 93.7966 35.9027C93.7966 35.6729 93.7202 35.4496 93.5792 35.2681C93.2458 34.9596 92.8353 34.7468 92.391 34.6521C91.9467 34.5574 91.4851 34.5844 91.0548 34.7302C90.1312 34.8785 89.2981 35.3714 88.7236 36.1096C88.6091 36.2821 88.5454 36.4833 88.5398 36.6902C88.5342 36.8971 88.5869 37.1015 88.6919 37.2799C88.7969 37.4583 88.95 37.6035 89.1337 37.6991C89.3173 37.7946 89.5242 37.8365 89.7305 37.8201V37.8201Z" fill="#242E39"/>
<path d="M102.615 55.9876C102.242 56.3324 101.87 56.8152 101.318 56.8428C100.779 56.8262 100.248 56.6995 99.7594 56.4704C99.7594 56.4704 99.6629 56.4704 99.6904 56.5531C99.8955 56.8574 100.18 57.0994 100.514 57.2526C100.847 57.4059 101.216 57.4646 101.58 57.4222C101.891 57.3543 102.175 57.1943 102.394 56.963C102.613 56.7317 102.757 56.4399 102.808 56.1255C102.78 55.9738 102.67 55.9462 102.615 55.9876Z" fill="#242E39"/>
<path d="M96.5037 53.0905C97.122 53.9336 97.9427 54.6073 98.8901 55.0493C99.4188 55.2657 100 55.3186 100.559 55.2011C101.773 54.9114 101.828 53.8216 101.635 52.856C101.53 52.3458 101.363 51.8503 101.139 51.38C99.8176 52.4334 98.1923 53.0331 96.5037 53.0905V53.0905Z" fill="#242E39"/>
<path d="M98.8903 55.0911C99.4189 55.3075 100 55.3604 100.559 55.2429C101.773 54.9532 101.828 53.8634 101.635 52.8978C100.998 52.9027 100.381 53.1216 99.8832 53.5193C99.3853 53.9171 99.0356 54.4707 98.8903 55.0911V55.0911Z" fill="#EB9481"/>
<path d="M117.692 44.552C115.223 45.0348 113.181 37.5307 112.685 34.6752C112.243 32.1509 112.229 24.3019 112.174 23.7639C112.119 23.2259 101.001 29.5851 95.1105 27.1987C89.2203 24.8123 85.7303 18.9221 85.9097 16.4253C86.089 13.9285 94.1863 8.14864 100.794 8.52109C107.401 8.89354 115.319 18.0116 115.319 18.0116C114.377 16.7014 113.542 15.3175 112.822 13.8733C112.947 13.5836 116.961 15.6942 117.457 18.7703C117.457 18.7703 117.002 14.9217 117.333 14.8803C117.664 14.8389 120.603 18.3979 119.609 20.7567C119.609 20.7567 123.058 24.426 123.044 28.0402C123.03 31.6543 120.589 43.9589 117.692 44.552Z" fill="#242E39"/>
<path d="M90.917 25.5017C92.6157 26.6447 94.4754 27.5281 96.4347 28.1226C98.6493 28.5388 100.932 28.4062 103.084 27.7363C105.242 27.1493 107.292 26.2177 109.153 24.9775C110.795 23.8877 112.284 22.5221 114.023 21.5703C114.45 21.3358 114.864 21.9565 114.574 22.3152C111.485 25.8436 107.347 28.2898 102.766 29.2951C100.638 29.7614 98.4252 29.6657 96.3452 29.0175C94.2652 28.3693 92.3897 27.1909 90.9032 25.5982C90.9032 25.5982 90.8756 25.4741 90.917 25.5017Z" fill="#242E39"/>
<path d="M116.078 44.7173C116.078 44.7173 120.41 37.1718 123.789 38.6478C127.169 40.1238 124.369 50.7731 120.699 52.525C120.245 52.7807 119.744 52.942 119.227 52.999C118.709 53.0561 118.184 53.0078 117.686 52.857C117.187 52.7062 116.724 52.4561 116.324 52.1216C115.925 51.7872 115.597 51.3754 115.361 50.911L116.078 44.7173Z" fill="#FFCBAE"/>
<path d="M122.906 41.6826C122.975 41.6826 122.989 41.6826 122.906 41.7792C120.354 43.1586 119.182 45.683 118.423 48.3177C118.555 48.039 118.746 47.7922 118.982 47.5942C119.218 47.3961 119.495 47.2515 119.792 47.1703C120.09 47.089 120.401 47.0731 120.705 47.1235C121.01 47.1739 121.299 47.2896 121.554 47.4625C121.554 47.4625 121.554 47.6142 121.554 47.6004C121.073 47.4917 120.571 47.5356 120.116 47.726C119.661 47.9164 119.277 48.2437 119.016 48.6626C118.585 49.3636 118.229 50.108 117.954 50.8835C117.858 51.1318 117.416 51.049 117.485 50.7593C117.099 47.3245 119.306 42.3447 122.906 41.6826Z" fill="#242E39"/>
<path d="M147.897 35.0179C148.57 35.757 149.093 36.6231 149.435 37.5667C149.778 38.5102 149.932 39.5128 149.891 40.5169C149.928 41.8655 149.663 43.2051 149.115 44.435C148.566 45.6648 147.749 46.7528 146.725 47.6171L146.132 46.7501C147.029 45.9833 147.743 45.0206 148.219 43.9346C148.695 42.8486 148.921 41.6675 148.881 40.4802C148.938 39.4727 148.757 38.4659 148.352 37.5436C147.946 36.6213 147.33 35.81 146.552 35.1772C144.834 33.9355 142.127 33.9565 139.272 33.9667C135.839 33.9828 132.278 34.0079 129.526 31.9655C124.137 28.1195 124.336 15.7615 124.35 15.2359L125.389 15.2629C125.388 15.3819 125.17 27.6008 130.13 31.1066C132.648 32.9094 136.023 32.8929 139.299 32.8758C142.575 32.8586 145.184 32.9162 147.196 34.279C147.449 34.5056 147.683 34.7527 147.897 35.0179V35.0179Z" fill="#F99D77"/>
<path d="M146.615 46.3276L146.255 47.3171C145.242 46.9915 144.166 46.9161 143.118 47.0971C141.245 47.7185 139.452 48.5618 137.775 49.6097L137.242 48.7034C139.013 47.6092 140.91 46.7363 142.889 46.1037C144.13 45.8574 145.412 45.9344 146.615 46.3276V46.3276Z" fill="#F99D77"/>
<path d="M147.137 47.5216C146.933 48.7436 146.596 49.9389 146.132 51.0857C145.525 52.4602 141.731 55.0033 141.308 55.288L140.735 54.4013C142.407 53.3932 143.912 52.1248 145.193 50.6428C145.612 49.5751 145.921 48.4672 146.118 47.3361L147.137 47.5216Z" fill="#F99D77"/>
<path d="M146.407 46.5345L146.636 47.5676C145.085 47.8718 143.565 48.3196 142.095 48.9053L137.31 51.7093L136.776 50.803C136.776 50.803 140.479 48.6065 141.572 47.9891C143.134 47.3498 144.753 46.8627 146.407 46.5345V46.5345Z" fill="#F99D77"/>
<path d="M147.029 47.6098C145.777 49.0908 144.403 50.4618 142.921 51.708C141.996 52.2373 139.491 54.1841 139.432 54.2432L138.79 53.4056C138.879 53.3169 141.413 51.3604 142.398 50.7919C143.792 49.6227 145.084 48.3339 146.258 46.94L147.029 47.6098Z" fill="#F99D77"/>
<path d="M142.631 26.6623L111.763 1.65261L71.3547 4.79227L104.587 25.4329L142.631 26.6623Z" fill="#134785" stroke="#242E39"/>
<path opacity="0.1" d="M104.437 25.9283L69.7947 4.41197L111.923 1.13867L144.101 27.2101L104.437 25.9283Z" fill="black"/>
<path d="M84.6518 22.9032C90.7871 23.5381 96.8727 24.5948 102.866 26.0662L102.875 26.0684L102.884 26.0709C106.567 27.1206 111.464 29.2881 115.42 31.1801C117.402 32.1284 119.156 33.0115 120.415 33.6575C121.044 33.9806 121.549 34.2445 121.898 34.4278C121.91 34.434 121.922 34.4402 121.933 34.4463L126.122 23.2081C126.079 23.1741 126.032 23.1365 125.979 23.0953C125.704 22.878 125.299 22.5638 124.785 22.1777C123.757 21.4055 122.294 20.3469 120.553 19.2028C117.065 16.9097 112.495 14.2937 108.104 12.9371C103.725 11.584 98.2821 11.3418 93.9038 11.4454C91.7207 11.497 89.8142 11.6343 88.4539 11.7586C87.7739 11.8207 87.2308 11.8796 86.8584 11.9228C86.78 11.9319 86.7091 11.9403 86.6461 11.948L84.6518 22.9032Z" fill="#134785" stroke="#242E39"/>
<path d="M83.9017 96.4082L34.2648 108.362L49.8232 172.968L99.4601 161.015L83.9017 96.4082Z" fill="#162C36"/>
<path d="M78.7824 116.924C78.7824 116.924 86.1854 112.784 88.6262 112.618C89.1613 112.538 89.7073 112.571 90.2285 112.717C90.7498 112.862 91.2343 113.116 91.6503 113.462C92.0663 113.808 92.4044 114.238 92.6424 114.724C92.8804 115.21 93.0129 115.741 93.0311 116.282C93.0468 117.444 92.8398 118.598 92.4215 119.682C92.4215 119.682 95.0436 120.455 96.096 127.472C96.4664 129.941 97.614 131.837 95.9388 133.696C93.2725 136.508 89.6677 138.244 85.8073 138.576C81.7668 139.082 77.7695 139.886 73.8481 140.983C67.9292 146.793 61.6306 152.203 54.9937 157.176C51.2556 159.978 47.9086 160.307 40.6377 158.768C34.6616 155.496 32.7833 150.934 35.6576 143.97C38.532 137.006 62.1009 132.739 63.4688 132.227C64.7536 131.596 65.9552 130.808 67.0463 129.881C67.0463 129.881 67.1964 123.941 68.6188 121.267C70.0413 118.593 74.4789 114.652 74.5743 110.874C74.6697 107.097 74.438 105.451 76.5862 106.052C78.7344 106.653 79.9522 113.435 78.7824 116.924Z" fill="#FFCBAE"/>
<path d="M60.8794 162.341C56.7022 164.148 44.4677 165.914 39.1819 165.123C33.8961 164.333 27.2447 162.554 25.4608 158.43C23.6769 154.307 23.8229 151.121 25.5152 146.927C27.2076 142.733 47.1391 136.876 51.3163 135.069C54.2621 145.487 57.3039 153.783 60.8794 162.341Z" fill="#134785"/>
<path d="M143.621 156.21C144.893 163.76 148.812 179.217 154.31 180.642" stroke="#001F42" stroke-width="0.5" stroke-linejoin="round"/>
<path d="M101.485 51.2527C101.195 51.7765 100.798 52.234 100.321 52.5959C99.8433 52.9577 99.2957 53.2159 98.7128 53.3539C98.206 53.4919 97.6803 53.5475 97.1558 53.5185C97.0592 53.5314 96.9613 53.5314 96.8647 53.5185H96.5862C96.517 53.511 96.4522 53.4809 96.4019 53.4328C96.3515 53.3847 96.3184 53.3214 96.3077 53.2527V53.2527V53.0375V52.9236C96.2191 51.9489 96.2191 50.3919 96.2191 50.3919C95.8774 50.5944 94.1052 51.5311 94.1052 51.0122C93.9538 46.6268 94.2464 42.2373 94.9786 37.9108C94.9869 37.8855 95.003 37.8634 95.0246 37.8478C95.0462 37.8321 95.0722 37.8237 95.0989 37.8237C95.1255 37.8237 95.1515 37.8321 95.1731 37.8478C95.1947 37.8634 95.2108 37.8855 95.2191 37.9108C95.3837 41.9994 94.8267 46.0754 94.928 50.1767C95.5615 49.8369 96.2387 49.5856 96.9406 49.4299C97.0799 49.4299 96.8773 52.316 96.9406 52.759C97.7391 52.7968 98.537 52.674 99.2871 52.3979C100.037 52.1217 100.724 51.6979 101.308 51.1514C101.447 51.0754 101.548 51.1514 101.485 51.2527Z" fill="#242E39"/>
</g>
<path d="M147.201 34.3393C147.874 35.0784 148.397 35.9445 148.739 36.8881C149.082 37.8317 149.236 38.8342 149.195 39.8383C149.233 41.1869 148.967 42.5265 148.419 43.7564C147.87 44.9862 147.053 46.0742 146.029 46.9385L145.436 46.0715C146.333 45.3047 147.047 44.342 147.523 43.256C147.999 42.17 148.225 40.9889 148.185 39.8016C148.242 38.7941 148.061 37.7873 147.656 36.865C147.251 35.9427 146.634 35.1314 145.856 34.4987C144.138 33.2569 141.431 33.2779 138.576 33.2881C135.143 33.3042 131.582 33.3293 128.83 31.2869C123.441 27.4409 123.64 15.0829 123.654 14.5573L124.693 14.5843C124.692 14.7033 124.474 26.9223 129.434 30.4281C131.953 32.2308 135.327 32.2143 138.603 32.1972C141.879 32.18 144.488 32.2376 146.5 33.6004C146.753 33.827 146.987 34.0742 147.201 34.3393V34.3393Z" fill="#A5664B"/>
<path d="M145.919 45.6489L145.559 46.6384C144.546 46.3128 143.47 46.2374 142.422 46.4184C140.549 47.0397 138.756 47.8831 137.079 48.931L136.546 48.0247C138.317 46.9305 140.214 46.0576 142.193 45.4249C143.434 45.1786 144.716 45.2557 145.919 45.6489V45.6489Z" fill="#A5664B"/>
<path d="M146.475 46.4295C146.272 47.6514 145.9 49.2602 145.436 50.4069C144.829 51.7815 141.035 54.3246 140.612 54.6093L140.039 53.7226C141.711 52.7145 143.216 51.4461 144.497 49.964C144.916 48.8964 145.225 47.7885 145.422 46.6574L146.475 46.4295Z" fill="#A5664B"/>
<path d="M145.711 45.8558L145.94 46.8889C144.389 47.1931 142.869 47.6408 141.399 48.2266L136.614 51.0306L136.08 50.1243C136.08 50.1243 139.783 47.9278 140.876 47.3104C142.438 46.6711 144.057 46.184 145.711 45.8558V45.8558Z" fill="#A5664B"/>
<path d="M146.333 46.9311C145.081 48.4121 143.707 49.783 142.225 51.0293C141.3 51.5586 138.795 53.5054 138.736 53.5645L138.094 52.7269C138.183 52.6382 140.717 50.6817 141.702 50.1131C143.096 48.944 144.388 47.6552 145.563 46.2613L146.333 46.9311Z" fill="#A5664B"/>
<path d="M103.404 25.1721L68.4669 3.47289L110.953 0.171775L143.405 26.4648L103.404 25.1721Z" fill="#F99D77"/>
<path opacity="0.3" d="M103.404 25.1721L68.4669 3.47289L110.953 0.171775L143.405 26.4648L103.404 25.1721Z" fill="black"/>
<path d="M82.8563 22.568L85.0315 10.619C85.0315 10.619 98.2581 8.81044 107.251 11.5887C116.243 14.367 125.873 22.2638 125.873 22.2638L121.32 34.4771C121.32 34.4771 109.038 27.8927 101.699 25.8009C95.5008 24.2792 89.2043 23.199 82.8563 22.568V22.568Z" fill="#F99D77"/>
<path d="M45.01 137.313C43.1944 137.66 41.3843 138.002 39.6316 138.486C39.203 138.604 38.5336 138.828 38.2677 138.915C36.0178 139.653 33.9979 140.724 31.8401 141.597C31.8297 141.601 31.8207 141.608 31.8137 141.617C31.8068 141.625 31.802 141.636 31.7996 141.648C31.7972 141.659 31.7972 141.672 31.7998 141.685C31.8023 141.698 31.8072 141.711 31.8143 141.723C31.8214 141.735 31.8304 141.746 31.8409 141.756C31.8515 141.766 31.8633 141.774 31.8757 141.779C31.8881 141.785 31.9008 141.788 31.9132 141.789C31.9255 141.789 31.9373 141.787 31.9477 141.783C34.0661 140.932 36.3651 140.382 38.5601 139.693C40.755 139.005 42.8935 138.188 45.0866 137.475C45.1553 137.452 45.0906 137.292 45.01 137.313Z" fill="#001F42"/>
<path d="M150.052 158.812C148.157 159.413 145.272 161.868 145.286 161.862C146.829 161.066 148.44 159.927 150.203 159.392C151.492 159.001 153.525 158.809 155.848 158.512C154.593 158.4 152.393 158.071 150.052 158.812Z" fill="#001F42"/>
<path d="M106.841 96.2413L102.593 88.7234L97.1025 94.7101L98.4406 100.669L103.862 101.373L106.841 96.2413Z" fill="#BECAD7"/>
<path d="M102.862 100.373L105.455 161.262L94.0472 181.401L88.1156 158.737L97.4405 99.6697L102.862 100.373Z" fill="#BECAD7"/>
</svg>
