
<svg viewBox="0 0 60 60" fill="none" xmlns="http://www.w3.org/2000/svg">
<rect width="60" height="60" fill="#E1EDFB"/>
<path d="M19.3586 21.0508H41.7614C42.5643 21.0508 43.2957 22.0939 43.9247 22.7843C43.898 27.8472 44.1428 35.1224 44.1428 36.2287C44.1428 37.5005 42.0825 42.7194 40.7577 43.543C34.3741 43.7126 21.2295 43.95 19.7199 43.543C18.2104 43.1361 17.1544 37.8517 16.6727 37.1008C16.4853 32.9948 15.8657 27.7732 16.0263 25.0116C16.1869 22.2501 18.1675 21.2204 19.3586 21.0508Z" fill="white"/>
<path d="M17.1475 29.6157C17.1475 29.6157 17.3513 33.8951 17.3987 35.2443C17.4619 37.0541 17.8696 39.0756 18.5501 40.479C19.5105 42.4685 20.6418 43.1702 22.1521 43.1751C23.9279 43.1801 36.8414 43.1801 38.6172 43.1751C40.1275 43.1702 41.2588 42.4685 42.2192 40.479C42.8997 39.0756 43.3074 37.0541 43.372 35.2443C43.418 33.8951 43.6218 29.6157 43.6218 29.6157" stroke="#064EA4" stroke-width="2.15344" stroke-linecap="round" stroke-linejoin="round"/>
<path d="M25.3188 20.7025V20.1699C25.3188 18.4184 26.7372 17 28.4887 17H32.1955C33.9455 17 35.3654 18.4184 35.3654 20.1699L35.3668 20.7025" stroke="#1E3D60" stroke-width="2.15344" stroke-linecap="round" stroke-linejoin="round"/>
<path d="M30.3422 36.9949V35.1372" stroke="#064EA4" stroke-width="2.15344" stroke-linecap="round" stroke-linejoin="round"/>
<path fill-rule="evenodd" clip-rule="evenodd" d="M17.0697 25.0947V30.072C19.8232 31.8881 23.1223 33.1601 26.7429 33.664C27.1765 32.0834 28.6021 30.9248 30.3349 30.9248C32.0404 30.9248 33.4947 32.0834 33.8995 33.6783C37.5345 33.1744 40.8465 31.9025 43.6144 30.072V25.0947C43.6144 22.6628 41.6577 20.7046 39.2257 20.7046H21.4728C19.0408 20.7046 17.0697 22.6628 17.0697 25.0947Z" stroke="#1E3D60" stroke-width="2.15344" stroke-linecap="round" stroke-linejoin="round"/>
</svg>
