
<svg  viewBox="0 0 29 29" fill="none" xmlns="http://www.w3.org/2000/svg">
<path fill-rule="evenodd" clip-rule="evenodd" d="M16.2815 2.95689L18.8644 8.1169C19.1175 8.62347 19.6061 8.97472 20.1727 9.05601L25.9507 9.8877C27.3783 10.0938 27.9464 11.824 26.9132 12.8153L22.735 16.8301C22.3244 17.2249 22.1375 17.7925 22.2346 18.3498L23.2207 24.0179C23.4635 25.42 21.9712 26.4897 20.6952 25.8264L15.5309 23.1484C15.0246 22.8857 14.4183 22.8857 13.9105 23.1484L8.74622 25.8264C7.47023 26.4897 5.9779 25.42 6.2222 24.0179L7.20679 18.3498C7.30392 17.7925 7.11701 17.2249 6.7064 16.8301L2.52816 12.8153C1.49501 11.824 2.0631 10.0938 3.49067 9.8877L9.26868 9.05601C9.8353 8.97472 10.3254 8.62347 10.5785 8.1169L13.1599 2.95689C13.7987 1.68104 15.6427 1.68104 16.2815 2.95689Z" stroke="#1E3D60" stroke-width="2.6" stroke-linecap="round" stroke-linejoin="round"/>
</svg>
