
<svg width="72" viewBox="0 0 72 72" fill="none" xmlns="http://www.w3.org/2000/svg">
<rect width="72" height="72" fill="#E1EDFB"/>
<circle cx="36" cy="36" r="36" fill="#E1EDFB"/>
<path fill-rule="evenodd" clip-rule="evenodd" d="M26.3414 18.5137H45.6055C48.3831 18.5448 51.0269 19.7191 52.921 21.7629C54.8151 23.8068 55.7942 26.5419 55.6303 29.3312V42.6696C55.7942 45.4589 54.8151 48.194 52.921 50.2379C51.0269 52.2817 48.3831 53.456 45.6055 53.4871H26.3414C20.3751 53.4871 16.3539 48.6334 16.3539 42.6696V29.3312C16.3539 23.3674 20.3751 18.5137 26.3414 18.5137Z" fill="white" stroke="#1E3D60" stroke-width="2.59321" stroke-linecap="round" stroke-linejoin="round"/>
<path d="M47.5517 32.2402L38.8361 39.2575C37.1867 40.5507 34.8746 40.5507 33.2252 39.2575L24.4348 32.2402" stroke="#064EA4" stroke-width="2.59321" stroke-linecap="round" stroke-linejoin="round"/>
</svg>
