
<svg viewBox="0 0 17 20" fill="none" xmlns="http://www.w3.org/2000/svg">
<path d="M8.06397 11.6016C10.0145 11.6016 11.5957 10.0193 11.5957 8.06739C11.5957 6.11551 10.0145 4.5332 8.06397 4.5332C6.11344 4.5332 4.53223 6.11551 4.53223 8.06739C4.53223 10.0193 6.11344 11.6016 8.06397 11.6016Z" stroke="#064EA4" stroke-width="1.82801" stroke-linecap="round" stroke-linejoin="round"/>
<path d="M15.127 8.06838C15.127 14.2729 9.68653 17.7529 8.35467 18.5139C8.26587 18.5646 8.16537 18.5913 8.0631 18.5913C7.96084 18.5913 7.86034 18.5646 7.77154 18.5139C6.43968 17.7521 1 14.2713 1 8.06838C1 6.19373 1.74419 4.39586 3.06885 3.07028C4.39351 1.7447 6.19014 1 8.06349 1C9.93685 1 11.7335 1.7447 13.0581 3.07028C14.3828 4.39586 15.127 6.19373 15.127 8.06838Z" stroke="#064EA4" stroke-width="1.82801" stroke-linecap="round" stroke-linejoin="round"/>
</svg>
