
<svg viewBox="0 0 369 311" fill="none" xmlns="http://www.w3.org/2000/svg">
<path d="M0 0H369V311H0V0Z" fill="#F99D77"/>
<path d="M184.5 169.601C143.364 169.601 109.978 161.537 109.978 151.68C109.978 184.685 143.364 211.418 184.5 211.418C225.636 211.418 259.023 184.685 259.023 151.68C259.023 161.537 225.636 169.601 184.5 169.601Z" fill="#F9FAFB"/>
<path d="M166.615 209.625V250.696C177.048 264.435 196.722 266.825 202.385 265.63V209.625C196.722 210.82 190.611 211.418 184.5 211.418C178.389 211.418 172.278 210.82 166.615 209.625Z" fill="#F9FAFB"/>
<path d="M238.305 134.654C229.362 132.563 218.631 130.92 206.857 130.024V103.142C206.857 100.603 204.919 98.6616 202.385 98.6616C199.852 98.6616 197.914 100.603 197.914 103.142V129.576C196.424 129.576 194.933 132.414 193.443 132.414C191.952 132.414 190.462 129.277 188.971 129.277C187.481 129.277 185.99 129.277 184.5 129.277C164.23 129.277 145.152 131.219 130.695 134.654C113.704 138.686 105.506 144.361 105.506 151.679C105.506 158.997 113.704 164.672 130.695 168.705C145.152 172.14 164.23 174.081 184.5 174.081C204.77 174.081 223.848 172.14 238.305 168.705C255.296 164.672 263.494 158.997 263.494 151.679C263.494 144.361 255.296 138.686 238.305 134.654Z" fill="#242E39"/>
<path d="M263.494 151.68C263.494 149.141 261.556 147.2 259.022 147.2C256.489 147.2 254.551 149.141 254.551 151.68C254.551 180.802 225.636 205.146 188.822 206.789C186.288 206.938 184.5 209.029 184.5 211.418C184.649 213.808 186.587 215.749 188.971 215.749H189.12C192.101 215.6 194.933 215.301 197.914 214.853V261.3C191.356 261.001 178.836 258.164 171.086 249.053V209.626C171.086 209.477 171.086 209.178 171.086 209.029C170.788 207.237 169.446 205.594 167.509 205.146C136.209 199.172 114.449 177.069 114.449 151.68C114.449 149.141 112.511 147.2 109.977 147.2C107.444 147.2 105.506 149.141 105.506 151.68C105.506 180.354 128.608 205.295 162.143 213.36V250.846C162.143 251.891 162.441 252.787 163.037 253.534C172.874 266.527 190.164 270.41 199.255 270.41C200.746 270.41 202.087 270.261 203.131 270.111C205.217 269.663 206.708 267.871 206.708 265.78V213.21C239.647 205.445 263.494 180.653 263.494 151.68Z" fill="#242E39"/>
<path d="M162.143 115.836C162.143 118.375 164.081 120.317 166.615 120.317C169.148 120.317 171.086 118.375 171.086 115.836V103.142C171.086 100.603 169.148 98.6616 166.615 98.6616C164.081 98.6616 162.143 100.603 162.143 103.142V115.836Z" fill="white"/>
<path d="M188.971 129.278V141.225C188.971 143.764 190.909 145.706 193.443 145.706C195.976 145.706 197.914 143.764 197.914 141.225V129.577C194.933 129.427 191.952 129.427 188.971 129.278ZM166.615 147.199C165.429 147.199 164.291 147.671 163.453 148.512C162.614 149.352 162.143 150.491 162.143 151.68C162.143 152.868 162.614 154.008 163.453 154.848C164.291 155.688 165.429 156.16 166.615 156.16C167.8 156.16 168.938 155.688 169.776 154.848C170.615 154.008 171.086 152.868 171.086 151.68C171.086 150.491 170.615 149.352 169.776 148.512C168.938 147.671 167.8 147.199 166.615 147.199Z" fill="#F99D77"/>
<ellipse cx="167.146" cy="151.68" rx="5.00238" ry="5.01247" fill="#649BDC"/>
</svg>
