<svg width="21" height="16" viewBox="0 0 21 16" fill="none" xmlns="http://www.w3.org/2000/svg">
    <path
        d="M17.19 0.0818949C17.07 0.0218949 16.95 -0.00810499 16.82 0.00189501C16.69 0.011895 16.56 0.0518949 16.45 0.121895L15.51 0.741895C12.59 2.69189 9.19 3.72189 5.68 3.72189H3.82C1.71 3.72189 0 5.4319 0 7.54189C0 8.56189 0.399999 9.52189 1.12 10.2419C1.84 10.9619 2.8 11.3619 3.82 11.3619H5C5.18 12.9419 5.9 14.4019 7.05 15.5019C7.18 15.6319 7.36 15.7019 7.54 15.7019C7.68 15.7019 7.82 15.6619 7.94 15.5819C8.06 15.5019 8.15 15.3919 8.2 15.2519C8.25 15.1219 8.27 14.9719 8.24 14.8319C8.21 14.6919 8.14 14.5619 8.03 14.4619C7.18 13.6419 6.62 12.5519 6.45 11.3819C9.68 11.5219 12.81 12.5419 15.5 14.3419L16.44 14.9719C16.55 15.0419 16.67 15.0919 16.81 15.0919C16.94 15.0919 17.07 15.0719 17.19 15.0119C17.31 14.9519 17.4 14.8619 17.47 14.7419C17.54 14.6319 17.57 14.5019 17.57 14.3719V0.721895C17.57 0.451895 17.42 0.211895 17.19 0.0818949ZM16.13 2.06189V13.0219C13.23 11.1319 9.87 10.0619 6.4 9.94189V5.15189C9.86 5.02189 13.22 3.95189 16.13 2.06189ZM4.96 5.16189V9.9219H3.82C2.51 9.9219 1.44 8.85189 1.44 7.54189C1.44 6.23189 2.51 5.16189 3.82 5.16189H4.96Z"
        fill="#1E3D60" />
    <path
        d="M19.91 5.72189C19.6 5.41189 19.06 5.41189 18.75 5.72189C18.6 5.88189 18.51 6.0819 18.51 6.3019V8.78189C18.51 9.00189 18.6 9.20189 18.75 9.36189C18.91 9.51189 19.11 9.60189 19.33 9.60189C19.55 9.60189 19.76 9.51189 19.91 9.36189C20.06 9.20189 20.15 9.00189 20.15 8.78189V6.3019C20.15 6.0819 20.06 5.88189 19.91 5.72189Z"
        fill="#1E3D60" />
</svg>