
<svg  viewBox="0 0 652 652" fill="none" xmlns="http://www.w3.org/2000/svg">
<circle cx="326" cy="326" r="326" fill="#E1EDFB"/>
<path d="M572.177 424.659H82.7308C76.3366 398.501 96.6817 324.677 101.913 314.214C106.099 305.843 119.546 280.112 125.746 268.292C137.837 245.04 169.537 215.201 183.875 203.188C190.463 197.568 207.592 184.354 223.403 176.448C239.214 168.543 259.83 160.753 268.162 157.847C284.438 153.39 319.2 144.477 328.035 144.477C339.08 144.477 365.819 150.871 389.652 157.847C413.485 164.822 455.338 191.562 466.382 199.119C475.218 205.164 497.966 227.602 508.235 238.065L534.393 272.942C540.787 285.149 559.389 328.165 562.876 339.791C565.667 349.091 570.239 374.668 572.177 386.294V424.659Z" fill="white"/>
<path fill-rule="evenodd" clip-rule="evenodd" d="M306.303 147.795C260.645 157.139 214.792 177.989 184.813 203.037C158.393 225.111 144.62 240.054 129.03 263.55C99.9621 307.358 84.7335 354.984 82.2827 409.744L81.5677 425.73H327.201H572.835L572.203 403.35C571.25 369.535 564.672 341.829 548.54 303.68C539.457 282.2 532.033 269.423 518.124 251.343C486.249 209.907 446.502 180.678 393.496 159.694C375.324 152.501 338.717 144.205 326.377 144.484C323.968 144.539 314.935 146.029 306.303 147.795ZM327.229 160.157C327.229 170.455 326.007 173.45 321.806 173.45C317.176 173.45 294.035 178.874 281.935 182.797C275.979 184.727 270.909 186.109 270.668 185.869C270.427 185.628 268.678 181.177 266.781 175.981C263.592 167.242 263.484 166.452 265.345 165.47C272.906 161.479 313.192 151.664 322.869 151.455L327.229 151.361V160.157ZM351.225 153.698C366.971 156.909 391.315 164.334 392.007 166.137C392.32 166.952 391.127 171.592 389.356 176.447C385.671 186.552 387.7 186.129 369.504 180.585C363.023 178.609 351.383 175.826 343.637 174.4L329.554 171.805L329.565 167.686C329.569 165.421 329.904 160.822 330.308 157.464L331.041 151.361H335.401C337.799 151.361 344.92 152.413 351.225 153.698ZM263.56 177.032C265.318 181.776 266.76 186.239 266.766 186.952C266.77 187.665 264.29 189.181 261.253 190.321C253.571 193.206 239.719 200.208 227.997 207.131C222.553 210.347 217.849 212.978 217.543 212.978C217.048 212.978 207.889 200.451 205.953 197.125C205.264 195.941 224.367 183.66 236.548 177.456C245.009 173.146 258.1 167.715 259.211 168.054C259.846 168.248 261.804 172.288 263.56 177.032ZM418.596 176.835C441.246 188.098 452.105 194.931 450.806 197.103C448.47 201.008 439.337 212.914 438.654 212.944C438.235 212.962 432.48 209.754 425.866 205.814C419.252 201.874 408.348 196.039 401.634 192.846C394.92 189.655 389.297 186.951 389.139 186.837C388.813 186.603 394.313 172.812 395.984 169.671C396.579 168.553 397.749 167.637 398.582 167.637C399.417 167.637 408.424 171.776 418.596 176.835ZM342.926 177.991C373.525 183.826 394.939 191.836 422.844 207.887C490.773 246.956 536.18 322.176 539.785 401.606L540.563 418.755L439.777 418.754C379.511 418.754 338.726 418.323 338.329 417.682C337.966 417.093 337.098 412.384 336.403 407.219C334.646 394.168 336.316 383.632 343.601 361.798C350.641 340.694 350.696 338.332 344.728 313.791C335.816 277.139 342.981 255.297 367.817 243.406C382.269 236.486 397.118 236.88 412.464 244.589C417.421 247.08 417.482 248.365 412.812 251.853C409.41 254.394 398.471 255.215 394.368 253.238C393.112 252.632 392.334 252.715 392.334 253.453C392.334 255.407 400.372 257.469 405.663 256.873C408.367 256.568 412.573 254.964 415.011 253.307C420.787 249.383 422.518 250.352 427.389 260.247C430.808 267.193 431.194 269.002 431.167 277.973C431.144 285.728 430.563 289.244 428.57 293.684C424.692 302.33 418.906 308.61 410.742 313.036C403.994 316.695 402.55 317.028 393.485 317.028C385.513 317.028 382.86 316.566 379.831 314.649C373.771 310.811 370.245 305.139 370.245 299.227C370.245 294.803 370.876 293.454 374.758 289.571C377.241 287.089 379.921 285.058 380.714 285.058C381.801 285.058 381.831 285.448 380.836 286.647C378.984 288.879 381.719 290.916 387.638 291.71C392.89 292.414 393.049 292.72 390.597 297.423C388.361 301.71 388.337 305.984 390.549 305.984C391.486 305.984 394.11 304.354 396.379 302.361L400.505 298.738L402.917 301.803C404.242 303.489 406.922 305.692 408.871 306.7L412.415 308.533L411.816 302.898C411.486 299.8 410.836 296.35 410.37 295.23C409.687 293.591 410.123 293.196 412.612 293.196C416.228 293.196 422.561 290.179 422.561 288.456C422.561 286.891 415.31 283.895 411.523 283.895C408.605 283.895 408.583 283.831 410.323 280.465C412.29 276.66 412.717 269.944 410.991 269.944C410.383 269.944 408.011 271.873 405.721 274.232L401.557 278.518L398.023 274.232C392.902 268.018 390.734 268.471 391.42 275.613L391.965 281.281L384.301 281.901C380.087 282.242 376.532 282.417 376.402 282.292C376.27 282.166 375.811 279.86 375.381 277.166L374.597 272.269L379.106 272.252C387.993 272.217 388.611 268.093 380.147 265.301L376.285 264.026L378.065 259.495C379.839 254.979 379.496 251.343 377.297 251.343C376.66 251.343 374.367 252.898 372.202 254.798L368.267 258.254L365.478 254.004C360.99 247.166 359.301 247.514 360.086 255.115L360.747 261.526L355.557 262.111C352.701 262.433 350.001 263.061 349.553 263.508C348.429 264.632 352.715 267.626 356.584 268.417C360.223 269.163 360.378 269.638 358 272.782C356.011 275.413 355.708 281.57 357.568 281.57C358.268 281.57 360.391 280.466 362.284 279.118C364.178 277.769 365.829 276.857 365.952 277.089C366.074 277.322 367.639 279.134 369.43 281.118L372.682 284.722L369.72 290.294C365.992 297.306 365.999 300.52 369.763 308.073C373.213 314.995 376.733 317.882 384.478 320.141L389.955 321.737L381.294 326.136L372.634 330.535L367.66 328.31C364.926 327.087 361.68 324.95 360.449 323.564C358.75 321.652 357.982 321.401 357.269 322.523C353.974 327.715 358.969 336.425 365.374 336.657C367.41 336.732 368.923 337.054 368.737 337.374C364.026 345.43 360.585 354.872 360.135 360.979C359.221 373.362 365.066 385.732 375.154 392.76C380.528 396.504 379.677 399.023 372.052 401.934C365.351 404.493 359.801 403.481 355.176 398.857C351.083 394.763 350.698 392.533 353.941 391.686C357.974 390.63 359.136 386.061 357.382 378.156C355.877 371.374 355.756 371.214 353.616 373.151C347.82 378.398 346.422 388.71 350.441 396.587L352.726 401.067L349.499 402.403C346.093 403.814 342.343 409.042 342.343 412.379C342.343 416.29 355.891 412.041 356.957 407.796C357.499 405.637 358.427 405.375 365.514 405.38C372.672 405.385 374.001 404.999 378.865 401.509C384.216 397.667 384.323 397.645 390.13 399.133C394.981 400.377 396.257 401.271 397.533 404.322C398.718 407.162 400.367 408.467 404.713 410.005C407.816 411.103 411.599 412.495 413.119 413.096C414.641 413.698 416.15 413.926 416.473 413.604C417.682 412.394 413.983 405.79 410.624 403.162L407.14 400.434L411.378 399.036C413.709 398.267 420.187 394.374 425.773 390.386C431.359 386.397 436.585 382.747 437.384 382.275C438.467 381.633 438.837 382.901 438.837 387.267V393.119L435.392 392.43C431.346 391.621 426.048 392.725 426.048 394.377C426.048 395.013 428.379 396.665 431.229 398.05L436.409 400.567L432.973 405.239C431.082 407.809 429.536 410.603 429.536 411.449C429.536 413.48 434.848 412.304 439.081 409.337C442.852 406.692 443.487 406.612 443.487 408.783C443.487 411.08 449.15 417.592 451.147 417.592C452.267 417.592 452.789 416.208 452.791 413.232L452.795 408.872H459.703C465.987 408.872 466.982 408.514 470.69 404.918C472.934 402.743 475.095 399.48 475.494 397.665C476.571 392.761 477.767 392.741 480.966 397.576C484.349 402.689 491.384 407.842 498.175 410.181C509.045 413.926 521.738 407.341 523.347 397.122C523.739 394.633 525.343 391.052 526.91 389.165C529.351 386.229 529.635 385.056 528.888 381.027C528.408 378.438 528.025 374.097 528.038 371.379C528.066 365.745 527.428 365.379 523.985 369.054C521.06 372.177 519.055 377.105 519.055 381.17C519.055 383.397 518.598 383.95 517.203 383.415C512.594 381.647 509.731 381.468 505.26 382.672C499.629 384.188 499.271 385.172 503.651 387.099C505.408 387.873 508.625 389.819 510.798 391.423C512.971 393.027 515.979 394.34 517.483 394.34C519.736 394.34 520.217 394.945 520.217 397.768C520.217 403.281 513.485 407.71 505.103 407.71C495.742 407.71 488.921 403.258 480.986 391.971C470.056 376.42 467.405 373.805 461.014 372.272C453.89 370.563 444.539 372.863 438.729 377.751L434.979 380.908L435.814 377.451C437.506 370.449 437.879 361.053 436.648 356.482C434.892 349.962 428.284 342.626 422.007 340.229C414.271 337.275 404.186 338.298 397.85 342.68C389.992 348.115 386.818 355.844 385.467 372.832C384.233 388.36 383.61 390.852 380.966 390.852C377.823 390.852 369.783 381.248 367.478 374.741C361.097 356.731 371.588 337.239 392.915 327.48C405.506 321.718 406.285 321.574 406.285 325.024C406.285 328.951 410.662 333.541 415.295 334.473C419.426 335.304 419.899 334.495 417.292 331.048C413.618 326.19 415.989 319.523 424.756 310.053C427.716 306.856 430.972 302.947 431.991 301.366L433.845 298.493L434.697 304.176C435.648 310.51 439.746 320.493 443.644 325.968C446.12 329.446 446.133 329.613 444.042 331.142C440.831 333.491 437.918 333.072 434.64 329.795C431.132 326.287 429.536 326.929 429.536 331.846C429.536 336.833 433.523 340.861 438.458 340.861C441.87 340.861 442.325 341.225 442.325 343.956C442.325 348.738 447.391 356.29 452.541 359.185C458.107 362.312 464.686 362.524 470.203 359.751C474.541 357.572 479.527 351.144 479.527 347.733C479.527 345.831 479.249 345.794 476.33 347.317C474.572 348.234 472.166 348.988 470.983 348.992C466.994 349.005 460.919 352.693 460.206 355.532C458.941 360.571 452.488 358.519 447.948 351.634C445.339 347.678 445.14 337.778 447.604 334.521C449.291 332.29 449.442 332.309 455.995 335.646C461.809 338.606 463.958 339.048 472.666 339.08C481.386 339.113 483.582 338.678 489.878 335.676C497.845 331.877 500.162 332.259 502.1 337.694C503.391 341.319 500.884 345.741 495.768 348.851C493.165 350.433 492.691 351.235 493.738 352.283C497.273 355.817 508.537 351.729 508.629 346.88C508.66 345.188 508.892 345.229 510.373 347.187C514.149 352.18 510.695 366.933 505.041 369.96C500.411 372.438 495.717 373.323 492.897 372.251C490.383 371.295 490.261 370.905 491.48 367.679C492.551 364.837 492.426 362.963 490.832 358.029C489.743 354.661 488.716 350.336 488.55 348.418L488.246 344.93L484.874 349.339C478.031 358.285 480.105 369.502 489.419 373.922C497.749 377.874 508.983 373.315 512.675 364.483C514.89 359.179 514.881 350.521 512.654 346.251C510.402 341.933 510.368 342.024 514.224 342.024C518.701 342.024 521.867 338.285 521.722 333.17C521.567 327.703 520.996 327.4 517.488 330.909C513.992 334.403 509.086 334.787 503.592 331.994C501.546 330.954 499.729 329.983 499.556 329.837C499.382 329.69 500.82 326.565 502.753 322.891C511.792 305.706 503.438 286.32 484.849 281.349C480.166 280.096 479.527 279.541 479.527 276.735C479.527 274.273 478.361 272.741 474.435 270.04C471.634 268.113 468.991 265.618 468.56 264.495C467.891 262.751 467.618 262.702 466.695 264.164C464.62 267.443 465.445 274.312 468.312 277.645L471.047 280.826L466.696 284.976C463.987 287.559 461.783 291.102 460.857 294.358C460.04 297.236 458.327 300.441 457.052 301.481C454.741 303.368 454.741 303.377 457.172 304.678C458.513 305.397 461.445 305.984 463.687 305.984C465.93 305.984 467.998 306.377 468.285 306.856C468.571 307.335 468.535 310.481 468.204 313.846C467.666 319.309 467.276 320.031 464.555 320.585C462.879 320.925 459.016 322.185 455.972 323.382L450.437 325.558L447.657 321.875C443.298 316.095 440.23 303.501 438.934 286.068C438.288 277.351 436.962 267.934 435.988 265.141C433.582 258.231 433.563 258.26 438.933 260.37C442.769 261.877 444.594 261.991 448.439 260.964C452.31 259.932 453.702 260.026 455.908 261.472C458.36 263.078 459.403 263.046 466.769 261.135C471.251 259.973 474.744 258.503 474.534 257.869C473.634 255.171 468.05 252.361 463.461 252.298C458.699 252.232 458.601 252.15 458.601 248.183C458.601 245.112 457.625 243.159 454.561 240.095C452.339 237.873 449.972 236.395 449.3 236.81C448.57 237.262 449.495 238.889 451.595 240.852C454.169 243.256 455.108 245.182 455.095 248.03C455.075 252.517 454.451 253.643 450.494 256.351C444.655 260.347 437.303 258.145 428.664 249.812C424.359 245.659 423.723 244.403 423.723 240.056C423.723 235.149 423.788 235.067 427.71 235.067C433.141 235.067 435.349 232.522 435.349 226.265C435.349 223.433 435.017 221.116 434.611 221.116C434.204 221.116 432.66 222.424 431.178 224.022C427.463 228.031 424.887 227.682 418.351 222.281C411.279 216.436 406.68 214.911 398.022 215.536C390.065 216.112 385.865 219.271 381.934 227.633C379.927 231.904 378.849 232.827 374.622 233.895C351.699 239.684 336.534 255.399 333.102 276.919C332.44 281.076 331.893 286.763 331.889 289.557L331.879 294.638L326.938 290.597C319.54 284.546 310.102 279.639 301.755 277.503C293.228 275.321 280.433 275.042 275.471 276.929C272.588 278.024 273.127 277.136 279.156 270.858C286.509 263.201 289.907 257.675 292.406 249.308C293.343 246.173 294.558 244.371 295.732 244.378C299.326 244.4 309.678 251.361 314.583 257.057C317.315 260.227 319.97 262.563 320.483 262.245C320.996 261.928 321.416 259.316 321.416 256.441C321.416 252.03 320.826 250.668 317.638 247.736C315.56 245.824 310.47 242.584 306.329 240.535C299.747 237.279 297.625 236.81 289.472 236.81C278.291 236.81 273.405 238.843 265.39 246.826C258.894 253.297 255.612 262.388 256.834 270.535C257.31 273.714 257.117 275.841 256.305 276.343C255.6 276.778 251.017 277.093 246.12 277.043C239.046 276.971 235.965 276.338 231.119 273.968C217.992 267.546 210.872 250.55 216.084 238.078C218.294 232.787 219.221 232.457 224.415 235.104C226.882 236.363 229.576 237.392 230.399 237.392C232.406 237.392 232.294 238.206 229.705 242.486C228.499 244.48 227.155 247.289 226.721 248.727C225.645 252.279 229.067 252.245 234.341 248.652L238.292 245.963L241.198 251.189C242.797 254.064 244.692 256.603 245.41 256.834C247.041 257.354 248.138 253.425 248.157 246.983L248.174 242.042H255.149C258.986 242.042 262.125 241.6 262.125 241.06C262.125 239.668 258.69 236.831 254.342 234.629L250.629 232.75L253.456 227.804C258.71 218.616 256.602 216.306 248.391 222.254L243.609 225.718L241.716 221.726C238.241 214.404 235.089 213.586 233.868 219.689C233.311 222.475 232.349 223.184 227.398 224.452C224.2 225.272 220.217 227.209 218.548 228.756C214.661 232.358 211.029 240.35 210.997 245.375C210.973 248.909 210.718 249.206 208.355 248.43C203.813 246.94 196.114 246.433 194.211 247.498C192.72 248.333 193.611 249.56 199.009 254.099C204.255 258.509 206.324 259.574 208.914 259.194C211.663 258.79 212.587 259.381 214.674 262.875C216.041 265.165 218.252 268.279 219.588 269.797C221.962 272.497 221.964 272.542 219.69 271.858C214.627 270.333 201.589 269.014 197.29 269.591C193.373 270.116 192.152 269.681 188.487 266.464C185.867 264.164 184.232 261.683 184.232 260.01C184.232 256.295 182.216 255.354 179.508 257.803C175.472 261.456 176.96 268.922 182.315 271.884C184.234 272.946 183.92 273.396 179.408 276.06C168.228 282.661 161.01 294.251 160.093 307.074C159.793 311.27 160.086 316.654 160.744 319.037C161.932 323.338 161.896 323.405 156.36 327.47C148.523 333.222 146.446 337.983 146.457 350.162C146.465 360.393 146.875 361.555 158.404 384.167C159.305 385.933 149.782 384.918 144.977 382.737C138.948 380.001 138.069 378.076 140.507 372.938C143.074 367.529 142.875 364.928 139.284 356.926L136.188 350.028L133.776 353.838C132.025 356.605 131.388 359.453 131.453 364.239C131.632 377.4 141.091 386.68 155.886 388.206C161.844 388.821 162.128 389.007 162.831 392.757C164.055 399.283 162.454 404.288 157.85 408.331C153.987 411.723 153.104 411.991 147.383 411.517C139.09 410.83 137.932 409.536 141.069 404.46C144.124 399.517 144.124 399.032 141.065 391.922C138.947 386.998 138.334 386.38 136.817 387.638C134.213 389.797 131.916 395.983 131.916 400.834C131.916 404.213 132.835 405.996 136.429 409.591C140.649 413.811 141.386 414.104 147.764 414.096C155.042 414.088 158.839 412.36 163.077 407.128L165.433 404.222L168.223 406.838C171.968 410.35 179.014 410.393 182.704 406.926C186.867 403.014 186.157 401.316 180.357 401.316C176.316 401.316 174.481 400.568 171.088 397.537C168.76 395.458 166.549 392.419 166.172 390.781C165.58 388.205 166.352 387.159 171.919 382.997L178.349 378.188L180.786 381.611C183.646 385.626 187.918 387.015 191.875 385.211C195.539 383.542 195.423 382.555 191.282 380.2C186.556 377.511 184.541 372.973 183.151 361.888C182.492 356.642 180.903 349.972 179.617 347.067C177.49 342.256 177.462 341.859 179.304 342.618C187.11 345.837 194.315 346.873 199.927 345.585L205.739 344.25L209.185 348.659C215.156 356.297 221.803 361.998 228.207 364.974C234.323 367.816 237.571 368.091 254.5 367.2C257.585 367.037 258.014 367.465 258.88 371.563C260.07 377.197 257.572 387.739 253.53 394.142C250.078 399.61 242.539 405.759 236.751 407.826C221.842 413.151 202.173 405.212 199.614 392.84C197.586 383.033 202.676 375.739 211.549 375.739C214.353 375.739 216.992 376.297 217.413 376.979C218.65 378.98 217.643 379.132 212.42 377.738C204.713 375.682 203.669 377.945 209.741 383.551L214.615 388.052L211.53 389.701C209.835 390.609 207.655 392.882 206.688 394.754L204.929 398.156L209.984 397.485C212.765 397.115 216.217 396.457 217.656 396.022C219.807 395.372 220.272 395.679 220.272 397.75C220.272 400.781 223.393 407.128 224.884 407.128C226.445 407.128 227.604 404.836 228.391 400.192C228.943 396.93 229.556 396.163 231.364 396.469C241.066 398.11 241.198 398.106 241.198 396.121C241.198 395.043 239.631 392.594 237.716 390.679L234.234 387.197L238.298 383.365C245.493 376.579 242.746 373.817 232.479 377.516C229.921 378.437 227.697 379.2 227.538 379.209C227.379 379.218 227.247 377.893 227.247 376.262C227.247 372.708 224.195 366.438 222.465 366.438C221.788 366.438 220.639 368.01 219.914 369.932C218.656 373.264 218.35 373.395 213.33 372.779C207.047 372.007 201.788 374.746 198.177 380.669C192.481 390.011 198.824 403.723 211.552 409.586C217.444 412.3 232.442 412.554 238.454 410.042C246.677 406.606 253.474 400.506 257.532 392.919C260.97 386.496 261.496 384.338 261.918 374.924C262.307 366.236 262.817 363.847 264.635 362.202C266.773 360.267 267.153 360.328 273.268 363.598C284.061 369.371 295.002 378.244 297.968 383.63C301.243 389.578 301.613 398.847 298.748 403.219C294.219 410.131 282.683 412.933 277.159 408.461L274.497 406.305L278.416 402.804C282.121 399.493 282.345 398.851 282.533 391.008C282.641 386.446 282.472 382.714 282.156 382.714C281.84 382.714 279.807 383.811 277.638 385.152C272.739 388.18 270.263 392.807 270.263 398.932C270.263 404.21 270.415 404.082 266.074 402.433C263.861 401.591 261.818 401.6 259.346 402.462C255.925 403.655 249.336 409.059 249.336 410.673C249.336 411.104 253.247 411.812 258.027 412.246C265.145 412.89 267.257 412.679 269.705 411.075C272.112 409.498 273.191 409.379 275.256 410.465C290.232 418.344 305.188 409.099 305.107 392.015C305.063 382.498 296.83 372.611 281.511 363.68C277.264 361.204 274.028 358.791 274.321 358.316C274.614 357.842 276.909 357.455 279.42 357.455C287.021 357.455 294.258 353.137 298.186 346.262C300.061 342.977 301.929 338.065 302.337 335.345C303.172 329.781 303.478 329.642 309.064 332.307C313.057 334.211 316.766 333.87 316.766 331.597C316.766 330.201 313.74 327.017 309.769 324.236L306.984 322.286L310.573 318.494C314.899 313.924 317.136 309.838 315.772 308.995C314.43 308.165 307.842 310.12 304.416 312.364C301.773 314.096 301.652 314.055 301.652 311.416C301.652 307.17 299.278 301.334 297.552 301.334C296.609 301.334 295.478 303.867 294.659 307.814C293.548 313.163 292.976 314.15 291.38 313.472C290.316 313.02 287.291 312.125 284.658 311.482C280.586 310.488 279.492 309.533 277.338 305.102C275.947 302.235 275.005 299.691 275.248 299.448C275.491 299.205 278.212 299.478 281.296 300.054C288.27 301.357 296.517 299.168 300.465 294.965C304.347 290.833 302.852 290.321 296.878 293.736C288.312 298.632 275.486 297.145 270.996 290.734C269.176 288.136 269.226 287.963 272.268 286.369C274.01 285.456 278.888 284.462 283.109 284.161C301.473 282.846 320.075 294.186 328.215 311.657C330.809 317.223 331.238 319.656 331.109 328.073C330.942 338.88 330.312 341.04 321.581 360.726C318.345 368.024 314.59 378.656 313.237 384.351C311.084 393.419 310.942 395.65 312.098 402.284C312.824 406.452 314.171 411.665 315.092 413.868C316.013 416.072 316.766 418.076 316.766 418.322C316.766 418.566 271.121 418.633 215.331 418.469L113.896 418.173L114.176 408.872C115.216 374.37 124.146 337.713 138.468 309.157C154.2 277.788 180.114 246.156 206.902 225.623C224.772 211.925 250.273 197.836 271.898 189.713C281.907 185.953 310.037 178.316 320.254 176.584C326.469 175.531 331.736 175.858 342.926 177.991ZM326.698 180.345C325.837 181.737 328.024 183.114 329.573 182.158C330.874 181.354 330.019 179.263 328.392 179.263C327.828 179.263 327.065 179.75 326.698 180.345ZM336.676 181.992C335.687 183.184 335.891 184.027 337.53 185.509C339.444 187.243 339.847 187.264 341.143 185.701C342.869 183.621 341.944 180.425 339.615 180.425C338.714 180.425 337.391 181.131 336.676 181.992ZM314.367 183.42C313.107 184.94 313.132 185.434 314.515 186.309C317.111 187.952 318.903 187.598 320.192 185.192C321.098 183.499 320.949 182.82 319.556 182.285C316.829 181.239 316.033 181.414 314.367 183.42ZM346.993 184.494C345.838 185.886 345.838 186.59 346.993 187.982C348.78 190.135 349.454 190.151 352.249 188.108C354.129 186.733 354.229 186.209 352.91 184.62C350.969 182.281 348.867 182.237 346.993 184.494ZM303.237 185.653C302.164 188.449 304.694 190.577 307.207 188.992C310.03 187.21 309.694 184.563 306.589 184.122C304.978 183.893 303.686 184.485 303.237 185.653ZM324.082 185.516C325.236 188.981 331.879 189.331 331.879 185.925C331.879 184.93 330.42 184.378 327.791 184.378C325.542 184.378 323.873 184.89 324.082 185.516ZM358.049 186.257C358.451 186.907 359.266 187.138 359.862 186.77C361.474 185.773 361.174 185.076 359.131 185.076C358.135 185.076 357.648 185.607 358.049 186.257ZM294.677 187.401C294.677 188.04 295.2 188.563 295.839 188.563C296.479 188.563 297.002 188.04 297.002 187.401C297.002 186.761 296.479 186.238 295.839 186.238C295.2 186.238 294.677 186.761 294.677 187.401ZM323.741 192.452C323.741 193.313 324.687 194.872 325.841 195.917C327.739 197.634 328.187 197.645 330.491 196.031C331.895 195.048 333.042 193.489 333.042 192.566C333.042 190.525 331.665 190.405 329.787 192.284C328.702 193.368 328.081 193.368 326.997 192.284C325.154 190.441 323.741 190.514 323.741 192.452ZM274.751 194.415C277.624 196.808 281.888 197.505 281.888 195.58C281.888 193.99 277.88 192.044 274.699 192.089L272.007 192.129L274.751 194.415ZM285.376 194.144C285.376 194.655 286.002 195.699 286.767 196.464C287.847 197.544 287.651 198.226 285.897 199.508C282.681 201.86 284.639 203.101 288.827 201.367C292.941 199.663 292.903 199.786 290.474 196.079C288.705 193.378 285.376 192.114 285.376 194.144ZM369.547 194.103C368.844 194.573 367.676 196.079 366.956 197.451C365.119 200.941 368.067 203.186 373.732 202.613C375.055 202.479 374.87 201.931 372.965 200.34C371.226 198.887 370.774 197.738 371.494 196.6C373.435 193.536 372.394 192.202 369.547 194.103ZM378.092 194.015C376.974 194.308 376.057 195.294 376.057 196.205C376.057 198.555 379.611 198.215 383.033 195.539L385.939 193.265L383.033 193.374C381.434 193.435 379.21 193.723 378.092 194.015ZM361.409 195.266C359.878 196.289 357.456 200.694 357.456 202.456C357.456 204.614 365.03 207.596 367.293 206.33C369.03 205.357 368.817 205.012 365.676 203.711C362.375 202.343 362.123 201.868 362.792 198.294C363.569 194.158 363.452 193.902 361.409 195.266ZM294.636 197.787C296.432 201.145 296.146 202.002 292.703 203.57C290.333 204.65 289.952 205.238 291.145 205.974C292.838 207.02 300.49 203.977 300.49 202.259C300.49 200.266 296.687 195.539 295.084 195.539C293.812 195.539 293.708 196.055 294.636 197.787ZM304.007 200.846C305.514 204.813 305.642 204.52 301.453 206.687C298.32 208.306 298.054 208.754 299.683 209.667C302.429 211.202 308.628 207.783 308.628 204.734C308.628 201.396 306.529 197.864 304.547 197.864C303.23 197.864 303.115 198.501 304.007 200.846ZM322.579 199.39C322.579 200.23 324.089 202.364 325.936 204.133L329.293 207.349L331.168 204.673C333.885 200.794 333.709 198.063 330.905 200.6C328.906 202.41 328.633 202.384 326.656 200.198C324.226 197.513 322.579 197.186 322.579 199.39ZM349.93 201.294C347.285 206.408 347.722 207.804 352.416 209.245C358.16 211.007 361.403 209.281 356.311 207.172C352.644 205.653 352.469 204.934 354.543 199.899C356.02 196.308 351.856 197.568 349.93 201.294ZM208.067 206.13C210.943 210.037 213.296 213.897 213.296 214.709C213.296 215.52 209.504 219.038 204.868 222.528C200.231 226.017 190.956 234.116 184.256 240.524L172.072 252.174L164.202 245.815C159.872 242.316 156.33 239.111 156.33 238.691C156.33 235.655 198.271 199.027 201.747 199.027C202.347 199.027 205.191 202.224 208.067 206.13ZM466.475 206.798C478.261 216.001 499.291 235.929 499.291 237.894C499.291 239.059 492.637 245.278 485.123 251.139C483.396 252.485 481.823 251.339 471.962 241.542C465.803 235.422 456.38 226.992 451.022 222.809L441.281 215.203L447.325 207.179C450.65 202.765 454.078 199.127 454.945 199.091C455.813 199.056 461.001 202.524 466.475 206.798ZM344.441 201.654C343.451 202.447 342.102 204.724 341.445 206.714C340.312 210.148 340.456 210.432 344.283 212.256C349.633 214.807 351.648 213.415 347.449 210.066C344.429 207.659 344.283 207.191 345.622 204.25C347.332 200.497 346.946 199.65 344.441 201.654ZM312.843 204.937C313.44 208.611 313.156 209.134 309.609 210.897C305.729 212.825 305.727 212.829 308.864 212.903C310.593 212.944 313.347 212.367 314.984 211.621C318.347 210.089 318.125 207.088 314.356 203.165C312.228 200.949 312.202 200.981 312.843 204.937ZM335.948 206.285C334.67 207.041 333.1 207.709 332.461 207.769C331.821 207.83 330.363 208.305 329.221 208.825C327.844 209.451 326.439 209.135 325.06 207.887C322.092 205.201 320.254 205.554 320.254 208.812C320.254 210.519 319.032 212.511 317.138 213.89L314.023 216.16L316.567 217.522C318.516 218.564 318.943 219.554 318.395 221.743C317.516 225.244 318.297 225.358 321.271 222.167C323.524 219.748 323.55 219.747 324.778 222.042C325.634 223.643 325.712 233.246 325.028 253.253C324.226 276.778 324.331 282.459 325.593 283.811C327.412 285.757 327.395 285.792 329.539 275.349C330.444 270.948 330.797 260.439 330.544 245.582C330.24 227.867 330.499 222.197 331.677 220.778C333.352 218.759 331.997 214.812 329.276 213.794C328.253 213.41 328.513 212.704 330.136 211.457C332.264 209.821 332.532 209.86 333.295 211.904C333.755 213.134 334.734 214.14 335.472 214.14C336.445 214.14 336.42 214.616 335.38 215.869C333.485 218.152 334.782 223.047 337.698 224.606C339.855 225.76 339.912 225.643 338.598 222.759C337.348 220.017 337.502 219.432 339.998 217.41C342.311 215.538 342.507 214.955 341.118 214.077C340.193 213.491 338.976 213.005 338.412 212.995C337.849 212.986 337.685 211.146 338.048 208.909C338.412 206.671 338.611 204.856 338.491 204.874C338.371 204.894 337.227 205.529 335.948 206.285ZM326.029 212.829C326.01 213.231 325.222 214.577 324.281 215.821C322.98 217.542 322.246 217.76 321.217 216.732C320.188 215.703 320.337 215.197 321.838 214.621C323.233 214.087 323.581 213.141 323.027 211.395C322.333 209.211 322.462 209.108 324.155 210.513C325.206 211.386 326.05 212.428 326.029 212.829ZM305.398 217.444C304.319 218.128 304.718 218.754 306.851 219.726C310.065 221.191 310.416 222.426 308.587 225.843C307.644 227.604 307.764 228.091 309.138 228.091C310.602 228.091 314.441 222.683 314.441 220.622C314.441 220.079 308.101 216.439 307.233 216.483C307.041 216.493 306.215 216.926 305.398 217.444ZM329.554 218.209C329.554 219.168 328.769 219.953 327.81 219.953C326.851 219.953 326.066 219.168 326.066 218.209C326.066 217.25 326.851 216.465 327.81 216.465C328.769 216.465 329.554 217.25 329.554 218.209ZM346.121 217.915C341.907 219.267 341.518 220.799 344.117 225.824C346.043 229.55 350.207 230.809 348.73 227.219C346.666 222.207 346.836 221.463 350.377 219.996C352.336 219.185 353.653 218.058 353.303 217.493C352.533 216.244 351.056 216.332 346.121 217.915ZM239.727 221.207C241.474 224.629 241.642 231.167 240.011 232.175C238.468 233.129 235.385 225.717 235.385 221.056C235.385 216.822 237.528 216.897 239.727 221.207ZM410.667 220.801C415.943 223.25 419.343 228.506 419.987 235.215C420.581 241.396 420.279 241.723 416.354 239.152C411.932 236.255 400.629 232.823 392.902 232.031L385.582 231.281L386.697 228.084C389.911 218.866 399.937 215.819 410.667 220.801ZM292.352 221.116C292.352 221.755 293.036 222.278 293.873 222.278C294.711 222.278 296.41 223.028 297.652 223.944C299.461 225.279 299.62 225.902 298.455 227.083C296.545 229.02 296.61 230.416 298.612 230.416C300.196 230.416 303.977 225.659 303.977 223.669C303.977 222.232 298.596 219.953 295.203 219.953C293.635 219.953 292.352 220.476 292.352 221.116ZM355.422 221.686C353.343 222.59 351.643 223.806 351.643 224.391C351.643 226.284 356.414 231.579 358.122 231.579C360.028 231.579 360.342 229.737 358.619 228.672C356.321 227.253 357.522 224.459 360.943 223.268C364.525 222.018 364.669 219.917 361.166 219.998C360.085 220.024 357.5 220.783 355.422 221.686ZM253.987 222.777C253.987 225.117 246.543 232.741 244.258 232.741C241.278 232.741 241.986 231.064 247.148 225.903C252.193 220.858 253.987 220.038 253.987 222.777ZM285.376 224.525C285.376 225.122 286.423 225.941 287.7 226.347C289.588 226.946 289.799 227.506 288.822 229.332C287.083 232.582 290.164 232.324 292.21 229.048C293.592 226.835 293.526 226.325 291.687 224.979C289.263 223.207 285.376 222.927 285.376 224.525ZM364.663 225.599C363.454 226.365 363.433 227.18 364.558 229.65C366.205 233.261 368.474 233.824 367.578 230.399C367.135 228.703 367.818 227.592 370.059 226.376L373.151 224.696L369.663 224.667C367.745 224.652 365.494 225.071 364.663 225.599ZM233.412 227.51C233.538 228.149 231.287 228.78 228.41 228.912L223.178 229.151L226.666 227.497C230.474 225.689 233.054 225.694 233.412 227.51ZM431.815 231.053C429.994 233.248 425.566 233.217 423.723 230.998C422.504 229.529 422.722 229.254 425.102 229.254C426.658 229.254 428.944 228.504 430.186 227.588C432.152 226.136 432.493 226.144 432.83 227.643C433.041 228.591 432.586 230.124 431.815 231.053ZM276.635 228.66C274.444 230.37 274.53 230.442 278.401 230.147C280.639 229.974 282.366 229.312 282.241 228.672C281.862 226.752 279.085 226.745 276.635 228.66ZM373.104 229.824C375.51 231.71 377.429 231.702 377.343 229.806C377.315 229.183 375.838 228.529 374.059 228.355C370.95 228.05 370.914 228.107 373.104 229.824ZM234.131 231.887C238.134 233.93 238.554 236.229 234.925 236.229C230.929 236.229 222.448 232.76 223.255 231.456C224.186 229.949 230.85 230.213 234.131 231.887ZM255.207 236.841C259.633 239.13 259.583 240.879 255.091 240.879C251.163 240.879 244.686 237.966 244.686 236.199C244.686 234.452 251.375 234.86 255.207 236.841ZM245.625 247.955L245.267 254.249L243.233 250.529C242.113 248.482 241.198 244.573 241.198 241.841V236.876L243.591 239.268C245.531 241.208 245.916 242.848 245.625 247.955ZM237.346 242.313C235.576 246.651 228.41 251.68 228.41 248.584C228.41 246.211 235.161 238.554 237.252 238.554C238.628 238.554 238.642 239.137 237.346 242.313ZM514.125 255.754C522.815 267.3 536.494 289.003 536.494 291.244C536.494 291.976 516.556 301.551 516.067 301.053C515.904 300.888 513.556 296.829 510.848 292.033C504.034 279.964 497.631 270.53 490.985 262.77C487.88 259.144 485.34 255.886 485.34 255.53C485.34 254.292 502.116 241.052 502.997 241.596C503.486 241.898 508.493 248.269 514.125 255.754ZM161.687 247.955C165.775 251.207 169.118 254.565 169.118 255.416C169.118 256.269 166.723 259.755 163.795 263.164C158.769 269.016 143.382 291.53 140.091 297.846C139.257 299.444 138.44 300.916 138.273 301.116C137.725 301.773 119.127 292.031 119.127 291.087C119.127 289.946 130.697 271.418 136.324 263.55C141.896 255.757 152.964 242.042 153.681 242.042C153.998 242.042 157.6 244.703 161.687 247.955ZM286.539 245.955C286.539 247.468 284.72 252.34 282.498 256.782C278.698 264.378 273.671 269.768 267.156 273.235C264.879 274.448 264.559 274.248 263.888 271.196C263.021 267.248 264.125 260.139 266.249 255.993C271.099 246.532 286.539 238.891 286.539 245.955ZM202.95 249.183C210.392 251.681 213.931 257.156 208.105 257.156C204.957 257.156 196.64 250.573 197.673 248.9C198.474 247.604 198.209 247.59 202.95 249.183ZM365.072 256.537C365.999 258.754 366.757 261.486 366.757 262.608C366.757 264.464 366.557 264.441 364.546 262.355C361.896 259.609 360.114 252.505 362.074 252.505C362.796 252.505 364.146 254.32 365.072 256.537ZM374.788 261.339C372.409 263.871 369.082 265.116 369.082 263.473C369.082 261.847 371.901 257.559 374.159 255.754C376.525 253.862 376.656 253.881 377.025 256.158C377.237 257.472 376.232 259.802 374.788 261.339ZM469.947 256.244C471.358 257.414 470.995 257.874 467.733 259.055C462.441 260.97 457.994 260.97 456.403 259.054C452.854 254.777 465.115 252.233 469.947 256.244ZM181.907 261.716C181.907 262.307 183.261 264.4 184.916 266.367C187.482 269.416 187.624 269.944 185.88 269.944C182.88 269.944 179.581 266.502 179.581 263.37C179.581 261.87 180.105 260.643 180.744 260.643C181.383 260.643 181.907 261.126 181.907 261.716ZM363.578 264.93C364.069 265.218 364.169 265.941 363.8 266.536C362.887 268.016 357.828 267.899 354.897 266.332C352.964 265.296 352.808 264.84 354.102 264.008C355.563 263.068 361.379 263.633 363.578 264.93ZM383.321 268.605C385.156 270.439 381.595 271.532 376.747 270.622C372.346 269.796 369.133 267.02 371.619 266.192C373.778 265.473 381.854 267.137 383.321 268.605ZM477.202 277.059C477.202 279.292 475.374 279.808 472.023 278.523C469.728 277.641 466.739 272.12 466.739 268.762C466.739 266.526 467.218 266.693 471.97 270.588C474.848 272.946 477.202 275.858 477.202 277.059ZM365.594 270.889C365.594 272.86 360.015 279.245 358.293 279.245C357.139 279.245 359.657 273.171 361.787 270.818C364.156 268.2 365.594 268.227 365.594 270.889ZM373.34 277.28C373.79 280.057 373.583 281.57 372.752 281.57C370.924 281.57 367.919 275.301 367.919 271.487V268.265L370.282 270.628C371.582 271.926 372.957 274.92 373.34 277.28ZM397.294 276.329C399.714 279.655 401.267 286.22 399.635 286.22C397.495 286.22 394.558 281.846 393.875 277.645C393.086 272.779 394.356 272.29 397.294 276.329ZM407.818 280.633C406.643 282.644 405.032 284.506 404.24 284.77C401.628 285.641 402.717 280.68 405.992 276.789C408.547 273.753 409.263 273.391 409.57 274.984C409.78 276.079 408.992 278.621 407.818 280.633ZM225.67 278.079C235.411 280.541 242.248 281.564 248.977 281.566C254.214 281.569 258.812 282.075 259.195 282.694C259.577 283.314 257.875 285.639 255.413 287.864C248.377 294.22 244.687 302.22 242.278 316.341C241.113 323.17 239.647 330.105 239.022 331.751C237.703 335.218 232.725 339.447 228.803 340.431C225.399 341.286 225.36 342.547 228.669 344.864C231.372 346.758 235.05 347.175 238.239 345.952C240.704 345.007 243.502 339.502 243.606 335.397C243.68 332.429 243.89 332.598 245.98 337.311C247.24 340.153 250.147 346.274 252.439 350.912C254.731 355.549 256.306 360.128 255.937 361.086C254.969 363.61 246.217 365.629 239.312 364.922C229.154 363.882 217.444 356.189 212.751 347.473L210.613 343.504L215.375 339.202C221.857 333.345 225.309 325.878 225.309 317.71C225.309 314.132 224.624 309.925 223.786 308.359C222.949 306.794 222.731 305.356 223.303 305.163C223.873 304.97 226.042 303.775 228.119 302.509C235.286 298.139 232.366 289.948 221.725 284.579C217.576 282.486 217.192 283.013 219.69 287.383C221.355 290.295 222.056 299.162 220.726 300.491C220.337 300.88 218.114 299.944 215.785 298.411C213.458 296.877 209.3 295.266 206.547 294.831C202.827 294.243 201.71 293.606 202.194 292.348C205.443 283.88 203.088 282.732 195.861 289.261C191.818 292.914 191.207 293.16 191.207 291.128C191.207 288.134 184.732 281.123 182.97 282.213C182.131 282.731 181.833 285.327 182.161 289.277L182.68 295.521H177.204C169.515 295.521 167.55 298.087 172.793 301.284C174.928 302.585 177.56 303.652 178.641 303.654C181.539 303.661 182.387 305.851 180.358 308.094C177.6 311.14 175.818 316.637 177.153 317.971C178.434 319.252 182.611 316.927 186.471 312.784C188.729 310.36 188.844 310.349 189.619 312.486C191.087 316.536 194.827 321.097 196.679 321.097C198.204 321.097 198.402 319.962 197.884 314.238L197.262 307.378L200.919 308.44C204.686 309.534 210.971 308.795 210.971 307.257C210.971 305.746 205.865 301.536 202.473 300.25C200.675 299.57 199.529 298.489 199.925 297.848C201.14 295.881 206.667 296.587 211.441 299.318C218.717 303.481 218.906 304.675 213.424 311.869C208.367 318.507 205.158 326.951 205.158 333.623V337.589L199.289 332.312C192.064 325.816 183.028 322.26 173.748 322.26C167.191 322.26 166.794 322.096 165.984 319.063C163.17 308.522 166.311 295.473 173.682 287.078C184.793 274.422 200.471 271.709 225.67 278.079ZM478.02 287.915C474.979 292.686 473.812 292.894 471.091 289.152C469.143 286.474 469.143 286.289 471.091 285.155C472.214 284.501 474.809 283.95 476.858 283.93L480.583 283.895L478.02 287.915ZM188.882 293.906C188.882 296.073 188.346 297.846 187.69 297.846C186.057 297.846 184.224 292.664 184.27 288.179L184.31 284.476L186.595 287.221C187.88 288.761 188.882 291.694 188.882 293.906ZM491.889 286.953C501.096 291.321 505.606 308.134 500.49 319.016C496.731 327.013 496.124 327.258 488.176 323.991C484.379 322.43 479.701 321.132 477.783 321.107C475.865 321.082 473.626 320.637 472.807 320.117C471.366 319.202 471.506 318.918 476.85 311.882C477.057 311.609 478.688 312.785 480.475 314.498C484.901 318.737 487.97 318.697 486.943 314.413C486.521 312.655 485.452 309.776 484.566 308.018C483.043 304.996 483.1 304.821 485.6 304.817C488.556 304.812 495.803 300.787 495.803 299.15C495.803 297.569 492.708 296.683 487.186 296.683H482.246L484.03 290.87C485.011 287.673 486.282 285.058 486.855 285.058C487.427 285.058 489.693 285.911 491.889 286.953ZM396.45 287.461C397.749 289.561 395.869 290.3 389.871 290.043C383.235 289.758 380.833 288.755 383.199 287.255C385.452 285.827 395.538 285.984 396.45 287.461ZM417.91 287.4C420.878 289.349 416.92 291.037 410.619 290.509C404.591 290.004 403.313 289.368 404.493 287.461C405.453 285.906 415.565 285.861 417.91 287.4ZM482.411 289.998C481.496 294.391 478.812 299.008 477.175 299.008C475.371 299.008 475.846 295.808 478.388 290.824C481.276 285.163 483.516 284.704 482.411 289.998ZM200.508 289.667C200.508 292.389 193.752 300.444 192.25 299.515C190.913 298.689 192.929 294.728 196.798 290.58C200.353 286.768 200.508 286.73 200.508 289.667ZM227.446 290.469C230.288 293.042 230.219 298.581 227.324 300.13C223.886 301.97 223.759 301.786 223.759 294.939C223.759 288.04 224.187 287.52 227.446 290.469ZM408.189 297.518C410.044 301.901 410.229 304.821 408.652 304.821C406.632 304.821 401.634 296.221 401.634 292.746C401.634 289.359 401.642 289.354 404.12 291.562C405.487 292.781 407.318 295.46 408.189 297.518ZM471.304 292.771C473.796 295.937 474.479 299.008 472.693 299.008C471.266 299.008 469.409 296.581 467.998 292.867C466.465 288.839 468.173 288.789 471.304 292.771ZM399.309 293.106C399.309 294.336 397.955 296.952 396.299 298.919C390.848 305.398 389.155 302.516 394.119 295.209C397.358 290.443 399.309 289.652 399.309 293.106ZM467.203 295.23L469.123 299.008H465.606C461.764 299.008 461.495 298.395 463.284 293.691C464.638 290.128 464.6 290.112 467.203 295.23ZM266.723 295.446C268.06 297.324 270.842 302.425 272.905 306.781C276.355 314.064 276.657 315.642 276.657 326.329C276.657 339.069 275.211 344.759 270.575 350.269L267.602 353.804L262.44 348.785C252.683 339.3 248.436 326.352 250.619 312.741C251.885 304.841 255.944 296.724 260.076 293.83C263.53 291.411 263.915 291.505 266.723 295.446ZM128.571 299.905L136.269 304.24L132.393 312.959C130.261 317.755 126.368 328.48 123.743 336.792C116.607 359.382 118.229 357.267 109.601 355.234C105.569 354.285 100.832 353.213 99.0727 352.852C97.3137 352.492 95.8756 352.006 95.8756 351.773C95.8756 347.199 109.445 309.987 115.222 298.718C117.369 294.529 119.335 294.705 128.571 299.905ZM543.483 306.856C548.401 318.011 558.583 347.635 558.583 350.785C558.583 351.708 556.471 352.938 553.642 353.661C550.925 354.357 547.183 355.424 545.33 356.032C538.321 358.331 537.014 357.668 535.491 351.034C533.901 344.113 523.625 316.151 520.214 309.466C518.381 305.871 518.244 304.814 519.483 303.787C521.435 302.166 535.505 295.644 537.199 295.574C537.907 295.545 540.735 300.621 543.483 306.856ZM184.522 299.19C189.099 300.999 188.466 302.496 183.124 302.496C178.444 302.496 172.606 300.511 172.606 298.919C172.606 296.517 178.076 296.641 184.522 299.19ZM491.019 298.902C492.311 299.719 492.154 300.176 490.224 301.209C486.857 303.011 478.033 302.909 478.645 301.076C479.492 298.533 488.062 297.027 491.019 298.902ZM205.158 303.841C207.666 305.382 208.635 306.544 207.686 306.87C205.477 307.628 196.146 304.826 194.575 302.932C192.356 300.259 200.459 300.956 205.158 303.841ZM471.389 302.344C471.389 303.633 463.687 304.916 461.342 304.016C459.904 303.463 459.862 303.15 461.119 302.352C463.164 301.056 471.389 301.05 471.389 302.344ZM194.15 307.216C195.161 309.173 195.83 312.705 195.633 315.064L195.276 319.354L193.242 315.633C191.425 312.31 190.353 303.659 191.758 303.659C192.062 303.659 193.138 305.26 194.15 307.216ZM187.186 308.217C185.576 311.332 178.419 317.577 178.419 315.868C178.419 312.873 184.943 304.821 187.371 304.821C188.648 304.821 188.613 305.456 187.186 308.217ZM299.327 311.797C299.327 318.052 297.495 320.56 296.327 315.905C295.383 312.146 296.761 304.535 298.224 305.439C298.831 305.814 299.327 308.675 299.327 311.797ZM476.039 306.677C476.039 308.919 472.416 315.285 471.138 315.285C469.867 315.285 470.001 312.791 471.503 308.482C472.825 304.691 476.039 303.411 476.039 306.677ZM482.724 309.443C485.65 313.762 486.06 315.715 483.887 315.001C482.274 314.472 477.202 307.426 477.202 305.715C477.202 303.633 480.126 305.607 482.724 309.443ZM222.615 313.027C224.471 319.917 221.735 328.405 215.604 334.787C212.981 337.518 210.342 339.448 209.74 339.076C207.909 337.943 208.516 328.44 210.802 322.422C212.888 316.934 218.825 308.309 220.517 308.309C220.973 308.309 221.917 310.432 222.615 313.027ZM322.024 323.626C321.586 330.868 321.401 339.931 321.613 343.768L321.997 350.743L324.119 346.093C329.007 335.38 329.174 319.534 324.47 312.819C322.987 310.699 322.738 311.797 322.024 323.626ZM311.492 314.603C309.66 317.399 301.987 321.819 300.883 320.715C298.825 318.657 306.682 311.947 311.27 311.843C313.183 311.8 313.199 311.999 311.492 314.603ZM288.029 314.543C290.087 315.414 292.767 317.245 293.985 318.612C296.164 321.057 296.164 321.097 293.964 321.097C291.38 321.097 283.051 315.743 283.051 314.08C283.051 312.611 283.58 312.659 288.029 314.543ZM288.105 321.37C290.129 322.883 290.014 323.156 286.07 326.164L281.888 329.354V323.441C281.888 317.11 282.247 316.99 288.105 321.37ZM413.849 325.751C413.855 329.706 413.383 331.561 412.368 331.561C410.076 331.561 408.486 326.222 409.772 322.841C411.686 317.807 413.84 319.345 413.849 325.751ZM295.149 326.193C294.464 327.979 285.704 333.886 283.742 333.886C281.714 333.886 288.379 326.513 291.649 325.137C295.786 323.397 296.177 323.516 295.149 326.193ZM306.63 325.006C308.688 325.877 311.368 327.708 312.586 329.075C314.769 331.525 314.767 331.561 312.468 331.561C309.781 331.561 302.643 327.03 301.936 324.876C301.33 323.033 302.014 323.052 306.63 325.006ZM483.547 325.818C488.262 327.273 491.119 328.754 490.839 329.595C489.862 332.526 479.292 335.311 471.728 334.631C464.573 333.988 455.113 330.24 455.113 328.05C455.113 327.423 455.244 326.902 455.404 326.893C455.563 326.884 457.787 326.121 460.345 325.2C466.91 322.834 474.549 323.038 483.547 325.818ZM188.491 328.831C191.794 330.486 196.459 333.85 198.857 336.306L203.218 340.773L200.044 341.98C195.52 343.699 193.307 343.504 185.909 340.737C179.591 338.372 169.118 329.927 169.118 327.195C169.118 323.654 179.995 324.572 188.491 328.831ZM300.472 332.945C300.482 335.945 299.994 338.705 299.39 339.079C298.115 339.867 295.732 332.187 296.49 329.73C298.283 323.924 298.237 323.987 299.371 325.78C299.967 326.722 300.462 329.946 300.472 332.945ZM369.352 331.561C370.482 331.561 371.407 332.084 371.407 332.723C371.407 333.363 369.576 333.886 367.338 333.886C363.026 333.886 358.619 330.633 358.619 327.45C358.619 326.051 359.56 326.304 362.957 328.612C365.344 330.234 368.222 331.561 369.352 331.561ZM169.498 336.655C176.952 348.42 178.73 353.078 178.876 361.207C179.034 370.064 176.072 376.241 169.46 380.842C163.236 385.174 162.707 384.762 155.147 369.662C149.996 359.371 149.354 357.261 149.354 350.6C149.354 346.481 150.074 341.389 150.954 339.284C152.547 335.473 160.356 328.073 162.786 328.073C163.488 328.073 166.508 331.935 169.498 336.655ZM294.677 333.831C294.677 335.08 295.251 337.362 295.952 338.901C299.318 346.287 285.347 357.174 276.221 354.278C273.85 353.525 273.853 353.49 276.627 347.482C278.16 344.161 279.693 340.523 280.036 339.4C280.379 338.277 283.421 336.096 286.796 334.554C294.423 331.07 294.677 331.047 294.677 333.831ZM439.677 335.048C441.255 335.048 442.325 335.753 442.325 336.792C442.325 337.751 441.844 338.536 441.257 338.536C440.67 338.536 439.403 338.838 438.44 339.207C436.399 339.991 431.861 335.875 431.861 333.238C431.861 331.6 432.107 331.6 434.446 333.238C435.866 334.233 438.221 335.048 439.677 335.048ZM519.09 337.31C517.564 340.158 512.433 340.509 509.104 337.992C506.983 336.387 507.095 336.283 510.985 336.248C513.26 336.227 516.138 335.462 517.38 334.549C520.046 332.584 520.889 333.945 519.09 337.31ZM240.712 339.152C239.794 342.81 235.069 345.937 231.954 344.949C228.666 343.905 228.969 342.859 233.089 341.035C235.023 340.179 237.508 338.269 238.611 336.79C240.852 333.786 241.793 334.845 240.712 339.152ZM506.037 346.651C504.817 349.911 503.104 351.28 500.215 351.307C498.581 351.321 498.725 350.834 501.041 348.518C502.583 346.974 504.214 344.247 504.663 342.458C505.389 339.57 505.572 339.46 506.298 341.484C506.748 342.74 506.63 345.065 506.037 346.651ZM421.781 343.61C423.867 344.482 426.976 346.86 428.687 348.894C431.686 352.457 434.974 361.388 433.741 362.621C433.412 362.95 431.468 362.635 429.422 361.923C427.376 361.209 424.501 360.625 423.034 360.625H420.366L422.718 355.309C424.012 352.385 424.761 349.189 424.385 348.208C423.778 346.627 423.335 346.65 420.514 348.41C418.762 349.503 416.48 351.365 415.444 352.549C413.636 354.614 413.343 354.493 408.203 349.568C403.477 345.041 403.084 344.299 404.857 343.266C407.766 341.571 417.366 341.765 421.781 343.61ZM401.971 351.034C402.334 354.072 402.932 357.341 403.299 358.3C403.836 359.702 402.683 360.107 397.418 360.366L390.868 360.689L391.623 356.911C392.3 353.53 398.571 345.512 400.538 345.512C400.962 345.512 401.607 347.996 401.971 351.034ZM409.101 354.205C412.676 361.74 410.407 364.791 406.272 358.009C403.528 353.509 403.151 348.762 405.614 349.707C406.523 350.056 408.092 352.08 409.101 354.205ZM260.35 353.144C261.99 354.783 263.029 356.614 262.659 357.213C261.448 359.173 260.26 358.363 258.289 354.231C255.977 349.381 256.377 349.17 260.35 353.144ZM422.561 351.436C422.561 353.386 418.025 359.32 415.504 360.668C411.923 362.585 412.679 359.043 416.869 354.272C420.513 350.12 422.561 349.101 422.561 351.436ZM476.039 351.122C476.039 353.516 467.391 359.463 463.909 359.463C461.586 359.463 461.54 355.553 463.839 353.644C466.642 351.318 476.039 349.375 476.039 351.122ZM489.941 364.113C489.948 365.712 489.429 367.804 488.786 368.763C487.79 370.251 487.28 370.105 485.317 367.762C482.731 364.68 482.286 358.342 484.379 354.445C485.693 351.999 485.82 352.077 487.836 356.556C488.987 359.114 489.935 362.514 489.941 364.113ZM104.366 356.696C117.169 359.577 116.66 358.95 114.837 369.568C112.398 383.78 109.827 405.869 109.827 412.616V418.754H98.7821H87.7376L87.748 410.907C87.7666 396.755 93.5807 354.812 95.5234 354.812C95.7849 354.812 99.7633 355.66 104.366 356.696ZM139.968 366.805C140.072 369.382 138.027 373.414 136.615 373.414C133.63 373.414 132.563 361 135.171 356.614C135.928 355.341 139.839 363.65 139.968 366.805ZM560.238 358.022C563.133 367.144 565.558 387.242 565.558 402.121V418.754H555.095C544.951 418.754 544.632 418.673 544.632 416.08C544.632 408.442 541.97 380.897 540.411 372.406C539.269 366.173 539.029 362.275 539.745 361.559C540.766 360.538 554.956 356.328 558.214 356.08C558.97 356.023 559.881 356.896 560.238 358.022ZM406.251 362.905C410.101 365.339 403.406 366.595 396.382 364.755C393.252 363.935 393.14 363.755 395.24 362.899C398.437 361.596 404.186 361.599 406.251 362.905ZM429.497 364.064C430.861 364.927 430.557 365.387 427.968 366.372C426.189 367.047 423.756 367.601 422.561 367.601C419.044 367.601 414.223 365.378 415.003 364.115C415.906 362.653 427.203 362.613 429.497 364.064ZM393.732 366.358C395.2 366.953 397.813 367.74 399.538 368.108C402.631 368.768 402.65 368.83 400.991 372.802C400.066 375.016 399.309 378.17 399.309 379.811C399.309 382.531 399.542 382.676 401.925 381.451C403.364 380.71 405.95 378.792 407.671 377.187L410.801 374.269L414.89 378.605C417.138 380.989 419.654 382.708 420.478 382.426C422.083 381.876 422.396 376.677 421.059 372.804C420.36 370.783 420.939 370.279 425.181 369.218C427.897 368.539 430.902 367.766 431.861 367.501C434.207 366.853 433.612 372.352 430.723 378.017C427.945 383.463 419.115 391.581 412.9 394.403C404.077 398.408 384.464 396.795 385.858 392.179C387.577 386.487 388.792 379.179 388.818 374.381C388.844 369.391 389.676 365.276 390.659 365.276C390.88 365.276 392.264 365.763 393.732 366.358ZM410.935 368.88C410.935 370.222 408.996 373.231 406.625 375.564C402.97 379.164 402.249 379.487 401.874 377.692C401.316 375.016 406.905 366.438 409.207 366.438C410.187 366.438 410.935 367.495 410.935 368.88ZM416.573 369.159C419.38 372.146 421.756 378.868 420.319 379.757C418.358 380.968 412.097 371.653 412.097 367.525C412.097 365.663 413.911 366.325 416.573 369.159ZM224.383 373.811C225.307 378.734 224.692 383.934 223.178 383.999C221.49 384.072 219.809 376.578 220.709 372.992C221.77 368.764 223.508 369.152 224.383 373.811ZM527.108 382.133C527.135 384.051 526.633 386.405 525.991 387.365C524.98 388.874 524.592 388.805 523.102 386.852C520.808 383.845 520.922 377.65 523.354 373.065L525.328 369.345L526.193 373.995C526.67 376.553 527.081 380.215 527.108 382.133ZM183.069 373.73C183.069 374.544 184.677 377.159 186.642 379.543C189.359 382.84 189.763 383.877 188.332 383.877C185.436 383.877 180.744 378.517 180.744 375.21C180.744 373.582 181.267 372.251 181.907 372.251C182.546 372.251 183.069 372.916 183.069 373.73ZM464.504 377.22C472.917 382.889 475.575 390.648 471.819 398.564C469.146 404.196 466.049 405.632 462.851 402.723C461.472 401.469 459.118 399.81 457.619 399.036L454.894 397.629L457.251 395.113C458.547 393.729 460.154 391.157 460.82 389.399C461.917 386.502 461.786 386.202 459.423 386.202C457.989 386.202 454.92 387.49 452.603 389.064L448.39 391.927L445.425 385.937C443.795 382.642 442.755 379.471 443.114 378.891C444.333 376.918 451.026 374.667 455.813 374.622C458.908 374.592 461.959 375.504 464.504 377.22ZM355.825 381.16C356.707 385.869 355.403 388.892 352.216 389.518C350.369 389.88 350.217 389.307 350.878 384.48C352.09 375.642 354.487 374.032 355.825 381.16ZM237.799 380.877C234.77 384.1 228.735 386.916 227.502 385.681C226.067 384.247 234.061 378.064 237.35 378.064H240.441L237.799 380.877ZM216.356 381.647C220.187 384.014 221.482 386.202 219.051 386.202C217.14 386.202 211.541 383.057 209.872 381.047C207.579 378.282 211.5 378.645 216.356 381.647ZM444.775 389.651C445.519 392.135 445.758 395.12 445.304 396.287C444.56 398.206 444.326 398.13 442.863 395.503C441.012 392.179 440.557 383.366 442.292 384.438C442.914 384.823 444.031 387.168 444.775 389.651ZM517.432 386.593C520.736 389.434 520.464 392.015 516.86 392.015C514.988 392.015 503.941 385.46 503.941 384.349C503.941 384.09 506.266 383.877 509.108 383.877C512.847 383.877 515.147 384.628 517.432 386.593ZM280.427 389.98C280.556 395.422 278.555 401.152 276.059 402.487C272.776 404.244 272.588 404.027 272.588 398.499C272.588 394.662 273.353 392.447 275.598 389.779C279.414 385.243 280.317 385.28 280.427 389.98ZM221.434 389.51C221.434 391.421 216.899 394.559 212.8 395.484C206.846 396.827 207.326 394.074 213.587 390.974C218.823 388.383 221.434 387.896 221.434 389.51ZM233.537 390.152C237.76 391.917 239.395 393.717 238.335 395.433C237.324 397.067 231.46 394.681 228.349 391.37C226.085 388.958 225.98 388.527 227.663 388.527C228.754 388.527 231.398 389.258 233.537 390.152ZM458.601 389.746C458.601 391.402 453.06 396.422 450.245 397.315C444.911 399.009 447 394.562 453.369 390.669C457.353 388.232 458.601 388.012 458.601 389.746ZM226.846 396.234C227.227 399.204 226.831 401.525 225.679 403.059C223.973 405.331 223.904 405.305 222.635 401.985C221.476 398.949 221.889 393.094 223.446 390.46C224.499 388.682 226.26 391.673 226.846 396.234ZM139.685 397.444C140.123 400.719 139.786 402.415 138.482 403.499C134.598 406.722 132.992 401.756 135.548 394.425C137.145 389.844 138.831 391.074 139.685 397.444ZM440.161 396.627L442.906 398.912L439.651 398.952C436.628 398.988 429.536 396.141 429.536 394.891C429.536 393.301 437.786 394.648 440.161 396.627ZM179.433 403.627C181.752 403.638 181.961 403.919 180.744 405.385C177.413 409.399 166.793 405.065 166.793 399.691C166.793 398.333 167.852 398.568 171.734 400.788C174.452 402.341 177.917 403.619 179.433 403.627ZM457.965 401.503C459.593 402.244 460.926 403.359 460.926 403.98C460.926 405.711 451.568 404.082 449.472 401.986C447.804 400.317 447.969 400.153 451.322 400.153C453.347 400.153 456.336 400.76 457.965 401.503ZM409.15 404.924C411.41 406.909 413.26 408.946 413.26 409.45C413.26 411.224 403.356 408.198 401.349 405.811C396.794 400.392 403.163 399.667 409.15 404.924ZM442.291 403.703C441.091 405.946 434.649 410.602 432.733 410.612C430.911 410.621 431.99 408.341 435.439 404.893C439.682 400.648 444.36 399.837 442.291 403.703ZM448.3 403.931C450.328 407.7 451.614 415.456 450.129 414.962C448.333 414.363 444.65 406.961 444.65 403.95C444.65 400.576 446.49 400.567 448.3 403.931ZM268.021 405.8L270.688 407.959L267.86 409.761C265.503 411.261 264.108 411.343 259.509 410.244C256.471 409.519 253.987 408.586 253.987 408.172C253.987 407.111 261.154 403.699 263.449 403.667C264.497 403.652 266.555 404.613 268.021 405.8ZM355.131 405.204C355.131 407.374 351.679 410.157 347.865 411.064C343.849 412.017 343.719 410.296 347.522 406.495C350.593 403.422 355.131 402.652 355.131 405.204Z" fill="#064EA4"/>
</svg>
