
<svg viewBox="0 0 225 225" fill="none" xmlns="http://www.w3.org/2000/svg">
<ellipse cx="109.784" cy="110.484" rx="109.784" ry="110.484" fill="#7EB7FB"/>
<path opacity="0.6" fill-rule="evenodd" clip-rule="evenodd" d="M82.7071 56.673C82.7071 68.7461 72.92 78.5332 60.847 78.5332C60.2587 78.5332 59.6758 78.51 59.0992 78.4643C59.1248 78.2078 59.138 77.9476 59.138 77.6844C59.138 73.3991 55.664 69.9252 51.3788 69.9252C49.1267 69.9252 47.0988 70.8846 45.6814 72.417C41.5543 68.4406 38.9868 62.8566 38.9868 56.673C38.9868 44.6 48.7739 34.8129 60.847 34.8129C72.92 34.8129 82.7071 44.6 82.7071 56.673ZM45.0488 73.1959C40.6971 69.034 37.9868 63.17 37.9868 56.673C37.9868 44.0477 48.2217 33.8129 60.847 33.8129C73.4723 33.8129 83.7071 44.0477 83.7071 56.673C83.7071 69.2984 73.4723 79.5332 60.847 79.5332C60.2031 79.5332 59.5655 79.5066 58.9352 79.4544C58.1343 82.8868 55.0551 85.4436 51.3788 85.4436C47.0935 85.4436 43.6196 81.9696 43.6196 77.6844C43.6196 76.0119 44.1487 74.4629 45.0488 73.1959Z" fill="white"/>
<path opacity="0.6" fill-rule="evenodd" clip-rule="evenodd" d="M198.315 115.125C194.953 131.661 178.822 142.34 162.286 138.978C145.75 135.616 135.07 119.485 138.432 102.949C141.795 86.4132 157.925 75.7336 174.461 79.0958C181.21 80.468 186.984 83.9671 191.225 88.7526C187.018 89.4781 183.484 92.7069 182.582 97.1427C181.408 102.916 185.137 108.548 190.91 109.722C193.796 110.308 196.646 109.67 198.922 108.164C198.985 110.453 198.791 112.785 198.315 115.125ZM192.43 88.6154C193.325 88.565 194.241 88.6276 195.161 88.8147C200.934 89.9885 204.663 95.6202 203.489 101.394C202.989 103.853 201.68 105.942 199.895 107.439C200.024 110.025 199.835 112.669 199.295 115.324C195.823 132.401 179.164 143.43 162.087 139.958C145.009 136.486 133.98 119.827 137.453 102.75C140.925 85.6727 157.583 74.6436 174.661 78.1158C181.876 79.5828 188.011 83.4037 192.43 88.6154Z" fill="white"/>
<path opacity="0.6" fill-rule="evenodd" clip-rule="evenodd" d="M43.9062 178.785C39.4813 169.881 43.1126 159.075 52.0169 154.65C57.2896 152.03 63.2288 152.235 68.1152 154.686C66.6155 156.14 66.1541 158.45 67.1334 160.421C68.3453 162.86 71.3047 163.854 73.7434 162.642C74.3923 162.32 74.939 161.874 75.369 161.347C75.6481 161.802 75.9095 162.274 76.1517 162.761C80.5766 171.665 76.9453 182.471 68.041 186.896C59.1366 191.321 48.3311 187.689 43.9062 178.785ZM75.9663 160.419C76.3578 161.023 76.7191 161.656 77.0472 162.316C81.7179 171.715 77.8849 183.121 68.486 187.791C59.0871 192.462 47.6814 188.629 43.0107 179.23C38.34 169.831 42.173 158.425 51.5719 153.755C57.291 150.913 63.7531 151.219 68.9888 154.012C69.1068 153.941 69.2289 153.873 69.3547 153.811C71.7935 152.599 74.7529 153.594 75.9648 156.032C76.6784 157.468 76.627 159.085 75.9663 160.419Z" fill="white"/>
<circle opacity="0.6" cx="132.732" cy="42.4712" r="22.9486" fill="white"/>
<circle opacity="0.6" cx="139.663" cy="171.59" r="6.93079" fill="white"/>
<circle opacity="0.6" cx="29.4467" cy="114.964" r="14.9011" fill="white"/>
<path d="M199.022 170.209C199.022 170.209 198.604 176.201 196.883 177.484C195.161 178.768 187.484 177.49 187.484 177.49C187.484 177.49 182.349 170.22 184.472 167.232C186.595 164.245 190.462 165.085 193.028 165.944C195.26 167.003 197.289 168.447 199.022 170.209Z" fill="#D5A990"/>
<path d="M126.966 135.134L172.653 158.611L189.327 160.744C189.327 160.744 209.854 170.991 209.855 172.694C209.856 174.398 207.732 175.28 206.028 174.841C204.324 174.401 191.917 169.299 189.352 169.3C186.787 169.302 184.643 170.146 185.085 172.289C185.527 174.433 191.505 183.406 188.078 183.408C184.652 183.411 181.239 174.857 179.516 173.996C176.773 171.788 174.211 169.363 171.855 166.746C171.855 166.746 137.572 157.242 128.594 155.965C123.559 155.368 119.279 150.376 115.063 145.476L126.966 135.134Z" fill="#FFCBAE"/>
<mask id="mask0" mask-type="alpha" maskUnits="userSpaceOnUse" x="0" y="0" width="220" height="222">
<path d="M219.602 110.556C219.602 171.61 170.45 221.105 109.818 221.105C49.1861 221.105 0.0343018 171.61 0.0343018 110.556C0.0343018 49.5009 49.1861 0.00634766 109.818 0.00634766C170.45 0.00634766 219.602 49.5009 219.602 110.556Z" fill="#F2EAFF"/>
</mask>
<g mask="url(#mask0)">
<path d="M136.205 231.281C134.749 230.334 133.069 229.787 131.335 229.696L103.332 224.665C94.531 223.095 85.7298 221.731 77.1193 219.883C69.9171 218.416 62.5974 216.436 56.4073 212.446C50.3335 208.508 45.8812 202.515 43.8656 195.562C41.9672 188.595 41.4933 181.316 42.4721 174.161C42.6628 172.415 43.0002 170.684 43.3375 168.968C43.3375 168.941 43.3267 168.915 43.3075 168.896C43.2882 168.876 43.2621 168.866 43.2349 168.866C43.2076 168.866 43.1815 168.876 43.1623 168.896C43.143 168.915 43.1322 168.941 43.1322 168.968C40.6092 182.17 40.1985 197.645 50.0411 208.368C54.8231 213.576 61.4533 216.7 68.2302 218.739C75.9525 220.816 83.7889 222.442 91.6999 223.609C101.049 225.281 110.388 226.953 119.717 228.626C124.206 229.432 128.768 230.092 133.227 231.061C134.127 231.183 134.969 231.571 135.647 232.175C135.966 232.646 136.165 233.187 136.227 233.752C136.288 234.318 136.21 234.889 135.999 235.417C135.53 237.617 134.914 239.818 134.254 241.945C128.929 259.342 90.9518 341.911 89.9104 343.818C89.8077 344.024 90.1157 344.17 90.2331 343.979C99.0343 328.783 127.271 265.048 133.139 248.634C134.683 244.455 135.962 240.182 136.967 235.842C137.349 234.244 137.554 232.469 136.205 231.281Z" fill="#37474F"/>
<path d="M222.837 389.687H159.22C159.22 389.687 160.276 270.607 155.244 264.006C148.541 255.205 53.1802 254.281 33.0696 225.619C14.9978 199.861 30.9426 163.922 30.9426 163.922L103.171 162.646C101.454 170.369 99.1238 177.942 96.2033 185.295C96.2033 185.295 182.997 202.384 207.054 229.3C223.292 247.519 222.837 389.687 222.837 389.687Z" fill="#263238"/>
<path d="M108.965 180.454C106.888 180.905 104.855 181.544 102.892 182.361C100.809 183.138 98.7703 184.004 96.7607 184.957C92.8162 186.856 88.9772 188.966 85.2605 191.279C85.1432 191.352 85.2605 191.514 85.3632 191.455C89.2944 189.475 93.3576 187.7 97.4208 185.998L103.288 183.563C105.254 182.742 107.337 182.097 109.156 181.026C109.39 180.894 109.258 180.395 108.965 180.454Z" fill="#37474F"/>
<path d="M104.858 162.573C103.992 165.859 103.215 169.174 102.247 172.43C101.792 173.897 101.352 175.364 100.78 176.831C100.281 178.048 99.5478 179.442 98.125 179.764C96.4821 180.058 96.0273 178.65 96.174 177.3C96.3207 175.951 96.7461 174.278 97.0688 172.797C97.3915 171.315 97.7876 169.394 98.125 167.678C98.2863 166.812 98.4623 165.961 98.6237 165.096C98.6237 164.89 98.8437 163.248 98.9611 162.778C98.9611 162.778 98.9611 162.778 99.0491 162.778C99.074 162.778 99.0981 162.77 99.117 162.753C99.1358 162.737 99.1482 162.715 99.1518 162.69C99.1752 162.653 99.1876 162.61 99.1876 162.566C99.1876 162.521 99.1752 162.478 99.1518 162.441C99.1272 162.427 99.0994 162.419 99.0711 162.419C99.0428 162.419 99.0149 162.427 98.9904 162.441C98.6824 162.602 98.653 163.028 98.5503 163.35C98.2716 164.172 97.993 165.008 97.7436 165.844C97.2595 167.413 96.8048 168.983 96.3794 170.567L95.1472 175.32C94.7205 176.487 94.5944 177.743 94.7805 178.972C94.9193 179.559 95.2445 180.085 95.7073 180.471C96.1701 180.857 96.7456 181.083 97.3475 181.114C97.2833 181.218 97.2245 181.326 97.1715 181.437C97.0248 181.759 96.9075 182.111 96.7901 182.434C96.6728 182.757 96.5408 183.109 96.4381 183.461C96.3815 183.627 96.3469 183.799 96.3354 183.974C96.3354 184.165 96.3354 184.356 96.3354 184.546C96.3291 184.609 96.3441 184.672 96.3781 184.725C96.412 184.778 96.4628 184.818 96.5223 184.838C96.5818 184.858 96.6464 184.858 96.7057 184.837C96.7649 184.816 96.8154 184.776 96.8488 184.722C96.9368 184.561 97.0542 184.429 97.1568 184.268C97.2547 184.094 97.3381 183.912 97.4062 183.725C97.5089 183.388 97.6116 183.065 97.6996 182.728C97.7876 182.39 97.8903 182.067 97.9636 181.73C98.037 181.393 97.9636 181.319 97.9636 181.114C98.6494 181.058 99.3077 180.82 99.8705 180.425C100.797 179.653 101.488 178.636 101.865 177.491C102.379 176.127 102.79 174.704 103.186 173.31C104.243 169.848 104.989 166.299 105.415 162.705C105.406 162.644 105.379 162.587 105.338 162.541C105.296 162.496 105.242 162.464 105.181 162.449C105.121 162.435 105.058 162.439 105.001 162.461C104.943 162.483 104.893 162.522 104.858 162.573V162.573Z" fill="#37474F"/>
<path d="M61.8202 170.127C61.4975 171.755 61.2921 173.413 60.896 175.026C60.5 176.64 60.0599 178.195 59.5172 179.735C59.0224 181.23 58.3266 182.652 57.4489 183.96C56.5311 185.183 55.4389 186.265 54.2072 187.172C51.86 188.998 49.2285 190.425 46.4181 191.397C45.0069 191.886 43.5666 192.288 42.1056 192.599C41.3428 192.761 40.6387 192.893 39.8026 192.981C39.1621 192.993 38.5299 193.128 37.9397 193.377C37.8851 193.411 37.8402 193.459 37.809 193.515C37.7779 193.572 37.7615 193.635 37.7615 193.7C37.7615 193.764 37.7779 193.827 37.809 193.884C37.8402 193.94 37.8851 193.988 37.9397 194.022C39.046 194.372 40.2252 194.423 41.3575 194.169C42.5934 194.07 43.8196 193.874 45.0246 193.582C47.4661 192.97 49.8074 192.012 51.9775 190.736C54.189 189.54 56.1746 187.966 57.845 186.087C59.4008 184.113 60.4846 181.81 61.0134 179.354C61.8148 176.355 62.1901 173.259 62.1282 170.156C62.1216 170.122 62.104 170.091 62.0782 170.068C62.0524 170.044 62.0198 170.03 61.9852 170.027C61.9505 170.023 61.9157 170.031 61.886 170.049C61.8563 170.068 61.8332 170.095 61.8202 170.127V170.127Z" fill="#37474F"/>
<path d="M168.402 306.736C167.884 296.468 167.156 286.2 166.217 275.932C165.982 273.409 165.762 270.886 165.483 268.363C165.319 266.4 164.915 264.464 164.281 262.598C162.814 258.74 159.645 256.731 155.802 255.748C151.255 254.531 146.546 253.782 141.911 252.976C137.276 252.169 132.42 251.406 127.668 250.687C118.045 249.22 108.393 247.871 98.8146 246.14C89.2544 244.504 79.8083 242.26 70.5335 239.422C62.0404 236.738 53.3272 233.452 46.565 227.452C32.0284 214.544 31.7497 193.186 33.7593 175.349C34.038 172.826 34.3754 170.318 34.7128 167.795C34.7128 167.663 34.5221 167.619 34.5074 167.795C33.2312 177.843 31.7497 187.95 32.6298 198.086C33.1699 206.475 35.8406 214.588 40.3895 221.658C45.2741 228.86 52.5938 233.569 60.5002 236.87C69.2307 240.366 78.2526 243.085 87.4611 244.996C106.53 249.206 125.893 251.127 145.035 254.648C147.397 255.073 149.744 255.528 152.091 256.027C154.279 256.373 156.42 256.968 158.472 257.802C162.872 259.811 163.943 264.065 164.427 268.451C165.557 278.646 166.29 288.884 166.906 299.123C168.138 319.733 168.681 340.459 168.373 361.113L168.241 368.77C168.241 368.99 168.579 368.975 168.579 368.77C169.488 348.116 169.459 327.404 168.402 306.736Z" fill="#37474F"/>
<path d="M193.559 218.519C186.3 213.929 178.665 209.964 170.735 206.667C162.843 203.263 154.76 200.344 146.619 197.601C138.478 194.858 130.205 192.629 121.961 190.428C113.718 188.228 105.269 186.439 96.8634 184.781C100.985 185.94 105.166 186.923 109.288 188.096C113.41 189.27 117.561 190.311 121.668 191.499C129.897 193.846 138.126 196.237 146.223 198.98C154.32 201.723 162.359 204.525 170.368 207.679C174.343 209.263 178.274 210.935 182.103 212.739C185.931 214.544 189.818 216.421 193.559 218.519Z" fill="#37474F"/>
<path d="M172.702 154.04L170.288 169.701C170.288 169.701 149.943 169.342 121.426 155.083C115.735 147.617 93.0203 115.78 89.9399 95.6985C86.8595 75.6172 96.8929 79.6804 105.445 89.9484C113.996 100.216 128.013 128.34 133.493 133.537C138.973 138.733 172.702 154.04 172.702 154.04Z" fill="#2D7EDF"/>
<path d="M113.38 188.328C111.356 190.503 24.3858 200.443 23.9018 199.799C22.7576 198.075 36.2027 112.69 70.9674 81.8076C77.0988 76.3625 90.1453 74.3342 94.7805 77.6689C97.0982 79.2799 103.582 92.1679 105.342 103.622C107.102 115.076 114.627 186.959 113.38 188.328Z" fill="#0B2442"/>
<path d="M92.6241 93.5716C87.4901 93.8503 80.3905 84.8437 78.1315 78.1695C77.9848 77.7148 82.6935 61.3446 83.2802 58.0002C83.3976 57.3108 103.362 66.8013 103.362 66.8013C101.42 70.7654 99.9712 74.9528 99.049 79.2697C99.0343 79.7831 97.6261 93.2929 92.6241 93.5716Z" fill="#FFCBAE"/>
<path d="M103.435 66.8159C103.435 66.9186 103.186 67.3 102.907 67.9308C102.423 69.0016 101.645 70.7471 100.927 72.7714C100.142 74.8824 99.5386 77.0563 99.1225 79.2696C99.1225 79.431 99.1225 79.5923 99.1225 79.739C99.1225 80.0177 99.0345 80.3844 98.9758 80.8245C98.2818 80.7851 97.591 80.7019 96.9075 80.5751C85.5393 78.2721 84.1898 63.5742 84.0871 58.0148L84.4392 58.1468C84.9819 58.3228 85.6714 58.6015 86.5221 58.9536L87.1676 59.2323C88.5024 59.8043 90.1013 60.5231 91.7588 61.2565L93.4017 62.0046L96.8929 63.6182C97.3623 63.8529 97.8463 64.0729 98.3597 64.2636L99.8266 64.9237C100.041 65.0383 100.261 65.1412 100.487 65.2317L100.78 65.3784L102.438 66.1705L103.23 66.5372L103.567 66.6986L103.435 66.8159Z" fill="#96654A"/>
<path d="M86.1408 32.7409C82.0776 39.5031 80.6694 61.6234 84.674 67.6522C90.5414 76.3654 102.746 80.1058 110.828 72.4782C118.661 65.1439 119.981 36.232 115.229 30.4819C108.261 22.0182 92.1549 22.7369 86.1408 32.7409Z" fill="#FFCBAE"/>
<path d="M103.758 50.3431C103.758 50.3431 103.626 50.3431 103.626 50.4605C103.626 51.9274 103.347 53.6729 101.983 54.113V54.201C103.655 53.9663 103.978 51.6927 103.758 50.3431Z" fill="#263238"/>
<path d="M102.482 48.671C100.091 48.3922 99.7092 53.2035 101.924 53.4529C104.139 53.7023 104.491 48.8763 102.482 48.671Z" fill="#263238"/>
<path d="M112.353 51.2089C112.353 51.2089 112.471 51.2089 112.456 51.3409C112.295 52.8077 112.353 54.5533 113.659 55.1547C113.659 55.1547 113.659 55.2574 113.659 55.2427C112.016 54.876 111.957 52.5877 112.353 51.2089Z" fill="#263238"/>
<path d="M113.806 49.7566C116.211 49.7566 116.021 54.5826 113.806 54.5679C111.591 54.5533 111.781 49.742 113.806 49.7566Z" fill="#263238"/>
<path d="M101.425 46.5148C102.076 46.6298 102.732 46.7082 103.391 46.7495C104.073 46.9305 104.795 46.8789 105.445 46.6028C105.633 46.4804 105.775 46.2979 105.847 46.0849C105.919 45.8719 105.916 45.6409 105.841 45.4293C105.634 45.0286 105.323 44.6908 104.941 44.4509C104.56 44.2109 104.12 44.0777 103.67 44.0651C102.763 43.8951 101.825 44.0732 101.044 44.5638C100.871 44.684 100.736 44.8521 100.657 45.0474C100.578 45.2427 100.557 45.4569 100.598 45.6638C100.638 45.8707 100.738 46.0614 100.885 46.2125C101.032 46.3636 101.22 46.4686 101.425 46.5148V46.5148Z" fill="#263238"/>
<path d="M116.094 46.8083C115.456 46.6306 114.829 46.4151 114.216 46.1628C113.522 46.0298 112.892 45.6684 112.427 45.136C112.315 44.9412 112.271 44.7153 112.3 44.4928C112.329 44.2703 112.43 44.0634 112.588 43.9039C112.951 43.6361 113.378 43.4692 113.827 43.4202C114.275 43.3713 114.728 43.442 115.14 43.6252C116.027 43.8749 116.79 44.4446 117.282 45.224C117.39 45.4064 117.442 45.6168 117.431 45.8287C117.42 46.0405 117.346 46.2443 117.218 46.414C117.091 46.5837 116.916 46.7118 116.716 46.782C116.516 46.8522 116.299 46.8613 116.094 46.8083Z" fill="#263238"/>
<path d="M101.279 63.9999C101.616 64.3666 101.924 64.8801 102.467 64.9681C103.021 65.0027 103.576 64.9176 104.095 64.7187C104.095 64.7187 104.198 64.7187 104.095 64.8067C103.857 65.0786 103.551 65.2819 103.207 65.3954C102.864 65.5089 102.497 65.5285 102.144 65.4521C101.837 65.3469 101.569 65.1498 101.378 64.8874C101.186 64.625 101.08 64.3101 101.073 63.9853C101.117 63.9559 101.235 63.9413 101.279 63.9999Z" fill="#263238"/>
<path d="M84.6152 48.3777C89.6465 49.1552 92.0375 40.178 92.0375 40.178C92.0375 40.178 100.839 40.1779 103.142 33.8118C103.142 33.8118 110.476 40.3246 117.312 38.9898C124.147 37.6549 124.47 29.5139 123.971 27.8563C122.856 24.0425 116.798 27.7683 116.798 27.7683C111.99 23.9842 106.196 21.6623 100.105 21.0794C92.4922 20.654 87.6369 27.1229 87.6369 27.1229C87.6369 27.1229 83.4857 27.3429 81.7695 29.9686C80.0532 32.5943 81.4174 47.8936 84.6152 48.3777Z" fill="#263238"/>
<path d="M89.9985 39.9284C96.5261 41.85 101.645 38.1095 103.611 31.8754H103.728C102.614 37.7428 96.0127 43.6103 89.8812 40.1925C89.8621 40.1693 89.8498 40.1413 89.8457 40.1116C89.8416 40.0818 89.8459 40.0515 89.8581 40.0241C89.8703 39.9967 89.8899 39.9732 89.9147 39.9563C89.9395 39.9394 89.9686 39.9297 89.9985 39.9284Z" fill="#263238"/>
<path d="M87.8422 27.0348C87.8422 27.0348 87.9448 27.1521 87.8422 27.1668C85.8472 27.7389 83.6029 28.0616 81.9747 29.5578C80.0678 31.362 79.9798 34.1051 80.2145 36.54C80.5665 40.2952 81.6813 45.3412 84.6151 47.9229C84.7911 48.0696 84.5417 48.319 84.3804 48.1723C80.8599 45.2385 79.5544 38.8284 79.6717 34.4864C79.8771 29.6165 83.2656 27.3722 87.8422 27.0348Z" fill="#263238"/>
<path d="M110.227 36.6868C111.611 37.9055 113.328 38.6835 115.157 38.9213C116.986 39.1591 118.845 38.8459 120.495 38.0216C124.441 35.88 124.411 31.3621 123.428 27.4749C123.428 27.2842 123.663 27.1228 123.736 27.3135C125.291 30.8487 124.675 35.7773 121.345 38.1243C119.574 39.202 117.503 39.6825 115.438 39.495C113.373 39.3075 111.423 38.4619 109.875 37.0828C109.596 36.8628 109.948 36.4667 110.227 36.6868Z" fill="#263238"/>
<path d="M99.3572 58.8218C98.0875 58.5596 96.917 57.9462 95.9789 57.0514C95.0407 56.1567 94.3726 55.0165 94.0507 53.7606C93.7287 52.5048 93.7658 51.1838 94.1578 49.9481C94.5497 48.7123 95.2808 47.6114 96.2677 46.7707C97.2546 45.93 98.4577 45.3833 99.74 45.1928C101.022 45.0023 102.332 45.1757 103.521 45.6932C104.71 46.2107 105.729 47.0516 106.464 48.12C107.198 49.1885 107.617 50.4417 107.674 51.7368V51.7368C107.758 53.5711 107.109 55.3635 105.872 56.7197C104.634 58.0759 102.908 58.8848 101.073 58.9685C100.497 58.9939 99.9205 58.9446 99.3572 58.8218V58.8218ZM101.983 46.1774C101.5 46.0807 101.008 46.0413 100.516 46.0601C98.994 46.1262 97.5545 46.7703 96.4909 47.8611C95.4273 48.9518 94.8197 50.4071 94.792 51.9303C94.7642 53.4535 95.3185 54.93 96.3416 56.0587C97.3648 57.1874 98.7799 57.8835 100.299 58.005C101.817 58.1265 103.325 57.6642 104.515 56.7125C105.704 55.7608 106.486 54.3912 106.701 52.883C106.916 51.3748 106.547 49.8414 105.67 48.5954C104.794 47.3494 103.475 46.4847 101.983 46.1774V46.1774Z" fill="#E1EDFB"/>
<path d="M115.184 60.1274C112.603 59.5993 110.784 56.4455 111.107 52.7931C111.234 51.0724 111.89 49.433 112.984 48.0991C113.436 47.5254 114.024 47.0733 114.695 46.7837C115.366 46.494 116.098 46.3759 116.826 46.4399C117.553 46.504 118.254 46.7482 118.863 47.1505C119.473 47.5528 119.973 48.1007 120.318 48.7445C121.168 50.2503 121.527 51.9833 121.345 53.7025C121.008 57.5017 118.411 60.3914 115.61 60.142L115.184 60.1274ZM117.121 47.4097H116.769C116.175 47.3863 115.584 47.5075 115.047 47.7631C114.511 48.0186 114.044 48.4007 113.688 48.8765C112.714 50.0581 112.135 51.5148 112.031 53.0424C111.752 56.3282 113.395 59.1739 115.727 59.3793C118.059 59.5846 120.128 57.0616 120.45 53.7759C120.62 52.2515 120.307 50.7125 119.556 49.3753C119.309 48.8963 118.965 48.474 118.546 48.1356C118.126 47.7971 117.641 47.5499 117.121 47.4097V47.4097Z" fill="#E1EDFB"/>
<path d="M107.381 52.5142L106.853 51.7661C107.968 50.974 110.491 50.0058 112.016 51.9568L111.283 52.5288C109.919 50.7686 107.484 52.4408 107.381 52.5142Z" fill="#E1EDFB"/>
<path d="M76.4886 51.6047L75.7112 51.106C75.9458 50.7393 78.0288 47.5415 80.1117 47.3801C82.1947 47.2188 94.311 49.4924 94.7803 49.5804L94.6043 50.4899C91.0985 49.8445 81.6226 48.2016 80.1264 48.3043C78.6302 48.407 77.0607 50.7246 76.4886 51.6047Z" fill="#E1EDFB"/>
<path d="M86.5808 51.1352C86.5808 51.1352 83.3244 43.1555 79.8186 44.1529C76.3128 45.1504 77.6476 55.8878 81.0067 58.1468C81.418 58.4586 81.888 58.684 82.3886 58.8096C82.8891 58.9351 83.4099 58.9582 83.9196 58.8773C84.4293 58.7965 84.9174 58.6134 85.3545 58.3392C85.7917 58.0649 86.1689 57.7051 86.4635 57.2813L86.5808 51.1352Z" fill="#FFCBAE"/>
<path d="M80.2732 47.2484C80.2732 47.2484 80.1852 47.2484 80.2732 47.3364C82.6055 48.9646 83.4123 51.649 83.7937 54.3334C83.7019 54.0447 83.5492 53.7791 83.3459 53.5547C83.1425 53.3302 82.8932 53.1521 82.615 53.0325C82.3367 52.9128 82.036 52.8544 81.7332 52.8612C81.4304 52.868 81.1325 52.9398 80.8599 53.0719C80.8599 53.0719 80.8599 53.2185 80.8599 53.2332C81.3419 53.1926 81.8246 53.3018 82.2421 53.546C82.6596 53.7902 82.9914 54.1574 83.1923 54.5974C83.5205 55.3422 83.7711 56.1189 83.9404 56.915C83.9404 57.1791 84.4538 57.1497 84.4244 56.915C85.2899 53.5412 83.7203 48.3779 80.2732 47.2484Z" fill="#263238"/>
<path d="M98.9318 81.1475L91.9055 92.8824L78.9091 74.5466L73.6871 78.9472C73.6871 78.9472 84.8352 106.539 85.1139 105.424L92.0082 95.4641L98.2423 104.163L100.677 85.24L98.9318 81.1475Z" fill="#2D7EDF"/>
<path d="M99.9586 94.7449C100.252 91.6059 100.648 88.4521 100.795 85.2984C100.795 85.1957 100.633 85.1077 100.589 85.2984C99.4745 88.2321 98.4183 100.202 97.9343 103.047C97.6702 102.666 92.0668 95.3317 92.0668 95.4197C90.6 96.9599 85.6273 104.221 85.2606 104.866C83.5004 100.466 76.6061 84.4916 74.3765 80.2524C74.3765 80.135 74.1271 80.2524 74.1711 80.2524C75.638 84.8143 84.6592 106.333 84.8646 106.304C87.4508 102.92 89.8597 99.4049 92.0815 95.7717C92.9763 97.3266 98.4917 105.468 98.5944 105.013C99.2248 101.616 99.6801 98.1887 99.9586 94.7449V94.7449Z" fill="#062244"/>
<rect x="11.8582" y="186.996" width="196.639" height="51.3515" fill="#8096B0"/>
</g>
<path d="M111.171 182.142H108.455C107.903 182.142 107.455 182.589 107.455 183.142V184.219C107.455 184.771 107.903 185.219 108.455 185.219H111.171C111.724 185.219 112.171 184.771 112.171 184.219V183.142C112.171 182.589 111.724 182.142 111.171 182.142Z" fill="#62778F"/>
<path d="M117.301 181.941H114.585C114.033 181.941 113.585 182.389 113.585 182.941V184.019C113.585 184.571 114.033 185.019 114.585 185.019H117.301C117.853 185.019 118.301 184.571 118.301 184.019V182.941C118.301 182.389 117.853 181.941 117.301 181.941Z" fill="#62778F"/>
<path d="M123.418 181.741H120.702C120.15 181.741 119.702 182.189 119.702 182.741V183.819C119.702 184.371 120.15 184.819 120.702 184.819H123.418C123.971 184.819 124.418 184.371 124.418 183.819V182.741C124.418 182.189 123.971 181.741 123.418 181.741Z" fill="#62778F"/>
<path d="M129.536 181.529H126.82C126.267 181.529 125.82 181.976 125.82 182.529V183.606C125.82 184.158 126.267 184.606 126.82 184.606H129.536C130.088 184.606 130.536 184.158 130.536 183.606V182.529C130.536 181.976 130.088 181.529 129.536 181.529Z" fill="#62778F"/>
<path d="M135.653 181.329H132.937C132.385 181.329 131.937 181.776 131.937 182.329V183.406C131.937 183.958 132.385 184.406 132.937 184.406H135.653C136.205 184.406 136.653 183.958 136.653 183.406V182.329C136.653 181.776 136.205 181.329 135.653 181.329Z" fill="#62778F"/>
<path d="M141.771 181.128H139.054C138.502 181.128 138.054 181.576 138.054 182.128V183.206C138.054 183.758 138.502 184.206 139.054 184.206H141.771C142.323 184.206 142.771 183.758 142.771 183.206V182.128C142.771 181.576 142.323 181.128 141.771 181.128Z" fill="#62778F"/>
<path d="M147.9 180.928H145.184C144.632 180.928 144.184 181.376 144.184 181.928V183.006C144.184 183.558 144.632 184.006 145.184 184.006H147.9C148.453 184.006 148.9 183.558 148.9 183.006V181.928C148.9 181.376 148.453 180.928 147.9 180.928Z" fill="#62778F"/>
<path d="M154.018 180.716H151.302C150.749 180.716 150.302 181.163 150.302 181.716V182.793C150.302 183.345 150.749 183.793 151.302 183.793H154.018C154.57 183.793 155.018 183.345 155.018 182.793V181.716C155.018 181.163 154.57 180.716 154.018 180.716Z" fill="#62778F"/>
<path d="M160.135 180.515H157.419C156.867 180.515 156.419 180.963 156.419 181.515V182.593C156.419 183.145 156.867 183.593 157.419 183.593H160.135C160.687 183.593 161.135 183.145 161.135 182.593V181.515C161.135 180.963 160.687 180.515 160.135 180.515Z" fill="#62778F"/>
<path d="M162.299 185.996C162.299 186.548 161.851 186.996 161.299 186.996H107.304C106.752 186.996 106.304 186.548 106.304 185.996V184.228C106.304 183.686 106.735 183.243 107.276 183.228L161.271 181.72C161.834 181.704 162.299 182.157 162.299 182.72V185.996Z" fill="#BECAD7"/>
<path d="M248.392 164.165C247.998 166.011 246.368 167.33 244.48 167.33H151.468C148.922 167.33 147.024 164.984 147.556 162.495L161.936 95.1472C162.33 93.3015 163.96 91.9824 165.847 91.9824H258.86C261.405 91.9824 263.303 94.3284 262.772 96.8177L248.392 164.165Z" fill="#BECAD7"/>
<path d="M252.302 163.374C251.809 165.681 249.771 167.33 247.412 167.33H156.444C153.263 167.33 150.89 164.397 151.555 161.286L165.507 95.9384C166 93.6313 168.038 91.9824 170.397 91.9824H261.365C264.546 91.9824 266.919 94.9149 266.254 98.0265L252.302 163.374Z" fill="#8096B0"/>
<path d="M217.643 125.296C217.331 127.012 216.441 128.569 215.121 129.707C213.8 130.845 212.129 131.496 210.387 131.551C209.601 131.575 208.82 131.421 208.103 131.1C207.385 130.778 206.75 130.299 206.244 129.697C205.739 129.095 205.376 128.386 205.183 127.624C204.991 126.862 204.974 126.066 205.133 125.296C205.441 123.582 206.329 122.026 207.647 120.887C208.966 119.749 210.635 119.097 212.376 119.041C213.162 119.018 213.943 119.173 214.661 119.494C215.379 119.815 216.015 120.294 216.521 120.896C217.028 121.497 217.392 122.206 217.586 122.968C217.78 123.73 217.8 124.526 217.643 125.296Z" fill="#064EA4"/>
<path d="M222.834 185.995C222.834 186.548 222.387 186.995 221.834 186.995H174.07C173.517 186.995 173.07 186.548 173.07 185.995V184.098C173.07 183.558 173.498 183.116 174.038 183.099L221.802 181.562C222.367 181.544 222.834 181.996 222.834 182.561V185.995Z" fill="#E7EAEE"/>
<path d="M234.82 182.927C235.568 184.891 234.118 186.995 232.017 186.995H211.716C210.471 186.995 209.356 186.227 208.913 185.064L195.111 148.843C194.363 146.879 195.813 144.774 197.915 144.774H218.215C219.46 144.774 220.575 145.543 221.018 146.706L234.82 182.927Z" fill="#E7EAEE"/>
<path d="M239.739 184.283C240.238 185.592 239.272 186.995 237.87 186.995H215.43C214.6 186.995 213.857 186.483 213.561 185.708L198.986 147.487C198.487 146.178 199.454 144.774 200.855 144.774H223.295C224.125 144.774 224.869 145.287 225.164 146.062L239.739 184.283Z" fill="#BECAD7"/>
<path d="M91.758 162.619C93.749 161.943 95.6747 161.087 97.5115 160.064C99.7192 158.343 102.303 157.17 105.052 156.641C109.715 155.507 110.921 155.767 110.921 155.767C110.921 155.767 113.482 155.042 116.746 153.837C120.01 152.631 120.265 155.577 118.439 156.769C116.613 157.961 108.003 160.468 108.003 160.468C108.003 160.468 116.821 160.934 118.069 160.766C119.317 160.599 125.844 157.183 126.537 156.707C127.23 156.232 129.576 155.657 130.373 156.818C131.169 157.98 127.75 163.99 127.75 163.99C127.75 163.99 127.244 171.825 124.02 174.013C120.795 176.202 109.121 178.692 107.04 178.071C104.959 177.45 91.4193 175.097 91.4193 175.097L91.758 162.619Z" fill="#FFCBAE"/>
<path d="M94.2993 158.551L96.749 177.816C96.749 177.816 11.4657 190.402 5.71562 172.638C-0.0344746 154.874 42.3872 104.033 58.1559 90.3616C73.9247 76.6904 78.1492 83.9074 73.0299 97.8132C67.9105 111.719 46.0077 156.523 46.3744 156.523C46.7411 156.523 94.2993 158.551 94.2993 158.551Z" fill="#2D7EDF"/>
<path d="M59.4328 133.261C58.5497 134.268 57.6197 135.371 56.7355 136.469C56.5581 136.693 56.4028 136.92 56.2364 137.145C56.577 136.391 56.9301 135.626 57.2484 134.869C58.0929 132.908 58.8297 130.91 59.6093 128.929C59.621 128.891 59.6182 128.851 59.6015 128.815C59.5849 128.78 59.5556 128.752 59.5194 128.737C59.4832 128.722 59.4427 128.721 59.4059 128.735C59.3692 128.748 59.3388 128.775 59.3208 128.81C58.5032 130.492 57.6221 132.144 56.7934 133.824C55.9647 135.505 55.2298 136.996 54.4863 138.632C52.8739 141.94 51.2288 145.24 49.551 148.531C46.9768 154.074 45.3469 157.128 46.0925 157.411C49.6291 151.045 51.6663 147.015 54.7383 140.416L55.4944 138.77L55.7772 138.437C56.2137 137.887 56.6518 137.326 57.0677 136.763C57.9106 135.637 58.6725 134.443 59.466 133.265L59.4328 133.261Z" fill="#062244"/>
<path d="M109.175 117.326C108.941 118.415 108.715 119.585 108.525 120.724C108.489 120.955 108.472 121.173 108.446 121.398C108.356 120.778 108.272 120.145 108.162 119.537C107.896 117.951 107.522 116.411 107.192 114.853C107.184 114.826 107.161 114.805 107.13 114.796C107.099 114.787 107.061 114.79 107.024 114.804C106.987 114.818 106.953 114.842 106.929 114.872C106.906 114.901 106.894 114.935 106.896 114.965C107.048 116.382 107.132 117.822 107.274 119.245C107.416 120.669 107.542 121.931 107.732 123.279C108.027 126.069 108.29 128.875 108.522 131.696C109.122 136.294 109.277 138.956 110.031 138.655C109.822 133.02 109.523 129.577 108.816 124.099L108.632 122.738L108.701 122.384C108.791 121.817 108.877 121.243 108.943 120.682C109.086 119.552 109.128 118.436 109.204 117.308L109.175 117.326Z" fill="#062244"/>
<path d="M62.6758 156.593C52.4527 156.253 42.1946 156.54 31.9475 157.45L31.103 157.622C27.7759 157.308 25.4898 157.615 25.494 157.595C26.9777 157.589 28.4609 157.689 29.9339 157.787C29.056 157.916 28.1757 158.057 27.2908 158.221C24.9124 158.646 22.6112 159.26 22.6183 159.225C25.2155 158.758 27.851 158.465 30.4609 158.143C31.5502 158.008 42.6752 157.401 55.4592 157.414C73.3032 157.433 93.4295 158.608 94.2447 158.588C93.8695 158.182 83.5475 157.286 62.6758 156.593Z" fill="#062244"/>
</svg>
