
<svg viewBox="0 0 233 233" fill="none" xmlns="http://www.w3.org/2000/svg">
<path d="M232.068 116.034C232.068 180.118 180.118 232.068 116.034 232.068C51.9501 232.068 0 180.118 0 116.034C0 51.9501 51.9501 0 116.034 0C180.118 0 232.068 51.9501 232.068 116.034Z" fill="#F99D77"/>
<path opacity="0.6" fill-rule="evenodd" clip-rule="evenodd" d="M106.579 38.2095C106.579 50.2826 96.792 60.0697 84.7189 60.0697C84.1306 60.0697 83.5478 60.0465 82.9712 60.0008C82.9968 59.7443 83.0099 59.4841 83.0099 59.2209C83.0099 54.9356 79.536 51.4617 75.2507 51.4617C72.9987 51.4617 70.9707 52.4211 69.5533 53.9535C65.4262 49.9771 62.8588 44.3931 62.8588 38.2095C62.8588 26.1365 72.6459 16.3494 84.7189 16.3494C96.792 16.3494 106.579 26.1365 106.579 38.2095ZM68.9207 54.7324C64.5691 50.5705 61.8588 44.7065 61.8588 38.2095C61.8588 25.5842 72.0936 15.3494 84.7189 15.3494C97.3442 15.3494 107.579 25.5842 107.579 38.2095C107.579 50.8349 97.3442 61.0697 84.7189 61.0697C84.0751 61.0697 83.4375 61.0431 82.8071 60.9909C82.0062 64.4233 78.9271 66.9801 75.2507 66.9801C70.9654 66.9801 67.4915 63.5061 67.4915 59.2209C67.4915 57.5484 68.0207 55.9994 68.9207 54.7324Z" fill="white"/>
<path opacity="0.6" fill-rule="evenodd" clip-rule="evenodd" d="M214.089 123.592C214.089 140.466 200.41 154.146 183.536 154.146C166.661 154.146 152.982 140.466 152.982 123.592C152.982 106.717 166.661 93.0378 183.536 93.0378C191.63 93.0378 198.989 96.1855 204.456 101.324C202.382 103.27 201.086 106.036 201.086 109.105C201.086 114.996 205.862 119.772 211.753 119.772C212.463 119.772 213.156 119.703 213.827 119.571C214 120.887 214.089 122.229 214.089 123.592ZM214.804 119.33C214.992 120.723 215.089 122.146 215.089 123.592C215.089 141.018 200.962 155.146 183.536 155.146C166.109 155.146 151.982 141.018 151.982 123.592C151.982 106.165 166.109 92.0378 183.536 92.0378C191.935 92.0378 199.567 95.3195 205.221 100.671C207.026 99.2708 209.292 98.4375 211.753 98.4375C217.645 98.4375 222.421 103.213 222.421 109.105C222.421 113.936 219.209 118.017 214.804 119.33Z" fill="white"/>
<path opacity="0.6" fill-rule="evenodd" clip-rule="evenodd" d="M73.4991 104.46C73.4991 114.403 65.4385 122.464 55.4953 122.464C49.6075 122.464 44.3798 119.638 41.095 115.268C43.085 114.633 44.5263 112.769 44.5263 110.569C44.5263 107.846 42.3187 105.638 39.5954 105.638C38.8708 105.638 38.1827 105.794 37.563 106.075C37.5157 105.543 37.4916 105.004 37.4916 104.46C37.4916 94.5169 45.5521 86.4563 55.4953 86.4563C65.4385 86.4563 73.4991 94.5169 73.4991 104.46ZM36.6153 106.64C36.5336 105.925 36.4916 105.197 36.4916 104.46C36.4916 93.9646 44.9998 85.4563 55.4953 85.4563C65.9908 85.4563 74.4991 93.9646 74.4991 104.46C74.4991 114.956 65.9908 123.464 55.4953 123.464C49.109 123.464 43.4584 120.314 40.0128 115.482C39.8752 115.494 39.736 115.5 39.5954 115.5C36.8722 115.5 34.6646 113.292 34.6646 110.569C34.6646 108.965 35.4299 107.541 36.6153 106.64Z" fill="white"/>
<circle opacity="0.6" cx="159.376" cy="51.4617" r="11.0996" fill="white"/>
<circle opacity="0.6" cx="194.495" cy="64.9777" r="6.93079" fill="white"/>
<circle opacity="0.6" cx="22.8881" cy="72.1886" r="6.93079" fill="white"/>
<path d="M73.7178 199.523C75.1868 201.075 168.068 203.201 168.546 202.616C169.812 201.015 157.797 142.064 148.111 119.528C135.726 90.6136 128.668 88.0458 124.5 86.326C119.173 84.1284 109.475 84.642 107.135 85.6213C104.471 86.7082 92.9462 99.6425 89.4827 110.093C82.5438 131.101 72.428 198.161 73.7178 199.523Z" fill="#327CD2"/>
<path d="M138.825 95.8436C178.882 125.94 207.443 168.67 204.123 181.903C200.6 195.888 175.66 197.906 144.518 201.994C139.514 202.651 135.722 178.353 140.846 176.669C144.847 175.355 173.486 171.662 175.66 169.178C177.165 167.446 138.547 123.871 129.41 103.173C119.76 81.4251 128.1 87.7342 138.825 95.8436Z" fill="#FFCBAE"/>
<path d="M102.584 213.627C103.169 212.815 103.779 212.015 104.376 211.239C105.504 209.64 106.724 208.109 108.03 206.653C109.332 205.255 110.694 203.918 112.091 202.616C113.488 201.314 115.208 200.024 116.641 198.615C116.651 198.599 116.664 198.585 116.679 198.575C116.695 198.564 116.713 198.558 116.731 198.556C116.75 198.554 116.769 198.556 116.786 198.562C116.804 198.569 116.82 198.58 116.832 198.593C116.845 198.607 116.854 198.623 116.86 198.641C116.865 198.659 116.866 198.678 116.862 198.697C116.859 198.715 116.851 198.732 116.839 198.747C116.828 198.762 116.813 198.774 116.796 198.782C115.353 200.156 113.989 201.612 112.712 203.141C111.41 204.598 110.132 206.067 108.842 207.536C107.553 209.005 106.251 210.319 104.949 211.716C104.304 212.421 103.755 213.15 103.074 213.866C102.535 214.596 101.936 215.279 101.282 215.909C101.266 215.915 101.249 215.918 101.231 215.915C101.214 215.913 101.198 215.906 101.184 215.895C101.17 215.884 101.16 215.869 101.154 215.853C101.149 215.836 101.147 215.818 101.151 215.801C101.55 215.027 102.03 214.299 102.584 213.627V213.627Z" fill="#242E39"/>
<path d="M92.7312 208.671C94.7323 205.638 96.939 202.745 99.3357 200.013C101.771 197.298 104.472 194.833 107.397 192.656C107.505 192.584 107.636 192.727 107.553 192.823C105.164 195.546 102.644 198.221 100.172 200.908C98.9774 202.222 93.6628 208.349 93.0059 208.922C92.8506 209.065 92.6357 208.85 92.7312 208.671Z" fill="#242E39"/>
<path d="M111.733 218.56C113.67 215.743 115.793 213.058 118.086 210.522C120.66 208.175 123.402 206.019 126.291 204.073C126.399 204.073 126.542 204.145 126.447 204.24C123.879 206.629 121.287 208.922 118.851 211.406C117.656 212.6 113.19 217.736 111.948 218.799C111.84 218.847 111.661 218.691 111.733 218.56Z" fill="#242E39"/>
<path d="M184.43 131.22L153.928 150.998C153.928 150.998 131.295 115.957 125.431 99.356C119.567 82.7551 126.399 82.7193 142.414 94.7459C158.43 106.773 184.43 131.22 184.43 131.22Z" fill="#327CD2"/>
<path d="M177.527 126.885C165.895 136.141 154.406 142.411 152.124 144.023C152.017 144.095 151.921 143.916 152.029 143.844C154.346 142.435 166.779 133.286 177.408 126.694C177.527 126.61 177.611 126.801 177.527 126.885Z" fill="#1E3D60"/>
<path d="M155.886 149.684C155.248 149.96 154.63 150.279 154.035 150.639C150.643 144.787 146.989 138.864 143.537 133.035L138.473 124.484C136.73 121.51 135.129 118.405 133.218 115.539C133.214 115.53 133.207 115.523 133.2 115.516C133.192 115.51 133.183 115.506 133.174 115.503C133.164 115.5 133.154 115.499 133.145 115.5C133.135 115.501 133.125 115.504 133.117 115.509C133.108 115.514 133.101 115.52 133.094 115.528C133.088 115.535 133.084 115.544 133.081 115.553C133.078 115.563 133.077 115.573 133.078 115.583C133.079 115.592 133.082 115.602 133.087 115.61C134.331 118.442 135.718 121.208 137.243 123.899C136.933 123.493 136.634 123.063 136.3 122.705C135.547 121.809 134.807 120.913 134.138 119.958C134.03 119.814 133.78 119.958 133.887 120.101C134.532 121.009 135.081 121.952 135.691 122.908C136.3 123.863 136.885 124.771 137.542 125.69C138.199 126.61 138.844 127.41 139.524 128.234C139.597 128.343 139.677 128.446 139.763 128.545C140.695 130.253 141.602 131.96 142.57 133.644C145.962 139.532 153.665 151.392 153.772 151.356C154.549 150.929 155.288 150.438 155.982 149.887C156.03 149.78 156.03 149.66 155.886 149.684Z" fill="#1E3D60"/>
<path d="M89.7096 93.0023C57.2005 109.89 36.7039 127.779 21.6352 143.517C18.0522 152.499 21.7893 169.964 25.408 179.745C27.1756 184.522 56.1805 169.571 52.4424 165.618C43.1984 155.849 45.4364 149.11 46.4516 147.127C47.0846 145.861 94.881 114.189 104.865 100.264C118.791 80.8681 103.934 85.6095 89.7096 93.0023Z" fill="#FFCBAE"/>
<path d="M85.3982 206.115C81.1465 208.504 76.1542 197.528 76.1542 197.528C75.9984 199.624 75.1106 201.598 73.6462 203.106C70.9471 205.637 65.7996 202.508 65.7996 202.508C65.1784 204.645 63.9302 206.547 62.2166 207.966C59.3861 210.128 53.7371 207.728 53.7371 207.728C52.0844 209.377 49.8917 210.373 47.5625 210.534C41.3282 210.725 36.0374 202.807 32.6097 197.815C29.1821 192.823 24.1779 175.421 22.8881 172.209L54.788 149.983C54.788 149.983 76.5006 168.041 79.6894 174.49C82.3646 179.924 91.8833 202.473 85.3982 206.115Z" fill="white"/>
<path d="M76.2259 197.373C74.8166 190.936 71.7472 184.821 68.8451 178.992C68.7734 178.861 68.5704 178.992 68.642 179.088C71.6636 184.88 73.2043 191.616 75.999 197.504C76.0222 197.516 76.048 197.522 76.0742 197.522C76.1003 197.521 76.1259 197.514 76.1485 197.501C76.1712 197.488 76.1902 197.469 76.2037 197.447C76.2172 197.424 76.2248 197.399 76.2259 197.373V197.373Z" fill="#242E39"/>
<path d="M66.1459 202.114C65.6672 200.681 65.0048 199.316 64.1753 198.054C63.3751 196.668 62.5629 195.295 61.7269 193.921C60.0429 191.198 58.2993 188.511 56.472 185.872C56.3884 185.752 56.1973 185.872 56.2689 185.979C57.941 188.702 59.5772 191.449 61.1298 194.232C61.9061 195.629 62.6704 197.038 63.4348 198.436C64.0615 199.811 64.8385 201.113 65.7518 202.317C65.7847 202.357 65.8304 202.385 65.8811 202.395C65.9318 202.405 65.9845 202.398 66.0305 202.374C66.0765 202.351 66.1131 202.312 66.134 202.265C66.155 202.217 66.1592 202.164 66.1459 202.114V202.114Z" fill="#242E39"/>
<path d="M53.6654 207.656C53.2194 206.359 52.5572 205.148 51.7068 204.073C50.9066 202.879 50.1303 201.613 49.3182 200.382C47.7536 197.91 46.201 195.438 44.732 192.918C44.714 192.899 44.6904 192.887 44.6648 192.883C44.6392 192.879 44.6129 192.883 44.5899 192.895C44.567 192.907 44.5486 192.927 44.5376 192.95C44.5266 192.974 44.5236 193 44.529 193.025C46.0099 195.593 47.455 198.185 48.9599 200.741C49.7003 201.935 50.4408 203.249 51.1932 204.503C51.7665 205.708 52.5512 206.8 53.5102 207.727C53.6057 207.727 53.6893 207.656 53.6654 207.656Z" fill="#242E39"/>
<path d="M42.7495 118.31L66.5521 141.658C66.5521 141.658 97.8549 113.939 106.92 98.8425C115.985 83.7464 109.308 82.3371 91.1907 90.9362C73.073 99.5352 42.7495 118.31 42.7495 118.31Z" fill="#FFC727"/>
<path d="M42.7495 118.31L66.5521 141.658C66.5521 141.658 97.8549 113.939 106.92 98.8425C115.985 83.7464 109.308 82.3371 91.1907 90.9362C73.073 99.5352 42.7495 118.31 42.7495 118.31Z" fill="#327CD2"/>
<path d="M71.4964 135.556C60.5087 126.216 52.3874 116.506 50.5004 114.643C50.4168 114.548 50.5721 114.416 50.6557 114.512C52.4233 116.447 63.4467 126.563 71.6755 135.412C71.7711 135.52 71.6039 135.651 71.4964 135.556Z" fill="#1E3D60"/>
<path d="M92.5521 104.516C91.3578 107.071 90.1635 109.615 89.1483 112.243C89.1483 112.064 89.1483 111.896 89.1483 111.717C89.277 110.109 89.5205 108.513 89.8769 106.94C89.8769 106.761 89.65 106.677 89.6022 106.856C89.2439 108.445 88.9214 110.057 88.6706 111.634C88.5392 112.41 88.4676 113.186 88.4079 113.962C88.4133 114.058 88.4133 114.154 88.4079 114.249C88.4011 114.281 88.4011 114.313 88.4079 114.345C87.2136 117.844 86.5209 121.427 85.5296 124.962C85.5249 124.979 85.5236 124.997 85.5259 125.015C85.5281 125.033 85.5339 125.05 85.5427 125.065C85.5516 125.081 85.5634 125.095 85.5776 125.106C85.5917 125.117 85.6079 125.125 85.6251 125.129C85.6424 125.134 85.6604 125.135 85.6781 125.133C85.6959 125.131 85.713 125.125 85.7285 125.116C85.744 125.107 85.7577 125.095 85.7686 125.081C85.7796 125.067 85.7876 125.051 85.7923 125.034C86.7717 121.57 88.181 118.214 89.3753 114.834C90.5696 111.454 91.5967 108.003 92.7671 104.599C92.8029 104.492 92.5999 104.396 92.5521 104.516Z" fill="#1E3D60"/>
<path d="M109.296 102.287C114.527 103.743 123.984 96.85 127.822 89.4959C128.084 89.0469 127.438 84.1351 127.092 78.2504C126.888 74.6104 126.745 70.6913 126.877 67.0513C126.877 66.299 104.185 71.759 104.185 71.759C105.47 77.0483 104.983 82.2274 104.983 87.5194C104.983 92.7327 103.209 99.8746 109.296 102.287Z" fill="#FFCBAE"/>
<path d="M125.491 67.0858C124.225 73.0574 119.914 87.6279 107.899 87.3891C107.13 87.3931 105.744 87.1992 104.987 87.06C104.979 87.1434 104.979 86.9766 104.987 87.06C104.987 86.5234 105.01 85.472 105.01 85.472C105.01 85.472 105.267 76.1491 104.149 71.6122C104.149 71.6122 120.582 67.8024 125.491 67.0858Z" fill="#DAAC92"/>
<path d="M125.718 37.2638C129.432 44.7402 129.074 68.1725 124.321 74.1799C117.43 82.8864 104.256 85.8005 96.3739 77.094C88.7423 68.6383 89.7574 38.1118 95.2512 32.4627C103.325 24.1383 120.2 26.2284 125.718 37.2638Z" fill="#FFCBAE"/>
<path d="M108.687 55.9786C111.219 55.8114 111.363 60.9111 109.01 61.0664C106.657 61.2217 106.549 56.1339 108.687 55.9786Z" fill="#242E39"/>
<path d="M96.971 56.3131C94.4271 56.1937 94.3674 61.2934 96.7202 61.4009C99.073 61.5083 99.0969 56.4206 96.971 56.3131Z" fill="#242E39"/>
<path d="M110.921 51.8941C110.223 51.8445 109.529 51.7527 108.843 51.6194C108.097 51.6203 107.371 51.377 106.776 50.9267C106.618 50.7512 106.523 50.528 106.505 50.2922C106.488 50.0564 106.55 49.8216 106.681 49.6249C106.999 49.2705 107.405 49.0072 107.859 48.8623C108.312 48.7175 108.796 48.6962 109.261 48.8008C110.236 48.8614 111.153 49.2879 111.828 49.9951C111.956 50.1693 112.034 50.3749 112.054 50.5899C112.074 50.8049 112.036 51.0213 111.943 51.2161C111.849 51.411 111.705 51.5769 111.525 51.6963C111.345 51.8157 111.136 51.884 110.921 51.8941Z" fill="#242E39"/>
<path d="M94.5228 52.6705C95.2274 52.5272 95.8484 52.2883 96.5292 52.0853C97.2651 51.9753 97.9447 51.6271 98.464 51.094C98.596 50.8955 98.6583 50.6586 98.641 50.4208C98.6237 50.183 98.5278 49.9576 98.3684 49.7803C98.0012 49.4767 97.559 49.2776 97.0882 49.204C96.6174 49.1305 96.1355 49.1851 95.6932 49.3623C94.728 49.5636 93.8747 50.1225 93.3046 50.9268C93.2013 51.1211 93.1537 51.3401 93.167 51.5598C93.1803 51.7794 93.254 51.9911 93.3801 52.1715C93.5061 52.3518 93.6795 52.4939 93.8811 52.582C94.0827 52.67 94.3048 52.7007 94.5228 52.6705V52.6705Z" fill="#242E39"/>
<path d="M110.312 72.2212C109.941 72.5914 109.571 73.1169 109.01 73.1766C108.423 73.1817 107.841 73.0637 107.302 72.8303C107.302 72.8303 107.194 72.8303 107.23 72.9139C107.466 73.2173 107.778 73.4517 108.136 73.5925C108.493 73.7333 108.882 73.7753 109.261 73.714C109.579 73.6194 109.862 73.4329 110.074 73.178C110.287 72.923 110.419 72.6109 110.455 72.2809C110.479 72.1853 110.359 72.1614 110.312 72.2212Z" fill="#242E39"/>
<path d="M103.767 69.5341C104.456 70.3839 105.353 71.042 106.37 71.445C106.937 71.6253 107.547 71.6253 108.114 71.445C109.368 71.0748 109.368 69.9163 109.105 68.937C108.96 68.4139 108.755 67.909 108.496 67.4321C107.187 68.6232 105.528 69.3604 103.767 69.5341V69.5341Z" fill="#242E39"/>
<path d="M106.37 71.5046C106.937 71.6849 107.547 71.6849 108.114 71.5046C109.368 71.1344 109.368 69.9759 109.105 68.9966C108.432 69.0427 107.795 69.316 107.298 69.7717C106.801 70.2274 106.474 70.8384 106.37 71.5046V71.5046Z" fill="#FF98B9"/>
<path opacity="0.2" d="M128.214 53.8886C126.686 53.6019 123.15 48.3112 121.634 46.2092C120.117 44.1072 119.52 33.0001 119.436 30.4921C122.128 32.1106 124.306 34.4585 125.718 37.2638C127.366 40.6079 128.214 47.1407 128.214 53.8886Z" fill="#242E39"/>
<path d="M100.148 39.1272C101.033 40.1501 102.164 40.9304 103.435 41.3944C104.705 41.8583 106.073 41.9905 107.409 41.7786C108.776 41.5595 110.064 40.9931 111.15 40.1336C112.235 39.2741 113.081 38.1504 113.608 36.87C113.608 36.7983 113.751 36.87 113.727 36.87C113.287 38.259 112.476 39.5014 111.382 40.4632C110.287 41.4251 108.951 42.0698 107.517 42.328C106.096 42.5079 104.654 42.3113 103.333 41.758C102.012 41.2046 100.861 40.3138 99.9927 39.175C99.8971 39.1511 100.064 39.0317 100.148 39.1272Z" fill="#242E39"/>
<path d="M108.257 19.4926C112.855 19.5762 117.083 22.0962 118.791 25.2133C119.734 26.9881 120.049 29.0291 119.687 31.0057C119.687 31.0893 119.508 31.0774 119.52 31.0057C119.603 29.2559 119.214 27.5159 118.395 25.9676C117.575 24.4192 116.355 23.1193 114.862 22.2037C113.229 21.1411 111.371 20.4725 109.435 20.2507C107.499 20.029 105.538 20.2601 103.707 20.9257C101.924 21.5446 100.414 22.7705 99.4433 24.3892C99.3597 24.5564 99.0134 24.3892 99.085 24.2698C100.303 21.3438 104.077 19.4329 108.257 19.4926Z" fill="#242E39"/>
<path d="M81.6003 29.6202C82.3343 27.3423 83.8539 25.3994 85.8878 24.1383C88.6945 22.3826 91.8594 22.6215 95.0482 22.944C95.1437 22.944 95.1318 23.0873 95.0482 23.0753C92.3491 22.8245 89.6021 22.729 87.1299 24.0189C85.0814 25.0608 83.4598 26.7838 82.5438 28.8916C81.6645 31.0555 81.5947 33.4637 82.3471 35.6749C83.0995 37.886 84.6237 39.7518 86.6403 40.9303C87.8181 41.5807 89.1166 41.983 90.4558 42.1124C91.7951 42.2418 93.1466 42.0956 94.4272 41.6827C94.5227 41.6827 94.5944 41.7902 94.4988 41.8379C92.7675 42.4735 90.8933 42.6134 89.0868 42.242C87.2803 41.8706 85.6132 41.0027 84.2731 39.7357C82.9329 38.4687 81.9727 36.853 81.5006 35.0702C81.0284 33.2874 81.0629 31.4083 81.6003 29.644V29.6202Z" fill="#242E39"/>
<path d="M127.271 41.8261C127.271 41.8261 131.546 33.5614 127.856 28.832C125.754 26.1567 118.899 26.5867 118.899 26.5867C117.038 23.8764 114.177 22.0162 110.944 21.4153C105.188 20.221 98.3922 23.589 98.3922 23.589C98.3922 23.589 92.9104 20.5196 87.8345 23.4934C80.7523 27.6377 81.7555 38.482 88.9572 41.8977C94.0211 44.2863 100.817 39.7599 100.817 39.7599C101.474 39.8435 108.245 43.8325 113.273 37.7774C113.273 37.7774 117.441 41.3603 121.132 38.7925C121.72 39.8667 122.625 40.7339 123.723 41.2766C124.821 41.8192 126.06 42.011 127.271 41.8261V41.8261Z" fill="#242E39"/>
<path d="M123.95 56.6116C123.95 56.6116 128.023 48.4783 131.642 49.8279C135.26 51.1775 132.944 62.4398 129.253 64.4821C128.795 64.7772 128.281 64.9764 127.744 65.0677C127.206 65.159 126.656 65.1405 126.126 65.0132C125.596 64.886 125.097 64.6527 124.659 64.3274C124.222 64.0021 123.855 63.5916 123.58 63.1205L123.95 56.6116Z" fill="#FFCBAE"/>
<path d="M130.949 53.0405C131.009 53.0405 131.033 53.1122 130.949 53.148C128.357 54.6648 127.283 57.4356 126.65 60.2303C126.77 59.9313 126.953 59.662 127.187 59.4406C127.422 59.2193 127.701 59.0512 128.006 58.948C128.311 58.8447 128.635 58.8088 128.956 58.8425C129.276 58.8762 129.585 58.9789 129.862 59.1434C129.946 59.1434 129.862 59.3106 129.862 59.2987C129.362 59.2099 128.846 59.2768 128.385 59.4904C127.923 59.704 127.539 60.0539 127.283 60.493C126.869 61.2508 126.541 62.0518 126.303 62.8816C126.208 63.1563 125.742 63.0847 125.802 62.7861C125.169 59.2629 127.175 53.9482 130.949 53.0405Z" fill="#242E39"/>
<path d="M130.412 90.709C127.957 93.7636 125.334 96.6783 122.553 99.4394C119.866 101.947 116.582 104.217 112.999 104.575C109.416 104.933 105.833 104.241 104.507 99.8933C103.432 96.4417 103.576 92.8827 104.149 88.4398C104.149 88.405 104.135 88.3716 104.11 88.3469C104.086 88.3223 104.052 88.3085 104.017 88.3085C103.983 88.3085 103.949 88.3223 103.925 88.3469C103.9 88.3716 103.886 88.405 103.886 88.4398C103.122 94.1486 102.357 102.998 107.553 104.921C113.381 107.083 119.042 104.038 123.079 100.001C125.894 97.2264 128.401 94.155 130.555 90.8404C130.555 90.7329 130.459 90.6135 130.412 90.709Z" fill="#1E3D60"/>
<path d="M86.8497 197.029C86.8653 197.835 86.7195 198.637 86.421 199.386C86.1224 200.135 85.677 200.817 85.111 201.392C84.545 201.967 83.8699 202.423 83.1252 202.733C82.3806 203.043 81.5815 203.201 80.7748 203.197C79.1308 203.192 77.5543 202.543 76.382 201.39C75.2097 200.238 74.5346 198.672 74.501 197.029C74.4806 196.222 74.6226 195.418 74.9186 194.667C75.2146 193.916 75.6586 193.231 76.2241 192.655C76.7896 192.079 77.4652 191.622 78.2108 191.311C78.9563 191.001 79.7566 190.844 80.5642 190.849C82.2104 190.857 83.7882 191.508 84.9621 192.662C86.1359 193.816 86.8131 195.383 86.8497 197.029V197.029Z" fill="white"/>
<path d="M108.489 67.6954C108.198 68.2193 107.802 68.6768 107.324 69.0386C106.847 69.4004 106.299 69.6586 105.717 69.7967C105.21 69.9347 104.684 69.9902 104.16 69.9612C104.063 69.9741 103.965 69.9741 103.868 69.9612H103.59C103.521 69.9537 103.456 69.9236 103.406 69.8755C103.355 69.8275 103.322 69.7642 103.311 69.6954V69.6954V69.4802V69.3663C103.223 68.3916 103.223 66.8346 103.223 66.8346C102.881 67.0372 101.109 67.9739 101.109 67.4549C100.958 63.0695 101.25 58.68 101.982 54.3535C101.991 54.3282 102.007 54.3062 102.028 54.2905C102.05 54.2749 102.076 54.2665 102.103 54.2665C102.129 54.2665 102.155 54.2749 102.177 54.2905C102.198 54.3062 102.215 54.3282 102.223 54.3535C102.387 58.4422 101.83 62.5182 101.932 66.6194C102.565 66.2796 103.242 66.0283 103.944 65.8726C104.084 65.8726 103.881 68.7587 103.944 69.2017C104.743 69.2395 105.541 69.1167 106.291 68.8406C107.041 68.5645 107.728 68.1406 108.311 67.5941C108.451 67.5182 108.552 67.5941 108.489 67.6954Z" fill="#242E39"/>
<path d="M179.601 221.715H51.8496V227.537H179.601C180.706 227.537 181.601 226.641 181.601 225.537V223.715C181.601 222.611 180.706 221.715 179.601 221.715Z" fill="white"/>
<path opacity="0.5" d="M153.821 221.715L158.271 227.537H51.8495V221.715H153.821Z" fill="#62778F"/>
<path d="M148.277 227.537H21.8227L12.2648 149.51C11.7537 145.337 15.0093 141.658 19.2129 141.658H128.907C133.96 141.658 138.219 145.427 138.833 150.443L148.277 227.537Z" fill="#E7EAEE"/>
<path d="M87.4937 184.598C87.5131 185.603 87.3314 186.602 86.9592 187.536C86.587 188.47 86.0319 189.32 85.3264 190.036C84.6209 190.753 83.7793 191.321 82.8511 191.707C81.9229 192.094 80.9267 192.291 79.9213 192.287C77.872 192.28 75.9068 191.471 74.4456 190.034C72.9843 188.598 72.1428 186.646 72.1009 184.598C72.0755 183.591 72.2525 182.59 72.6215 181.654C72.9904 180.717 73.5438 179.864 74.2488 179.146C74.9537 178.427 75.7959 177.857 76.7252 177.471C77.6545 177.084 78.6521 176.888 79.6587 176.894C81.7107 176.905 83.6775 177.716 85.1407 179.155C86.6039 180.593 87.4481 182.546 87.4937 184.598V184.598Z" fill="#064EA4"/>
</svg>
