<svg viewBox="0 0 184 56" fill="none" xmlns="http://www.w3.org/2000/svg">
    <path d="M29.6562 35.0635L14.9297 28.0508V41.9746L29.6562 35.0635Z" fill="#3277BC" />
    <path d="M14.9297 13.9238L0 7.0127V34.8602L14.9297 41.9746V13.9238Z" fill="#11459B" />
    <path d="M14.8281 14.127L0 7.0127L14.8281 0L29.3516 7.0127L14.8281 14.127Z" fill="#3277BC" />
    <path d="M22.0391 49.0722L36.9169 42.0425V56L22.0391 49.0722Z" fill="#A42618" />
    <path d="M36.9169 27.8812L52 20.9534V48.8684L36.9169 56V27.8812Z" fill="#D63228" />
    <path d="M37.0195 28.085L52 20.9535L37.0195 13.9238L22.3469 20.9535L37.0195 28.085Z" fill="#E05826" />
    <path
        d="M68.6475 24H65.1885V10.1753H60.2246V7.1543H73.6226V10.1753H68.6475V24ZM75.2285 24V7.1543H78.4517V14.0947C79.2603 13.0615 80.4207 12.5449 81.9331 12.5449C83.3481 12.5449 84.4525 12.9829 85.2461 13.8589C86.0397 14.7274 86.4365 15.944 86.4365 17.5088V24H83.2134V18.3623C83.2134 17.4264 83.0075 16.7039 82.5957 16.1948C82.1839 15.6857 81.6074 15.4312 80.8662 15.4312C80.11 15.4312 79.5186 15.6895 79.0918 16.2061C78.665 16.7227 78.4517 17.4414 78.4517 18.3623V24H75.2285ZM99.2954 22.7422C97.9028 23.7305 96.3792 24.2246 94.7246 24.2246C93.4967 24.2246 92.3924 23.9626 91.4116 23.4385C90.4383 22.9069 89.6672 22.1882 89.0981 21.2822C88.5366 20.3763 88.2559 19.3543 88.2559 18.2163C88.2559 17.1307 88.5104 16.1611 89.0195 15.3076C89.5361 14.4541 90.2362 13.7803 91.1196 13.2861C92.0031 12.792 93.0063 12.5449 94.1294 12.5449C95.2899 12.5449 96.3118 12.8182 97.1953 13.3647C98.0788 13.9038 98.7676 14.66 99.2617 15.6333C99.7559 16.5991 100.003 17.7184 100.003 18.9912V19.3506H91.7261C91.8608 19.7923 92.0817 20.1816 92.3887 20.5186C92.6956 20.848 93.0775 21.11 93.5342 21.3047C93.9909 21.4993 94.515 21.5967 95.1064 21.5967C96.252 21.5967 97.3188 21.2261 98.3071 20.4849L99.2954 22.7422ZM91.5801 17.7109H97.0269C96.967 17.2243 96.8135 16.7975 96.5664 16.4307C96.3268 16.0563 96.0086 15.7643 95.6118 15.5547C95.2225 15.3451 94.7845 15.2402 94.2979 15.2402C93.8037 15.2402 93.362 15.3488 92.9727 15.5659C92.5908 15.783 92.2801 16.075 92.0405 16.4419C91.8009 16.8088 91.6475 17.2318 91.5801 17.7109ZM106.472 22.1807L108.111 19.5415C108.628 19.9608 109.126 20.3052 109.605 20.5747C110.092 20.8368 110.571 21.0314 111.042 21.1587C111.514 21.2785 111.997 21.3384 112.491 21.3384C113.075 21.3384 113.581 21.256 114.007 21.0913C114.434 20.9266 114.764 20.6908 114.996 20.3838C115.235 20.0768 115.355 19.7212 115.355 19.3169C115.355 18.8452 115.205 18.4484 114.906 18.1265C114.606 17.8045 114.213 17.5238 113.727 17.2842C113.247 17.0371 112.727 16.8013 112.166 16.5767C111.619 16.3521 111.069 16.1087 110.515 15.8467C109.968 15.5771 109.463 15.259 108.999 14.8921C108.542 14.5252 108.171 14.0798 107.887 13.5557C107.61 13.0241 107.471 12.3802 107.471 11.624C107.471 10.6357 107.718 9.78223 108.212 9.06348C108.714 8.34473 109.399 7.79069 110.268 7.40137C111.136 7.01204 112.128 6.81738 113.244 6.81738C114.03 6.81738 114.846 6.9222 115.692 7.13184C116.545 7.34147 117.395 7.65967 118.241 8.08643L116.882 10.8828C116.351 10.5609 115.778 10.3063 115.164 10.1191C114.55 9.93197 113.974 9.83838 113.435 9.83838C112.948 9.83838 112.521 9.91325 112.154 10.063C111.795 10.2127 111.514 10.4224 111.312 10.6919C111.11 10.9539 111.009 11.2646 111.009 11.624C111.009 12.0508 111.155 12.4214 111.447 12.7358C111.739 13.0428 112.117 13.3161 112.581 13.5557C113.053 13.7952 113.558 14.0348 114.097 14.2744C114.651 14.514 115.209 14.776 115.771 15.0605C116.34 15.3451 116.856 15.682 117.32 16.0713C117.792 16.4531 118.17 16.9136 118.455 17.4526C118.747 17.9842 118.893 18.6243 118.893 19.373C118.893 20.3613 118.631 21.2298 118.106 21.9785C117.582 22.7197 116.852 23.3 115.917 23.7192C114.981 24.131 113.891 24.3369 112.648 24.3369C111.51 24.3369 110.421 24.1535 109.38 23.7866C108.34 23.4198 107.37 22.8844 106.472 22.1807ZM124.306 29.6152H121.071V12.7695H123.901L124.07 14.2969C124.549 13.7503 125.122 13.3236 125.788 13.0166C126.462 12.7021 127.196 12.5449 127.989 12.5449C129.022 12.5449 129.94 12.7995 130.741 13.3086C131.542 13.8102 132.174 14.5028 132.639 15.3862C133.103 16.2622 133.335 17.2617 133.335 18.3848C133.335 19.5003 133.103 20.4998 132.639 21.3833C132.174 22.2668 131.542 22.9631 130.741 23.4722C129.94 23.9738 129.022 24.2246 127.989 24.2246C127.256 24.2246 126.574 24.0936 125.945 23.8315C125.324 23.562 124.777 23.1914 124.306 22.7197V29.6152ZM127.169 21.3271C127.731 21.3271 128.225 21.2036 128.652 20.9565C129.079 20.702 129.412 20.3538 129.651 19.9121C129.898 19.4629 130.022 18.9538 130.022 18.3848C130.022 17.8083 129.898 17.2992 129.651 16.8574C129.412 16.4157 129.079 16.0675 128.652 15.813C128.225 15.5584 127.735 15.4312 127.181 15.4312C126.657 15.4312 126.185 15.5472 125.766 15.7793C125.346 16.0039 125.006 16.3184 124.744 16.7227C124.489 17.127 124.343 17.5911 124.306 18.1152V18.6768C124.343 19.1859 124.489 19.6426 124.744 20.0469C124.998 20.4437 125.335 20.7581 125.754 20.9902C126.174 21.2148 126.645 21.3271 127.169 21.3271ZM145.722 22.7422C144.33 23.7305 142.806 24.2246 141.151 24.2246C139.924 24.2246 138.819 23.9626 137.838 23.4385C136.865 22.9069 136.094 22.1882 135.525 21.2822C134.963 20.3763 134.683 19.3543 134.683 18.2163C134.683 17.1307 134.937 16.1611 135.446 15.3076C135.963 14.4541 136.663 13.7803 137.546 13.2861C138.43 12.792 139.433 12.5449 140.556 12.5449C141.717 12.5449 142.739 12.8182 143.622 13.3647C144.506 13.9038 145.194 14.66 145.688 15.6333C146.183 16.5991 146.43 17.7184 146.43 18.9912V19.3506H138.153C138.288 19.7923 138.508 20.1816 138.815 20.5186C139.122 20.848 139.504 21.11 139.961 21.3047C140.418 21.4993 140.942 21.5967 141.533 21.5967C142.679 21.5967 143.746 21.2261 144.734 20.4849L145.722 22.7422ZM138.007 17.7109H143.454C143.394 17.2243 143.24 16.7975 142.993 16.4307C142.754 16.0563 142.435 15.7643 142.039 15.5547C141.649 15.3451 141.211 15.2402 140.725 15.2402C140.23 15.2402 139.789 15.3488 139.399 15.5659C139.018 15.783 138.707 16.075 138.467 16.4419C138.228 16.8088 138.074 17.2318 138.007 17.7109ZM158.424 22.2144C157.877 22.8433 157.207 23.3374 156.414 23.6968C155.62 24.0487 154.748 24.2246 153.797 24.2246C152.644 24.2246 151.611 23.9738 150.697 23.4722C149.791 22.9631 149.076 22.2668 148.552 21.3833C148.036 20.4998 147.777 19.5003 147.777 18.3848C147.777 17.2617 148.036 16.2622 148.552 15.3862C149.076 14.5028 149.791 13.8102 150.697 13.3086C151.611 12.7995 152.644 12.5449 153.797 12.5449C154.74 12.5449 155.609 12.7209 156.402 13.0728C157.196 13.4246 157.866 13.9113 158.413 14.5327L156.515 16.5205C156.223 16.1836 155.852 15.9215 155.403 15.7344C154.961 15.5397 154.497 15.4424 154.01 15.4424C153.449 15.4424 152.947 15.5697 152.505 15.8242C152.064 16.0713 151.715 16.4157 151.461 16.8574C151.206 17.2917 151.079 17.7933 151.079 18.3623C151.079 18.9388 151.206 19.4517 151.461 19.9009C151.715 20.3501 152.064 20.702 152.505 20.9565C152.947 21.2036 153.449 21.3271 154.01 21.3271C154.497 21.3271 154.965 21.2336 155.414 21.0464C155.863 20.8517 156.23 20.5859 156.515 20.249L158.424 22.2144ZM162.029 10.0854C161.602 10.0854 161.243 9.93571 160.951 9.63623C160.659 9.33675 160.513 8.97363 160.513 8.54688C160.513 8.12012 160.659 7.76074 160.951 7.46875C161.243 7.16927 161.602 7.01953 162.029 7.01953C162.463 7.01953 162.826 7.16927 163.118 7.46875C163.418 7.76074 163.567 8.12012 163.567 8.54688C163.567 8.97363 163.418 9.33675 163.118 9.63623C162.826 9.93571 162.463 10.0854 162.029 10.0854ZM163.646 24H160.423V12.7695H163.646V24ZM176.438 24H173.63L173.461 22.6636C173.05 23.1577 172.541 23.5433 171.934 23.8203C171.328 24.0898 170.661 24.2246 169.935 24.2246C169.149 24.2246 168.449 24.0749 167.835 23.7754C167.221 23.4684 166.738 23.0492 166.386 22.5176C166.034 21.9785 165.858 21.3683 165.858 20.687C165.858 19.9683 166.049 19.3356 166.431 18.7891C166.813 18.2425 167.337 17.8158 168.003 17.5088C168.677 17.1943 169.441 17.0371 170.294 17.0371C170.796 17.0371 171.298 17.0933 171.799 17.2056C172.308 17.3179 172.78 17.4751 173.214 17.6772V17.3853C173.214 16.936 173.087 16.5505 172.833 16.2285C172.585 15.8991 172.241 15.6445 171.799 15.4648C171.365 15.2852 170.878 15.1953 170.339 15.1953C169.823 15.1953 169.31 15.2777 168.801 15.4424C168.299 15.6071 167.835 15.8542 167.408 16.1836L166.532 13.7241C167.288 13.3348 168.052 13.0428 168.823 12.8481C169.602 12.646 170.354 12.5449 171.081 12.5449C172.174 12.5449 173.121 12.762 173.922 13.1963C174.723 13.623 175.341 14.2295 175.775 15.0156C176.217 15.7943 176.438 16.7189 176.438 17.7896V24ZM170.643 21.7427C171.069 21.7427 171.477 21.6491 171.867 21.4619C172.256 21.2747 172.57 21.0202 172.81 20.6982C173.057 20.3763 173.188 20.0207 173.203 19.6313V19.5527C172.874 19.3281 172.507 19.1559 172.103 19.0361C171.706 18.9089 171.301 18.8452 170.89 18.8452C170.276 18.8452 169.774 18.98 169.385 19.2495C168.995 19.519 168.801 19.8672 168.801 20.2939C168.801 20.571 168.879 20.8218 169.037 21.0464C169.201 21.2635 169.422 21.4357 169.699 21.563C169.976 21.6828 170.291 21.7427 170.643 21.7427ZM182.401 24H178.953V6.70508H182.401V24ZM75.9697 45.8887C75.1836 46.6523 74.2515 47.2513 73.1733 47.6855C72.0952 48.1198 70.9235 48.3369 69.6582 48.3369C68.3779 48.3369 67.1987 48.1198 66.1206 47.6855C65.0425 47.2438 64.1029 46.6299 63.3018 45.8438C62.5081 45.0501 61.8905 44.1217 61.4487 43.0586C61.007 41.9954 60.7861 40.835 60.7861 39.5771C60.7861 38.3193 61.007 37.1589 61.4487 36.0957C61.8905 35.0251 62.5081 34.0967 63.3018 33.3105C64.1029 32.5244 65.0425 31.9142 66.1206 31.48C67.1987 31.0382 68.3779 30.8174 69.6582 30.8174C70.916 30.8174 72.0802 31.0345 73.1509 31.4688C74.229 31.903 75.1611 32.5057 75.9473 33.2769L73.5327 35.7026C73.061 35.1261 72.4845 34.6732 71.8032 34.3438C71.1294 34.0068 70.3957 33.8384 69.6021 33.8384C68.8459 33.8384 68.1458 33.9844 67.502 34.2764C66.8656 34.5609 66.3078 34.9652 65.8286 35.4893C65.3494 36.0059 64.9788 36.6123 64.7168 37.3086C64.4548 38.0049 64.3237 38.7573 64.3237 39.5659C64.3237 40.3895 64.4548 41.1494 64.7168 41.8457C64.9788 42.542 65.3494 43.1522 65.8286 43.6763C66.3078 44.1929 66.8656 44.5972 67.502 44.8892C68.1458 45.1737 68.8459 45.3159 69.6021 45.3159C70.3957 45.3159 71.1294 45.1512 71.8032 44.8218C72.4771 44.4849 73.0498 44.0282 73.5215 43.4517L75.9697 45.8887ZM78.2158 48V31.1543H81.439V38.0947C82.2476 37.0615 83.408 36.5449 84.9204 36.5449C86.3354 36.5449 87.4398 36.9829 88.2334 37.8589C89.027 38.7274 89.4238 39.944 89.4238 41.5088V48H86.2007V42.3623C86.2007 41.4264 85.9948 40.7039 85.583 40.1948C85.1712 39.6857 84.5947 39.4312 83.8535 39.4312C83.0973 39.4312 82.5059 39.6895 82.0791 40.2061C81.6523 40.7227 81.439 41.4414 81.439 42.3623V48H78.2158ZM101.957 48H99.1494L98.981 46.6636C98.5692 47.1577 98.0601 47.5433 97.4536 47.8203C96.8472 48.0898 96.1808 48.2246 95.4546 48.2246C94.6685 48.2246 93.9684 48.0749 93.3545 47.7754C92.7406 47.4684 92.2576 47.0492 91.9058 46.5176C91.5539 45.9785 91.3779 45.3683 91.3779 44.687C91.3779 43.9683 91.5688 43.3356 91.9507 42.7891C92.3325 42.2425 92.8566 41.8158 93.5229 41.5088C94.1968 41.1943 94.9604 41.0371 95.814 41.0371C96.3156 41.0371 96.8172 41.0933 97.3188 41.2056C97.828 41.3179 98.2996 41.4751 98.7339 41.6772V41.3853C98.7339 40.936 98.6066 40.5505 98.3521 40.2285C98.105 39.8991 97.7606 39.6445 97.3188 39.4648C96.8846 39.2852 96.3979 39.1953 95.8589 39.1953C95.3423 39.1953 94.8294 39.2777 94.3203 39.4424C93.8187 39.6071 93.3545 39.8542 92.9277 40.1836L92.0518 37.7241C92.8079 37.3348 93.5716 37.0428 94.3428 36.8481C95.1214 36.646 95.8739 36.5449 96.6001 36.5449C97.6932 36.5449 98.6403 36.762 99.4414 37.1963C100.243 37.623 100.86 38.2295 101.294 39.0156C101.736 39.7943 101.957 40.7189 101.957 41.7896V48ZM96.1621 45.7427C96.5889 45.7427 96.9969 45.6491 97.3862 45.4619C97.7756 45.2747 98.09 45.0202 98.3296 44.6982C98.5767 44.3763 98.7077 44.0207 98.7227 43.6313V43.5527C98.3932 43.3281 98.0264 43.1559 97.6221 43.0361C97.2253 42.9089 96.821 42.8452 96.4092 42.8452C95.7952 42.8452 95.2936 42.98 94.9043 43.2495C94.515 43.519 94.3203 43.8672 94.3203 44.2939C94.3203 44.571 94.3989 44.8218 94.5562 45.0464C94.7209 45.2635 94.9417 45.4357 95.2188 45.563C95.4958 45.6828 95.8102 45.7427 96.1621 45.7427ZM107.696 48H104.473V36.7695H107.28L107.393 38.7124C107.767 38.0311 108.276 37.4995 108.92 37.1177C109.564 36.7358 110.301 36.5449 111.132 36.5449C111.372 36.5449 111.611 36.5636 111.851 36.6011C112.098 36.631 112.349 36.6797 112.604 36.7471L112.199 39.6445C111.705 39.5023 111.237 39.4312 110.795 39.4312C110.174 39.4312 109.627 39.5734 109.156 39.8579C108.692 40.1349 108.332 40.5243 108.078 41.0259C107.823 41.52 107.696 42.1003 107.696 42.7666V48ZM123.767 48H120.959L120.791 46.6636C120.379 47.1577 119.87 47.5433 119.263 47.8203C118.657 48.0898 117.99 48.2246 117.264 48.2246C116.478 48.2246 115.778 48.0749 115.164 47.7754C114.55 47.4684 114.067 47.0492 113.715 46.5176C113.363 45.9785 113.188 45.3683 113.188 44.687C113.188 43.9683 113.378 43.3356 113.76 42.7891C114.142 42.2425 114.666 41.8158 115.333 41.5088C116.006 41.1943 116.77 41.0371 117.624 41.0371C118.125 41.0371 118.627 41.0933 119.128 41.2056C119.638 41.3179 120.109 41.4751 120.543 41.6772V41.3853C120.543 40.936 120.416 40.5505 120.162 40.2285C119.915 39.8991 119.57 39.6445 119.128 39.4648C118.694 39.2852 118.208 39.1953 117.668 39.1953C117.152 39.1953 116.639 39.2777 116.13 39.4424C115.628 39.6071 115.164 39.8542 114.737 40.1836L113.861 37.7241C114.618 37.3348 115.381 37.0428 116.152 36.8481C116.931 36.646 117.683 36.5449 118.41 36.5449C119.503 36.5449 120.45 36.762 121.251 37.1963C122.052 37.623 122.67 38.2295 123.104 39.0156C123.546 39.7943 123.767 40.7189 123.767 41.7896V48ZM117.972 45.7427C118.398 45.7427 118.806 45.6491 119.196 45.4619C119.585 45.2747 119.9 45.0202 120.139 44.6982C120.386 44.3763 120.517 44.0207 120.532 43.6313V43.5527C120.203 43.3281 119.836 43.1559 119.432 43.0361C119.035 42.9089 118.631 42.8452 118.219 42.8452C117.605 42.8452 117.103 42.98 116.714 43.2495C116.325 43.519 116.13 43.8672 116.13 44.2939C116.13 44.571 116.208 44.8218 116.366 45.0464C116.53 45.2635 116.751 45.4357 117.028 45.563C117.305 45.6828 117.62 45.7427 117.972 45.7427ZM136.232 46.2144C135.686 46.8433 135.016 47.3374 134.222 47.6968C133.429 48.0487 132.556 48.2246 131.605 48.2246C130.452 48.2246 129.419 47.9738 128.506 47.4722C127.6 46.9631 126.885 46.2668 126.361 45.3833C125.844 44.4998 125.586 43.5003 125.586 42.3848C125.586 41.2617 125.844 40.2622 126.361 39.3862C126.885 38.5028 127.6 37.8102 128.506 37.3086C129.419 36.7995 130.452 36.5449 131.605 36.5449C132.549 36.5449 133.417 36.7209 134.211 37.0728C135.005 37.4246 135.675 37.9113 136.221 38.5327L134.323 40.5205C134.031 40.1836 133.661 39.9215 133.211 39.7344C132.77 39.5397 132.306 39.4424 131.819 39.4424C131.257 39.4424 130.756 39.5697 130.314 39.8242C129.872 40.0713 129.524 40.4157 129.27 40.8574C129.015 41.2917 128.888 41.7933 128.888 42.3623C128.888 42.9388 129.015 43.4517 129.27 43.9009C129.524 44.3501 129.872 44.702 130.314 44.9565C130.756 45.2036 131.257 45.3271 131.819 45.3271C132.306 45.3271 132.773 45.2336 133.223 45.0464C133.672 44.8517 134.039 44.5859 134.323 44.249L136.232 46.2144ZM145.947 47.708C145.086 48.0524 144.251 48.2246 143.442 48.2246C142.604 48.2246 141.863 48.0487 141.219 47.6968C140.582 47.3374 140.084 46.8395 139.725 46.2031C139.366 45.5592 139.186 44.818 139.186 43.9795V39.6445H137.221V36.7695H139.354V33.9619H142.409V36.7695H145.52V39.6445H142.409V43.3955C142.409 44.0094 142.578 44.4886 142.915 44.833C143.251 45.1699 143.671 45.3384 144.172 45.3384C144.629 45.3384 145.075 45.1961 145.509 44.9116L145.947 47.708ZM158.166 46.7422C156.773 47.7305 155.249 48.2246 153.595 48.2246C152.367 48.2246 151.263 47.9626 150.282 47.4385C149.308 46.9069 148.537 46.1882 147.968 45.2822C147.407 44.3763 147.126 43.3543 147.126 42.2163C147.126 41.1307 147.381 40.1611 147.89 39.3076C148.406 38.4541 149.106 37.7803 149.99 37.2861C150.873 36.792 151.876 36.5449 153 36.5449C154.16 36.5449 155.182 36.8182 156.065 37.3647C156.949 37.9038 157.638 38.66 158.132 39.6333C158.626 40.5991 158.873 41.7184 158.873 42.9912V43.3506H150.596C150.731 43.7923 150.952 44.1816 151.259 44.5186C151.566 44.848 151.948 45.11 152.404 45.3047C152.861 45.4993 153.385 45.5967 153.977 45.5967C155.122 45.5967 156.189 45.2261 157.177 44.4849L158.166 46.7422ZM150.45 41.7109H155.897C155.837 41.2243 155.684 40.7975 155.437 40.4307C155.197 40.0563 154.879 39.7643 154.482 39.5547C154.093 39.3451 153.655 39.2402 153.168 39.2402C152.674 39.2402 152.232 39.3488 151.843 39.5659C151.461 39.783 151.15 40.075 150.911 40.4419C150.671 40.8088 150.518 41.2318 150.45 41.7109ZM164.14 48H160.917V36.7695H163.725L163.837 38.7124C164.211 38.0311 164.72 37.4995 165.364 37.1177C166.008 36.7358 166.746 36.5449 167.577 36.5449C167.816 36.5449 168.056 36.5636 168.295 36.6011C168.542 36.631 168.793 36.6797 169.048 36.7471L168.644 39.6445C168.149 39.5023 167.681 39.4312 167.24 39.4312C166.618 39.4312 166.072 39.5734 165.6 39.8579C165.136 40.1349 164.777 40.5243 164.522 41.0259C164.267 41.52 164.14 42.1003 164.14 42.7666V48Z"
        fill="white" />
</svg>